<?xml version="1.0" standalone="no"?>
<!DOCTYPE svg PUBLIC "-//W3C//DTD SVG 1.1//EN" "http://www.w3.org/Graphics/SVG/1.1/DTD/svg11.dtd" >
<svg>
<metadata>
Created by FontForge 20090914 at Sat Aug  1 17:15:06 2015
 By www-data
Copyright (c) Active Images, 2009. All rights reserved.
</metadata>
<defs>
<font id="Supercell-Magic" horiz-adv-x="1777" >
  <font-face 
    font-family="Supercell-Magic"
    font-weight="400"
    font-stretch="normal"
    units-per-em="2048"
    panose-1="3 2 5 2 5 6 2 2 2 5"
    ascent="1638"
    descent="-410"
    x-height="1485"
    cap-height="1839"
    bbox="-455.004 -442.001 2739.33 2379.6"
    underline-thickness="40"
    underline-position="-231"
    unicode-range="U+000D-U+FB02"
  />
<missing-glyph horiz-adv-x="748" 
d="M68 0v1365h544v-1365h-544zM136 68h408v1229h-408v-1229z" />
    <glyph glyph-name=".notdef" horiz-adv-x="748" 
d="M68 0v1365h544v-1365h-544zM136 68h408v1229h-408v-1229z" />
    <glyph glyph-name="glyph1" horiz-adv-x="2048" 
 />
    <glyph glyph-name="glyph1" horiz-adv-x="2048" 
 />
    <glyph glyph-name="uni000D" unicode="&#xd;" horiz-adv-x="827" 
 />
    <glyph glyph-name="space" unicode=" " horiz-adv-x="827" 
 />
    <glyph glyph-name="exclam" unicode="!" horiz-adv-x="905" 
d="M113 86c1.33301 27.333 3.66699 53.667 7 79s6.33301 46 9 62c4 24.667 17.333 46.667 40 66s48.334 35 77.001 47s57.334 21.833 86.001 29.5s51.667 12.834 69 15.501c16.667 2.66699 35.5 3 56.5 1s42.5 -5.33301 64.5 -10s43.5 -10.834 64.5 -18.501
s38.5 -15.5 52.5 -23.5c19.333 -49.333 33.666 -101.666 42.999 -156.999s10.666 -110.333 3.99902 -165c-9.33301 -16.667 -28.333 -32 -57 -46s-62.5 -25.5 -101.5 -34.5s-80 -15.5 -123 -19.5s-84 -5.66699 -123 -5s-72.167 4.66699 -99.5 12s-45 18.666 -53 33.999
s-13 34.5 -15 57.5s-2.33301 48.167 -1 75.5zM189.001 1304.5c2.66699 213 3.99805 423.832 3.99805 632.499c106.667 13.333 212.5 21.833 317.5 25.5s201.167 -10.833 288.5 -43.5l-58.5 -391.5l-50 -356l-39 -288.5c-11 -83.333 -19.167 -147 -24.5 -191
c-19.333 -5.33301 -49.166 -10.333 -89.499 -15s-82.333 -9.16699 -126 -13.5s-85 -7.16602 -124 -8.49902s-66.5 0 -82.5 4c-13.333 217.333 -18.666 432.5 -15.999 645.5z" />
    <glyph glyph-name="quotedbl" unicode="&#x22;" horiz-adv-x="1183" 
d="M109 1622c68 42 137.832 69.6699 209.499 83.0029s143.834 11.666 216.501 -5.00098v-203.5c0 -69 -1.5 -135.333 -4.5 -199s-7.16699 -124.834 -12.5 -183.501s-13.333 -109.667 -24 -153c-35.333 -18 -76.333 -33.5 -123 -46.5s-91 -17.5 -133 -13.5
c-4 61.333 -11.5 125.833 -22.5 193.5s-23 134 -36 199s-26 126.167 -39 183.5s-23.5 105.666 -31.5 144.999zM665.999 1616c76.667 35.333 152.502 55.498 227.502 60.498s147.833 -4.16699 218.5 -27.5l-37.5 -195.5c-13 -66.333 -26.333 -131 -40 -194
s-28.334 -122.167 -44.001 -177.5s-33.167 -104 -52.5 -146c-39.333 -13.333 -84 -24.166 -134 -32.499s-95.333 -7.16602 -136 3.50098c6.66699 58.667 10.667 121.5 12 188.5s1.33301 132.667 0 197s-3.33301 124.833 -6 181.5s-5.33398 104 -8.00098 142z" />
    <glyph glyph-name="numbersign" unicode="#" horiz-adv-x="1478" 
d="M102 1175.5c1.33301 42.333 4.16504 82.3379 8.49805 120.005s9.16602 67.834 14.499 90.501c10.667 1.33301 29.334 3.16602 56.001 5.49902s58.334 4.83301 95.001 7.5c1.33301 60 2.83301 118 4.5 174s3.16699 110 4.5 162c61.333 19.333 128.166 31 200.499 35
s139.166 4.66699 200.499 2c-1.33301 -58.667 -2 -117.167 -2 -175.5s-1.33301 -116.833 -4 -175.5c27.333 1.33301 54 2.33301 80 3s52 1.66699 78 3l4 183.5c1.33301 61 3.33301 122.167 6 183.5c10.667 9.33301 33.5 17.833 68.5 25.5s72.167 13.167 111.5 16.5
s77.166 5.33301 113.499 6s62.166 -0.333008 77.499 -3c1.33301 -62.667 2.33301 -127.5 3 -194.5s1.66699 -135.833 3 -206.5c27.333 1.33301 52.5 1.66602 75.5 0.999023s40.167 -1.66699 51.5 -3c2.66699 -24.667 4.66699 -56.167 6 -94.5s2.33301 -79 3 -122
s0.666992 -83.667 0 -122s-3 -69.5 -7 -93.5c-15.333 -1.33301 -34.5 -3.16602 -57.5 -5.49902s-47.5 -4.16602 -73.5 -5.49902c-1.33301 -32.667 -2 -64 -2 -94s-0.666992 -60.667 -2 -92c36.667 0 69.667 -0.333008 99 -1s49.333 -2.33398 60 -5.00098
c2.66699 -24.667 5.16699 -56.167 7.5 -94.5s3.83301 -78.666 4.5 -120.999s0.5 -82.833 -0.5 -121.5s-3.5 -70.334 -7.5 -95.001c-18 -1.33301 -42.5 -2.83301 -73.5 -4.5s-64.5 -4.5 -100.5 -8.5l-4 -174c-1.33301 -56 -2.66602 -109 -3.99902 -159
c-61.333 -19.333 -121.666 -27 -180.999 -23s-118.333 6.66699 -177 8v326l-98.5 -4l-98.5 -4c-1.33301 -44 -2.66602 -85.833 -3.99902 -125.5s-3.33301 -79.834 -6 -120.501c-10.667 -10.667 -32.5 -18.834 -65.5 -24.501s-68.5 -10.167 -106.5 -13.5
s-74.167 -5 -108.5 -5s-58.833 0.666992 -73.5 2c-1.33301 82 -3.66602 168 -6.99902 258c-27.333 -2.66699 -52.166 -5.33398 -74.499 -8.00098s-41.166 -5.33398 -56.499 -8.00098c-6.66699 39.333 -11 81.833 -13 127.5s-2 90.334 0 134.001s5 84 9 121s9 67.833 15 92.5
c9.33301 0 23.833 0.666992 43.5 2s43.834 2.66602 72.501 3.99902v170c-34 -2.66699 -64 -5.33398 -90 -8.00098s-47.667 -5.66699 -65 -9c-6.66699 38 -10.834 80.333 -12.501 127s-1.83398 91.167 -0.500977 133.5zM663.999 784.005
c28.667 1.33301 57.667 3.16797 87 5.50098s58.333 4.16602 87 5.49902v176l-168 -10z" />
    <glyph glyph-name="dollar" unicode="$" horiz-adv-x="1662" 
d="M100 825c0 53.333 2.1582 110.001 6.49121 170.001s12.166 120.5 23.499 181.5s26.666 120.167 45.999 177.5s43.333 110.333 72 159c42 13.333 87.333 26 136 38s112.334 22.667 191.001 32c-1.33301 42 -2.66602 80.167 -3.99902 114.5s-2.66602 66.5 -3.99902 96.5
l-4 86c-1.33301 27.333 -3.33301 56 -6 86c44 18 90.5 32.333 139.5 43s98.833 18.834 149.5 24.501s100.167 8.5 148.5 8.5s92.833 -2 133.5 -6c-13.333 -80.667 -21.666 -154.167 -24.999 -220.5s-8.66602 -129.5 -15.999 -189.5l224.5 20.5
c59.667 5.66699 114.834 6.5 165.501 2.5c2.66699 -10.667 6 -28.834 10 -54.501s7.66699 -53.834 11 -84.501s5.66602 -60.667 6.99902 -90s0.666016 -55.666 -2.00098 -78.999c-48 -2.66699 -102.333 -6.33398 -163 -11.001s-122 -10.334 -184 -17.001
s-122 -13.834 -180 -21.501s-107.667 -16.167 -149 -25.5c-12 -2.66699 -23.167 -11.167 -33.5 -25.5s-17.833 -29.833 -22.5 -46.5s-5.66699 -31.5 -3 -44.5s10.334 -20.833 23.001 -23.5c39.333 -6.66699 93.5 -15.167 162.5 -25.5s141.333 -20.166 217 -29.499l217 -26.5
c69 -8.33301 123.167 -15.166 162.5 -20.499c15.333 -36.667 24 -82 26 -136s-1.16699 -109.333 -9.5 -166s-21.666 -110.667 -39.999 -162s-41.166 -91.333 -68.499 -120l-81 -32.5c-25.333 -9.66699 -50.833 -18.834 -76.5 -27.501s-52.167 -17.167 -79.5 -25.5
s-57.666 -16.5 -90.999 -24.5c-4 -69.333 -8 -134.166 -12 -194.499s-14.333 -121.166 -31 -182.499c-22 -6.66699 -54 -12.834 -96 -18.501s-86.333 -10.5 -133 -14.5s-91.834 -6 -135.501 -6s-76.834 2.66699 -99.501 8
c-1.33301 70.667 -3.16602 132.334 -5.49902 185.001s-4.83301 102.334 -7.5 149.001c-36.667 -5.33301 -70.667 -10.5 -102 -15.5s-61.666 -9.5 -90.999 -13.5s-59 -7.66699 -89 -11s-62.333 -6.33301 -97 -9c-12 15.333 -22.833 38.333 -32.5 69s-17.5 62.667 -23.5 96
s-10.667 65.333 -14 96s-4.33301 52 -3 64c45.333 5.33301 98 12.5 158 21.5s119.333 18.667 178 29s111.834 20.666 159.501 30.999s82.5 20.166 104.5 29.499c6.66699 4 14.5 9.16699 23.5 15.5s17.5 13.166 25.5 20.499s14.833 14.833 20.5 22.5
s7.83398 14.167 6.50098 19.5c-4 16.667 -12.167 29.334 -24.5 38.001s-26.833 15 -43.5 19s-34.5 6.66699 -53.5 8s-37.5 3 -55.5 5c-32.667 4 -72.167 6 -118.5 6s-95.166 0.333008 -146.499 1s-102.5 2.66699 -153.5 6s-97.167 10.333 -138.5 21z" />
    <glyph glyph-name="percent" unicode="%" horiz-adv-x="2072" 
d="M100 1446.5c0 70.333 0.665039 138.002 1.99805 203.002s3.66602 116.5 6.99902 154.5c28.667 30 67.5 56 116.5 78s103.167 38.5 162.5 49.5s121.5 17.167 186.5 18.5s126.167 -3.5 183.5 -14.5s109.166 -28.167 155.499 -51.5s80.5 -52.666 102.5 -87.999
c2.66699 -23.333 5.33398 -55.5 8.00098 -96.5s5.33398 -85.167 8.00098 -132.5l106.5 179l112.5 183c61.333 6.66699 122.166 8.33398 182.499 5.00098s115.666 -8.33301 165.999 -15s93.666 -13.834 129.999 -21.501s61.166 -13.5 74.499 -17.5
c-87.333 -136.667 -175.333 -282.5 -264 -437.5l-264 -479.5c61.333 15.333 126.5 24.5 195.5 27.5s134.5 -0.5 196.5 -10.5s118 -26.667 168 -50s87.333 -54 112 -92c4 -23.333 7 -55.833 9 -97.5s4 -86.834 6 -135.501s3.33301 -99.167 4 -151.5s1 -101.333 1 -147
s-0.333008 -85.834 -1 -120.501s-1.66699 -59.667 -3 -75c-23.333 -34 -59.166 -62.667 -107.499 -86s-102.5 -40.833 -162.5 -52.5s-123.167 -17.834 -189.5 -18.501s-129.5 5.16602 -189.5 17.499s-114 30.333 -162 54s-83.333 53.5 -106 89.5
c-4 42 -7.16699 96.5 -9.5 163.5s-4.16602 135.167 -5.49902 204.5l-136.5 -281.5l-129.5 -275.5c-60 -6.66699 -119.667 -10 -179 -10s-113.666 1.33301 -162.999 4s-91.666 6.5 -126.999 11.5s-60 8.83301 -74 11.5l232.5 520c73 158 146.5 308.667 220.5 452
c-56 -4 -112.667 -4.16699 -170 -0.5s-111.666 11.834 -162.999 24.501s-97.166 30 -137.499 52s-70.5 49.333 -90.5 82c-4 45.333 -7.5 101.333 -10.5 168s-4.5 135.167 -4.5 205.5zM437.998 1421c0 -27.333 0.666992 -55.334 2 -84.001s2.66602 -60.667 3.99902 -96
c18 -4 38.333 -7 61 -9s45.167 -3 67.5 -3s43.833 1.66699 64.5 5s37 9 49 17c0 66.667 1 127 3 181s-2.33301 112.667 -13 176c-15.333 0 -32.166 1 -50.499 3s-37.333 3.33301 -57 4s-39.5 0.333984 -59.5 -0.999023s-38 -6.33301 -54 -15
c-5.33301 -35.333 -9.5 -67 -12.5 -95s-4.5 -55.667 -4.5 -83zM1370 463.001c0 -27.333 0.666016 -55.334 1.99902 -84.001s2.66602 -60.667 3.99902 -96c18 -4 38.167 -7.16699 60.5 -9.5s44.833 -3.5 67.5 -3.5s44.334 1.83301 65.001 5.5s37 10.167 49 19.5
c0 65.333 1 125.333 3 180s-2.33301 113.334 -13 176.001c-30 0 -66.167 2.16699 -108.5 6.5s-80.166 -0.5 -113.499 -14.5c-5.33301 -35.333 -9.33301 -67.333 -12 -96s-4 -56.667 -4 -84z" />
    <glyph glyph-name="ampersand" unicode="&#x26;" horiz-adv-x="1613" 
d="M74 739c53.333 53.333 110.998 100.827 172.998 142.494s135.333 75.5 220 101.5c-30 8 -61.333 19.5 -94 34.5s-63.667 32.167 -93 51.5s-55.666 40.833 -78.999 64.5s-40.333 47.834 -51 72.501c2.66699 26 10 55.333 22 88s26 64.834 42 96.501
s32.833 61.167 50.5 88.5s33.167 47 46.5 59l135.5 37.5l126.5 32.5c-1.33301 78 -3.33301 143.167 -6 195.5s-6 106.5 -10 162.5c44 18 90.5 32.333 139.5 43s98.833 18.834 149.5 24.501s100.167 8.5 148.5 8.5s92.833 -2 133.5 -6
c-10.667 -69.333 -18.334 -133.833 -23.001 -193.5l-13 -169.5c48 4 97.167 6 147.5 6h159.5c12 -6.66699 24.833 -21.167 38.5 -43.5s26.334 -47.166 38.001 -74.499s20.834 -56.833 27.501 -88.5s9.33398 -60.5 8.00098 -86.5c-26 -4 -67.167 -7.33301 -123.5 -10
s-117.666 -6.66699 -183.999 -12s-131.666 -13.166 -195.999 -23.499s-116.833 -24.5 -157.5 -42.5c-18 -30 -30.667 -57.167 -38 -81.5s-5.66602 -57.166 5.00098 -98.499c12 -5.33301 34.833 -9.33301 68.5 -12s69.334 -4.66699 107.001 -6s74.167 -2 109.5 -2h78
c19.333 -34 34 -72.5 44 -115.5s13.667 -83.833 11 -122.5c-31.333 0 -71 -2 -119 -6s-95.833 -8.83301 -143.5 -14.5s-91.334 -12.5 -131.001 -20.5s-66.834 -17.333 -81.501 -28c-2.66699 -53.333 -3.33398 -94 -2.00098 -122s9.33301 -51 24 -69
c50.667 -13.333 105.667 -22.833 165 -28.5s121.166 -9.83398 185.499 -12.501s130.666 -3.66699 198.999 -3s136.5 1 204.5 1c4 -26 4.66699 -54 2 -84s-8.16699 -59.667 -16.5 -89s-18.166 -57.666 -29.499 -84.999s-22.666 -50.666 -33.999 -69.999
c-35.333 -5.33301 -82 -10 -140 -14s-122.667 -7.33301 -194 -10c-2.66699 -44 -6.66699 -86.5 -12 -127.5s-13.666 -82.5 -24.999 -124.5c-22 -6.66699 -54 -12.834 -96 -18.501s-86.333 -10.5 -133 -14.5s-91.834 -6 -135.501 -6s-76.834 2.66699 -99.501 8
c-1.33301 58.667 -2.83301 110.834 -4.5 156.501s-3.83398 88.5 -6.50098 128.5c-70.667 4 -135.667 10.167 -195 18.5s-107 19.166 -143 32.499c-53.333 66.667 -98 144.5 -134 233.5s-58 171.5 -66 247.5z" />
    <glyph glyph-name="quotesingle" unicode="'" horiz-adv-x="753" 
d="M166 1671c86 35.333 171.334 55.499 256.001 60.499s166.667 -4.16699 246 -27.5l-41 -195.5c-14 -66.333 -28.833 -130.833 -44.5 -193.5s-32.667 -121.667 -51 -177s-37.833 -104.333 -58.5 -147c-22 -6.66699 -46 -12.667 -72 -18s-52.167 -9.83301 -78.5 -13.5
s-52.833 -5.5 -79.5 -5.5s-51.667 3 -75 9c8 58.667 12.667 121.334 14 188.001s1 132.167 -1 196.5s-4.33301 124.833 -7 181.5s-5.33398 104 -8.00098 142z" />
    <glyph glyph-name="parenleft" unicode="(" horiz-adv-x="1032" 
d="M98 910.5c2.66699 121 10.1709 237.331 22.5039 348.998s30.166 214 53.499 307s50.666 165.5 81.999 217.5c58.667 34 141 69.5 247 106.5s227 64.833 363 83.5c8 -15.333 16.833 -36.5 26.5 -63.5s18 -56.5 25 -88.5s12.833 -64.5 17.5 -97.5s7 -61.833 7 -86.5
c-49.333 -5.33301 -91 -17.166 -125 -35.499s-68.667 -39.166 -104 -62.499c-10.667 -36.667 -20.834 -89.167 -30.501 -157.5s-18 -143.166 -25 -224.499s-12.5 -165.333 -16.5 -252s-5.66699 -168.834 -5 -246.501s4.33398 -146.167 11.001 -205.5
s17.667 -103.333 33 -132l74 -48c30 -20 64.667 -32.667 104 -38c-5.33301 -65.333 -15.5 -128.5 -30.5 -189.5s-32.833 -105.167 -53.5 -132.5c-45.333 6.66699 -92.5 16.834 -141.5 30.501s-98 29.667 -147 48s-96.833 37.166 -143.5 56.499s-89.667 36.333 -129 51
c-28.667 38 -51.834 98.833 -69.501 182.5s-30.334 179 -38.001 286s-10.167 221 -7.5 342z" />
    <glyph glyph-name="parenright" unicode=")" horiz-adv-x="1032" 
d="M86 238c49.333 6.66699 90.9961 18.8311 124.996 36.498s68.667 38.167 104 61.5c10.667 38 20.834 90.833 30.501 158.5s18.334 142.167 26.001 223.5s13.5 165.333 17.5 252s5.33301 168.834 4 246.501s-5.33301 146.5 -12 206.5s-17.667 103.667 -33 131l-74 50
c-30 20 -64 32 -102 36c4 65.333 13.5 128.5 28.5 189.5s32.833 105.833 53.5 134.5c45.333 -6.66699 92.833 -17.167 142.5 -31.5s98.667 -30.333 147 -48s95.833 -36.5 142.5 -56.5s89.667 -37.333 129 -52c28.667 -36.667 51.834 -97.167 69.501 -181.5
s30.334 -180 38.001 -287s10.167 -220.667 7.5 -341s-10.167 -236.666 -22.5 -348.999s-29.833 -214.666 -52.5 -306.999s-50.334 -165.166 -83.001 -218.499c-57.333 -32.667 -139.166 -67.834 -245.499 -105.501s-227.833 -65.167 -364.5 -82.5
c-8 15.333 -16.833 36.166 -26.5 62.499s-18 55.833 -25 88.5s-12.833 65.167 -17.5 97.5s-7 60.833 -7 85.5z" />
    <glyph glyph-name="asterisk" unicode="*" horiz-adv-x="1241" 
d="M41 1483c10.667 12 25.6689 26.166 45.002 42.499s41.166 33.166 65.499 50.499s50.5 33.833 78.5 49.5s55 28.834 81 39.501c10.667 -16.667 30.834 -35.167 60.501 -55.5l91.5 -63.5c1.33301 36.667 2 71.5 2 104.5s0.666992 63.833 2 92.5
c49.333 10.667 103 16.667 161 18s110.667 2 158 2v-192l58.5 54.5c18.333 17 33.166 31.5 44.499 43.5c6.66699 2.66699 21.667 0.666992 45 -6s49.333 -16.167 78 -28.5s58.334 -26.666 89.001 -42.999s57 -34.166 79 -53.499c-48 -52 -99.333 -99.5 -154 -142.5
s-105.334 -92.5 -152.001 -148.5c28.667 -27.333 54.667 -50.833 78 -70.5l69 -59.5c22.667 -20 46.667 -42.333 72 -67s54.333 -56 87 -94l-50 -40.5c-20 -16.333 -41.333 -32 -64 -47s-46.667 -28.667 -72 -41s-50.666 -20.5 -75.999 -24.5
c-15.333 16.667 -36.666 36.167 -63.999 58.5l-84 68.5c-1.33301 -32.667 -2.33301 -65.834 -3 -99.501s-2.33398 -66.834 -5.00098 -99.501c-9.33301 -5.33301 -27 -9.33301 -53 -12s-54 -5 -84 -7s-58.667 -3.33301 -86 -4s-47.333 -0.333984 -60 0.999023
c-2.66699 32.667 -4.33398 67 -5.00098 103s-1.66699 74 -3 114l-75 -68c-25.333 -22 -44 -42.333 -56 -61c-24.667 -1.33301 -51 2.33398 -79 11.001s-54.667 19.834 -80 33.501s-48.833 29 -70.5 46s-40.167 33.167 -55.5 48.5c19.333 22 40.666 48 63.999 78l69.5 88
l67.5 81c22 25.333 41.667 46 59 62c-30 28.667 -57.5 53 -82.5 73l-70.5 54.5c-22 16.333 -42.833 33 -62.5 50s-39.167 37.167 -58.5 60.5z" />
    <glyph glyph-name="plus" unicode="+" horiz-adv-x="1110" 
d="M100 812c1.33301 37.333 3.83496 72.5 7.50195 105.5s8.16699 59.5 13.5 79.5c15.333 2.66699 40 4.5 74 5.5l116 3.5c0 28.667 0.333008 59.667 1 93s1.66699 67.666 3 102.999s2.83301 69.833 4.5 103.5l4.5 89.5c76.667 13.333 159.667 21 249 23
s171.333 2.33301 246 1v-101v-109.5v-106.5c0 -34 -0.666992 -64.667 -2 -92c45.333 0 85 -0.666992 119 -2s58.667 -3.66602 74 -6.99902c2.66699 -22 5 -49.667 7 -83s3.66699 -68.333 5 -105s1.66602 -71.667 0.999023 -105s-2.33398 -61 -5.00098 -83
c-27.333 -2.66699 -59.833 -4.5 -97.5 -5.5s-78.167 -2.16699 -121.5 -3.5c-1.33301 -24.667 -3 -52 -5 -82s-4.16699 -60.667 -6.5 -92s-4.16602 -63 -5.49902 -95s-3.33301 -62.333 -6 -91c-13.333 -5.33301 -40.5 -10 -81.5 -14s-84.333 -7.5 -130 -10.5
s-89.667 -4.5 -132 -4.5s-73.166 0.666992 -92.499 2c-1.33301 26 -3.33301 55.5 -6 88.5s-5 66.5 -7 100.5s-3.83301 66.667 -5.5 98l-4.5 88c-40.667 -4 -78.334 -7 -113.001 -9s-64.334 -5 -89.001 -9c-6.66699 34 -11.167 70.833 -13.5 110.5
s-2.83301 78.167 -1.5 115.5z" />
    <glyph glyph-name="comma" unicode="," horiz-adv-x="790" 
d="M51 -86c23.333 52 44.8311 109.001 64.498 171.001s37.834 123.667 54.501 185s31 119.666 43 174.999l31 139c90 -1.33301 175.333 -16 256 -44s155.667 -68 225 -120l-92 -170c-31.333 -57.333 -63.166 -112.666 -95.499 -165.999s-64.5 -102.833 -96.5 -148.5
s-63.667 -84.167 -95 -115.5c-44 5.33301 -93.5 15.166 -148.5 29.499s-103.833 35.833 -146.5 64.5z" />
    <glyph glyph-name="hyphen" unicode="-" horiz-adv-x="819" 
d="M108.5 762.5c1.66699 44.333 4.16602 85.332 7.49902 122.999s7 68.834 11 93.501c28.667 4 69.334 7 122.001 9l165 6c57.333 2 111.833 2 163.5 0s91.167 -5 118.5 -9c2.66699 -24.667 5.16699 -57.167 7.5 -97.5s3.83301 -82 4.5 -125s0.5 -83.833 -0.5 -122.5
s-2.83301 -70.334 -5.5 -95.001c-94 -12 -190.833 -18.5 -290.5 -19.5s-195.834 -10.167 -288.501 -27.5c-6.66699 40.667 -11.167 83.834 -13.5 129.501s-2.66602 90.667 -0.999023 135z" />
    <glyph glyph-name="period" unicode="." horiz-adv-x="905" 
d="M154 120c1.33301 25.333 3.66699 50.167 7 74.5s6.33301 44.166 9 59.499c4 24.667 17.333 45.5 40 62.5s48.334 31.667 77.001 44s57.334 21.833 86.001 28.5s51.667 11.334 69 14.001c16.667 4 35.5 4.66699 56.5 2s42.5 -6.33398 64.5 -11.001s43.5 -10.667 64.5 -18
s38.5 -14.666 52.5 -21.999c19.333 -48 33.666 -97.833 42.999 -149.5s10.666 -104.167 3.99902 -157.5c-8 -16.667 -26.667 -31 -56 -43s-63.5 -22.5 -102.5 -31.5s-80 -15.5 -123 -19.5s-84 -5.66699 -123 -5s-72.167 4.66699 -99.5 12s-45 18 -53 32c-8 12 -13 30 -15 54
s-2.33301 48.667 -1 74z" />
    <glyph glyph-name="slash" unicode="/" horiz-adv-x="1654" 
d="M41 -57l257.002 569.999c81.333 174 162.666 339.5 243.999 496.5s165 310.333 251 460s178.667 302.834 278 459.501c60 6.66699 120 8.33398 180 5.00098s115.333 -8.33301 166 -15s94.167 -13.834 130.5 -21.501s61.166 -13.5 74.499 -17.5
c-90 -139.333 -180.5 -288.833 -271.5 -448.5l-269.5 -492.5l-259 -511l-238 -502c-60 -6.66699 -119.833 -10 -179.5 -10s-114 1.33301 -163 4s-91.333 6.5 -127 11.5s-60.167 8.83301 -73.5 11.5z" />
    <glyph glyph-name="zero" unicode="0" horiz-adv-x="2002" 
d="M92 638l0.00292969 286.5c0 96.333 1 189.5 3 279.5s4.33301 170 7 240c19.333 19.333 43.333 47 72 83l89 110.5l89 104.5c28.667 32 53.334 53.333 74.001 64l251.5 23.5c98.333 9 200.166 16.333 305.499 22s209.166 7 311.499 4s193.166 -12.5 272.499 -28.5
c28.667 -24.667 57 -54.834 85 -90.501s55.333 -72.5 82 -110.5s52.167 -76.833 76.5 -116.5l69.5 -112.5c2.66699 -46.667 5.33398 -101.334 8.00098 -164.001s5 -128.5 7 -197.5s3.83301 -139 5.5 -210s2.5 -138.333 2.5 -202s-0.833008 -120.667 -2.5 -171
s-4.5 -90.5 -8.5 -120.5c-46.667 -61.333 -90 -124.833 -130 -190.5s-84.667 -129.167 -134 -190.5c-49.333 -8 -107 -15.167 -173 -21.5s-136.667 -11.166 -212 -14.499s-153.833 -5 -235.5 -5s-162.167 1.33301 -241.5 4s-155.5 6 -228.5 10s-139.5 10.333 -199.5 19
c-20.667 20.667 -42.834 49.334 -66.501 86.001s-46.834 75.5 -69.501 116.5s-43.5 82 -62.5 123s-34.167 77.167 -45.5 108.5c-1.33301 79.333 -2 166.333 -2 261zM762.003 842.5c0 -66.333 0.333984 -130.169 1.00098 -191.502s1.66699 -116.5 3 -165.5
s2 -85.167 2 -108.5c31.333 -16.667 67.833 -27 109.5 -31s83.667 -3.33301 126 2s82.5 15.5 120.5 30.5s68 33.5 90 55.5c2.66699 126.667 6.16699 268 10.5 424s-3.16699 315.667 -22.5 479c-39.333 -1.33301 -76.833 -2.33301 -112.5 -3s-69.834 -2.66699 -102.501 -6
s-65 -9.16602 -97 -17.499s-65 -20.5 -99 -36.5c-6.66699 -15.333 -12.167 -45.166 -16.5 -89.499s-7.5 -95.833 -9.5 -154.5s-3 -121.167 -3 -187.5z" />
    <glyph glyph-name="one" unicode="1" horiz-adv-x="995" 
d="M78 1479c1.33301 56 7.83398 114.666 19.501 175.999s24.834 113.666 39.501 156.999c45.333 9.33301 99.666 19.333 162.999 30s128.833 20 196.5 28s133.5 14.333 197.5 19s118 7 162 7c0 -147.333 -1.33301 -298.166 -4 -452.499s-6.33398 -309.666 -11.001 -465.999
s-10.167 -312.666 -16.5 -468.999l-19.5 -459.5c-10.667 -6.66699 -29 -12.334 -55 -17.001s-55.833 -9.16699 -89.5 -13.5s-69.167 -7.5 -106.5 -9.5s-73.5 -3.33301 -108.5 -4s-66.5 -1 -94.5 -1s-49.333 0.666992 -64 2c-6.66699 106.667 -12.167 221 -16.5 343
s-7.5 246.167 -9.5 372.5s-3 252 -3 377s0.666992 244.833 2 359.5c-8 0 -20.5 0.666992 -37.5 2l-53.5 4c-18.667 1.33301 -36.5 3.5 -53.5 6.5s-29.5 5.83301 -37.5 8.5z" />
    <glyph glyph-name="two" unicode="2" horiz-adv-x="1556" 
d="M74 394.5c-1.33301 71.667 0.000976562 143.333 4.00098 215s12.667 136.834 26 195.501l207 133l231.5 142.5l211 127c64.333 39 112.833 66.5 145.5 82.5c10.667 45.333 13.667 83.333 9 114s-16.667 57.667 -36 81c-46.667 2.66699 -104 2.66699 -172 0
s-138.167 -6.5 -210.5 -11.5s-142.333 -10.5 -210 -16.5s-123.834 -11.667 -168.501 -17c1.33301 30 3.66602 63.667 6.99902 101s7.66602 74.833 12.999 112.5s11.833 73.5 19.5 107.5s16.167 62.667 25.5 86c42 12 94.5 23.5 157.5 34.5s130.333 20.667 202 29
s145.334 15.666 221.001 21.999s148.667 9.83301 219 10.5s135.333 -0.5 195 -3.5s108.5 -8.5 146.5 -16.5c35.333 -61.333 63.666 -125.166 84.999 -191.499s37.333 -135 48 -206s17.5 -143.667 20.5 -218s4.5 -150.5 4.5 -228.5c-42 -40.667 -91.5 -82.5 -148.5 -125.5
s-118.333 -86 -184 -129l-206 -130l-217.5 -129.5c-5.33301 -4 -9 -11.5 -11 -22.5s-2 -23.333 0 -37s5.33301 -25.5 10 -35.5s9.66699 -17 15 -21c13.333 -5.33301 36.833 -10.833 70.5 -16.5s72.667 -9.5 117 -11.5s92.5 -4 144.5 -6s102.833 -3 152.5 -3
s96.334 0.666992 140.001 2s79.834 2 108.501 2c1.33301 -20.667 1.66602 -47.667 0.999023 -81s-3 -68.833 -7 -106.5s-9.33301 -74.667 -16 -111s-15.667 -66.5 -27 -90.5l-318 -25.5c-116.667 -9 -234.834 -15.667 -354.501 -20s-235.5 -4 -347.5 1s-211 18.5 -297 40.5
c-5.33301 45.333 -10.666 100.666 -15.999 165.999s-8.66602 133.833 -9.99902 205.5z" />
    <glyph glyph-name="three" unicode="3" horiz-adv-x="1613" 
d="M109.5 220.5c-2.33301 39 -1.17285 77.501 3.49414 115.501c66.667 8 133.167 15.5 199.5 22.5s130.833 15.167 193.5 24.5s123 21.5 181 36.5s111.667 34.833 161 59.5c15.333 20.667 25.333 39.167 30 55.5s6.66699 34.333 6 54s-2.83398 41.834 -6.50098 66.501
s-6.16699 56.334 -7.5 95.001c-13.333 12 -39.5 21.333 -78.5 28s-82 11.834 -129 15.501s-93.667 5.5 -140 5.5s-85.166 -2 -116.499 -6c-2.66699 50.667 1 107.334 11 170.001s24 118.334 42 167.001c16.667 1.33301 42.334 4.16602 77.001 8.49902
s70.334 9.16602 107.001 14.499s71.167 12.166 103.5 20.499s54.5 17.166 66.5 26.499c10.667 57.333 12.667 103.166 6 137.499s-19 69.833 -37 106.5c-39.333 23.333 -90.333 38.333 -153 45s-126.5 10.334 -191.5 11.001s-125.5 -0.333008 -181.5 -3
s-96.333 -3.33398 -121 -2.00098c-1.33301 36.667 1.5 77.167 8.5 121.5s15.833 87.333 26.5 129s22.834 78.667 36.501 111s26.834 53.166 39.501 62.499c102.667 10.667 197.667 18.5 285 23.5s172.5 5 255.5 0s166.833 -15.667 251.5 -32s175 -38.833 271 -67.5
c13.333 -16.667 28.5 -42.667 45.5 -78s33 -74.166 48 -116.499s28.333 -85.666 40 -129.999s19.5 -83.5 23.5 -117.5c-10.667 -36.667 -27.334 -73.167 -50.001 -109.5s-48.334 -69.833 -77.001 -100.5s-59 -58.334 -91 -83.001s-63 -44.334 -93 -59.001
c82 -27.333 159.5 -66.666 232.5 -117.999s132.833 -121.333 179.5 -210c-5.33301 -52 -14.166 -109.333 -26.499 -172s-27.166 -123.834 -44.499 -183.501s-37.166 -113 -59.499 -160s-45.833 -81.5 -70.5 -103.5c-36.667 -23.333 -86.834 -44.833 -150.501 -64.5
s-134 -36.334 -211 -50.001s-157.167 -25.167 -240.5 -34.5s-163.5 -17.166 -240.5 -23.499s-147 -9.83301 -210 -10.5s-112.833 0.333008 -149.5 3c-6.66699 23.333 -14.167 51 -22.5 83s-15.166 66.167 -20.499 102.5s-9.16602 74 -11.499 113z" />
    <glyph glyph-name="four" unicode="4" horiz-adv-x="1900" 
d="M74 752c19.333 52 44.667 111.668 76 179.001l103 211.5c37.333 73.667 76.833 147.834 118.5 222.501l122 212c39.667 66.667 77.167 127 112.5 181s65.333 97.333 90 130c30 5.33301 69 8.33301 117 9s100.333 0 157 -2s115 -5.66699 175 -11l174 -15
c56 -4.66699 107.5 -9.5 154.5 -14.5s85.5 -8.16699 115.5 -9.5c6.66699 -40.667 12.167 -100 16.5 -178s7.5 -165.833 9.5 -263.5s3 -199.334 3 -305.001v-305.5c40.667 0 78.167 -0.833008 112.5 -2.5s60.833 -4.5 79.5 -8.5c2.66699 -22 5.16699 -48.667 7.5 -80
s3.83301 -63 4.5 -95s0.666992 -63.333 0 -94s-2.33398 -58.334 -5.00098 -83.001c-32.667 -4 -65.834 -6.33301 -99.501 -7s-68.167 -1.66699 -103.5 -3c-2.66699 -64 -4.66699 -130.833 -6 -200.5s-3.33301 -130.5 -6 -182.5
c-23.333 -6.66699 -53.833 -13.167 -91.5 -19.5s-77.667 -11.5 -120 -15.5s-85 -6.66699 -128 -8s-82.5 -2 -118.5 -2s-66.667 1.66699 -92 5s-40.666 8.33301 -45.999 15c2.66699 49.333 5.33398 102 8.00098 158s4 130.333 4 223c-49.333 1.33301 -112.166 1 -188.499 -1
s-156.5 -3.66699 -240.5 -5s-167 -1.33301 -249 0s-153 6 -213 14l-20.5 94.5c-7 33 -12.833 65.5 -17.5 97.5s-8.33398 62 -11.001 90s-4 51 -4 69zM686.001 850.001c12 -5.33301 33.5 -9.83496 64.5 -13.502s63.5 -6.16699 97.5 -7.5s66.667 -0.166016 98 3.50098
s54 10.167 68 19.5c2.66699 24.667 4.33398 55.334 5.00098 92.001s1 75.834 1 117.501s0.333008 84.834 1 129.501s1 86.667 1 126c0 31.333 -3.5 53.5 -10.5 66.5s-16.167 19.167 -27.5 18.5s-23.5 -6.83398 -36.5 -18.501s-25.167 -27.834 -36.5 -48.501
c-23.333 -38 -46.5 -80.5 -69.5 -127.5l-65.5 -138.5c-20.667 -45.333 -38.834 -87 -54.501 -125s-27.5 -69.333 -35.5 -94z" />
    <glyph glyph-name="five" unicode="5" horiz-adv-x="1613" 
d="M82 829c-2.66699 79.333 -2.00098 164.164 1.99902 254.497s9.83301 179.5 17.5 267.5s16.834 172.5 27.501 253.5s21 152.5 31 214.5c91.333 28.667 191 49.5 299 62.5s218.667 21.5 332 25.5s225.5 4.66699 336.5 2s215.833 -7 314.5 -13
c19.333 -64 31 -131.5 35 -202.5s5.33301 -141.167 4 -210.5c-53.333 -4 -111.833 -7.5 -175.5 -10.5s-128.5 -5.5 -194.5 -7.5s-131.5 -5 -196.5 -9s-124.167 -9.33301 -177.5 -16c-19.333 -38 -30.333 -82 -33 -132s-4.66699 -99 -6 -147
c58.667 -10.667 121.167 -23.5 187.5 -38.5s133.666 -29.333 201.999 -43l203 -42c67 -14.333 129.833 -27.166 188.5 -38.499c23.333 -58.667 38.666 -122.334 45.999 -191.001s8 -138.167 2 -208.5s-18 -139.333 -36 -207s-40.667 -128.167 -68 -181.5
c-91.333 -50.667 -187.166 -93.667 -287.499 -129s-201.666 -65.666 -303.999 -90.999s-205 -46.5 -308 -63.5s-204.5 -32.5 -304.5 -46.5c-12 9.33301 -22.833 34.5 -32.5 75.5s-17.5 86.167 -23.5 135.5s-10.5 96.833 -13.5 142.5s-3.83301 78.834 -2.5 99.501
c54.667 2.66699 115.5 9.5 182.5 20.5s132.667 23 197 36s123.333 27.667 177 44s94.167 31.833 121.5 46.5c6.66699 19.333 11.5 45.333 14.5 78s3.16699 63.334 0.5 92.001c-16.667 12 -43 22.5 -79 31.5s-78.333 17.333 -127 25s-100 14.834 -154 21.501
s-106.5 14.5 -157.5 23.5s-97.667 19.667 -140 32s-75.833 27.166 -100.5 44.499z" />
    <glyph glyph-name="six" unicode="6" horiz-adv-x="1810" 
d="M98 616.5c-2.66699 109 -0.835938 223.997 5.49707 344.997s16.333 236.5 30 346.5s30.334 209 50.001 297s41.167 155 64.5 201c39.333 16.667 90.833 32.834 154.5 48.501s133.334 30 209.001 43s154.5 24.667 236.5 35s161.5 18.833 238.5 25.5s149 11.334 216 14.001
s122.833 2.66699 167.5 0l20.5 -76c8.33301 -31.333 16.333 -65.333 24 -102s13.5 -74.167 17.5 -112.5s4.66699 -73.833 2 -106.5c-48 -5.33301 -105.667 -14.166 -173 -26.499l-209 -40c-72 -14.333 -141.333 -29.333 -208 -45l-170 -40.5
c-19.333 -28.667 -32.333 -63.5 -39 -104.5s-10 -79.833 -10 -116.5c60 -5.33301 132.667 -12.166 218 -20.499s173.833 -19.333 265.5 -33s180.834 -30.667 267.501 -51s161.334 -45.5 224.001 -75.5c6.66699 -56 8.33398 -127 5.00098 -213s-11.5 -174 -24.5 -264
s-29.833 -175 -50.5 -255s-44.334 -143.333 -71.001 -190c-79.333 -46.667 -174 -82.5 -284 -107.5s-226.5 -37.833 -349.5 -38.5s-248.667 11.666 -377 36.999s-251.166 65.333 -368.499 120c-24.667 48 -43.834 117 -57.501 207s-21.834 189.5 -24.501 298.5z
M685.998 710.997c-1.33301 -113.333 14.3311 -213.001 46.998 -299.001c28.667 -10.667 61.834 -17.5 99.501 -20.5s73.834 -3.16699 108.501 -0.5s65 7.5 91 14.5s42.333 14.5 49 22.5c4 18 9.5 37.833 16.5 59.5s13.5 43.834 19.5 66.501s10 44.5 12 65.5
s0.333008 39.167 -5 54.5c-19.333 12 -48.333 21.5 -87 28.5s-80.167 11.5 -124.5 13.5s-87.333 2.33301 -129 1s-74.167 -3.33301 -97.5 -6z" />
    <glyph glyph-name="seven" unicode="7" horiz-adv-x="1556" 
d="M103.5 1683.5c3.66699 68.333 12.165 133.166 25.498 194.499c106.667 15.333 216.334 26.333 329.001 33s224.167 10 334.5 10s217.833 -2 322.5 -6s200.667 -8.66699 288 -14c12 -31.333 23.167 -65.5 33.5 -102.5s19.333 -74 27 -111s12.834 -72.167 15.501 -105.5
s2.66699 -61.666 0 -84.999l-141.5 -275l-188.5 -377l-215 -430.5l-221 -439.5c-40.667 -4 -87 -5 -139 -3s-104.667 6.83301 -158 14.5s-104.333 17.667 -153 30s-90 26.5 -124 42.5c57.333 146 116.166 285.333 176.499 418l175 380l159.5 343c50 108 94 209 132 303
c-45.333 4 -97.5 5 -156.5 3s-119.667 -4.66699 -182 -8l-181.5 -10c-58.667 -3.33301 -110.667 -2.33301 -156 3c-5.33301 60 -6.16602 124.167 -2.49902 192.5z" />
    <glyph glyph-name="eight" unicode="8" horiz-adv-x="1871" 
d="M78 682c19.333 24.667 41.498 49.335 66.498 74.002s50.833 48.5 77.5 71.5l81 67.5c27.333 22 52 43 74 63c-23.333 27.333 -49 54.666 -77 81.999l-81 80c-26 26 -49.5 50.667 -70.5 74s-35.833 43 -44.5 59c10.667 114.667 30.167 222.667 58.5 324
s67.166 199.666 116.499 294.999c120 19.333 242.833 34 368.5 44s244 15.333 355 16s209.5 -2.66602 295.5 -9.99902s150.333 -17.333 193 -30c52 -35.333 97.5 -90.5 136.5 -165.5s65.833 -157.5 80.5 -247.5c-12 -42 -29.333 -85 -52 -129
s-48.334 -85.167 -77.001 -123.5s-59 -72.833 -91 -103.5s-63.667 -54 -95 -70c22 -10.667 53 -26.667 93 -48s81.5 -47.666 124.5 -78.999s83.667 -68.166 122 -110.499s66.5 -90.833 84.5 -145.5c2.66699 -28.667 -1.5 -69.334 -12.5 -122.001s-27.167 -108 -48.5 -166
s-46.666 -115.333 -75.999 -172s-61 -104 -95 -142c-44 -28.667 -102.833 -51.334 -176.5 -68.001s-154.167 -28.667 -241.5 -36s-178 -10 -272 -8s-184.667 7.16699 -272 15.5s-167.666 19.666 -240.999 33.999s-131.666 28.833 -174.999 43.5
c-16.667 36.667 -32.5 79 -47.5 127s-28.667 99 -41 153s-22.166 111 -29.499 171s-11 120.667 -11 182zM681.998 607.001c-1.33301 -33.333 -0.998047 -65.999 1.00195 -97.999s6.16699 -61 12.5 -87s14.166 -43.667 23.499 -53c20.667 -8 45.667 -13.833 75 -17.5
s59.666 -5.5 90.999 -5.5s62.333 0.333008 93 1s57 1 79 1c16.667 16.667 30.334 41 41.001 73s17.667 66.167 21 102.5s3.66602 70.666 0.999023 102.999s-9.33398 57.5 -20.001 75.5c-18 8 -44 13.833 -78 17.5s-70.5 4.5 -109.5 2.5s-78 -5 -117 -9
s-73.5 -9.66699 -103.5 -17c-5.33301 -26 -8.66602 -55.667 -9.99902 -89zM712 1282c0.666992 -30 3.00195 -47.668 7.00195 -53.001c10.667 -15.333 29.667 -26 57 -32s56.666 -9 87.999 -9s62 2 92 6s52.667 8.66699 68 14c8 19.333 14.5 42 19.5 68
s8.16699 52.333 9.5 79s0.166016 53.5 -3.50098 80.5s-9.5 50.833 -17.5 71.5c-10.667 19.333 -28 32.333 -52 39s-49.667 11.167 -77 13.5s-54 1.33301 -80 -3s-47 -9.83301 -63 -16.5c-10.667 -9.33301 -19.834 -29.666 -27.501 -60.999s-13.167 -64.5 -16.5 -99.5
s-4.66602 -67.5 -3.99902 -97.5z" />
    <glyph glyph-name="nine" unicode="9" horiz-adv-x="1724" 
d="M74.5 1016c5 98 16.3281 197.17 33.9951 297.503s40.834 196.666 69.501 288.999s58.667 171.166 90 236.499c102.667 24.667 201.834 43.167 297.501 55.5s191.167 18.833 286.5 19.5s192.166 -4.16602 290.499 -14.499s200.833 -24.166 307.5 -41.499
c42 -96.667 76.333 -199.5 103 -308.5s46.834 -218 60.501 -327s21.5 -215.333 23.5 -319s-0.333008 -200 -7 -289s-17.167 -167 -31.5 -234s-31.833 -118.833 -52.5 -155.5c-101.333 -50.667 -200 -92.334 -296 -125.001s-192.5 -59.5 -289.5 -80.5
s-195.333 -38.333 -295 -52l-313.5 -41.5c-13.333 9.33301 -26.166 32.166 -38.499 68.499s-23.666 75.666 -33.999 117.999s-18.166 84 -23.499 125s-7.33301 71.833 -6 92.5c60 2.66699 128.5 10.5 205.5 23.5s152.5 28.333 226.5 46s142 36 204 55s108 36.167 138 51.5
c6.66699 22 10 46.167 10 72.5s-1.33301 54.166 -4 83.499c-52 6.66699 -118.167 12.334 -198.5 17.001l-254 15c-89 5.33301 -176.5 12.5 -262.5 21.5s-161 21.167 -225 36.5c-15.333 78 -20.5 166 -15.5 264zM669.995 1147c24.667 -4 52.6631 -6.33398 83.9961 -7.00098
s64 -1.66699 98 -3s67 -2.5 99 -3.5s60.333 -3.5 85 -7.5c8 57.333 11.833 114.666 11.5 171.999s-4.16602 101.333 -11.499 132c-18 0 -39.5 1 -64.5 3s-51.167 3.33301 -78.5 4l-79 2c-25.333 0.666992 -46.666 0.333984 -63.999 -0.999023
c-23.333 -35.333 -42.166 -80.666 -56.499 -135.999s-22.166 -107 -23.499 -155z" />
    <glyph glyph-name="colon" unicode=":" horiz-adv-x="905" 
d="M154 120c1.33301 25.333 3.66699 50.167 7 74.5s6.33301 44.166 9 59.499c4 24.667 17.333 45.5 40 62.5s48.334 31.667 77.001 44s57.334 21.833 86.001 28.5s51.667 11.334 69 14.001c16.667 4 35.5 4.66699 56.5 2s42.5 -6.33398 64.5 -11.001s43.5 -10.667 64.5 -18
s38.5 -14.666 52.5 -21.999c19.333 -48 33.666 -97.833 42.999 -149.5s10.666 -104.167 3.99902 -157.5c-8 -16.667 -26.667 -31 -56 -43s-63.5 -22.5 -102.5 -31.5s-80 -15.5 -123 -19.5s-84 -5.66699 -123 -5s-72.5 4.66699 -100.5 12s-45.333 18 -52 32
c-8 12 -13 30 -15 54s-2.33301 48.667 -1 74zM158.001 949.001c1.33301 28 3.6709 54.668 7.00391 80.001s6.33301 46.333 9 63c4 26 16.667 48.5 38 67.5s45.666 35 72.999 48s54.666 23.167 81.999 30.5s49 12.333 65 15c15.333 4 32.833 4.66699 52.5 2
s40.167 -6.66699 61.5 -12s41.833 -11.833 61.5 -19.5s36.167 -15.5 49.5 -23.5c19.333 -50.667 33.333 -104 42 -160s9.66699 -112.667 3 -170c-8 -16.667 -25.667 -31.667 -53 -45s-59.333 -24.5 -96 -33.5s-75.834 -16.167 -117.501 -21.5s-80.667 -7 -117 -5
s-67.833 6.83301 -94.5 14.5s-43.334 18.167 -50.001 31.5c-8 15.333 -13 35.166 -15 59.499s-2.33301 50.5 -1 78.5z" />
    <glyph glyph-name="semicolon" unicode=";" horiz-adv-x="802" 
d="M14 -162c23.333 54.667 44.999 113.001 64.999 175.001s38.167 123.833 54.5 185.5s30.666 120.167 42.999 175.5l30.5 138c90 -1.33301 175.333 -16.333 256 -45s155.667 -69 225 -121l-92 -170l-94 -165c-31.333 -52.667 -63.166 -101.834 -95.499 -147.501
s-64.166 -84.167 -95.499 -115.5c-45.333 5.33301 -95.5 14.833 -150.5 28.5s-103.833 34.167 -146.5 61.5zM136.999 1001.5c1.33301 27 3.83398 53.4951 7.50098 79.4951s6.83398 47.333 9.50098 64c4 26 16.5 48.167 37.5 66.5s45.167 34.333 72.5 48
s54.666 23.834 81.999 30.501s49.333 12.334 66 17.001c15.333 2.66699 32.833 3 52.5 1s40 -6.16699 61 -12.5s41.333 -13.166 61 -20.499s36.5 -15.333 50.5 -24c19.333 -50.667 33.333 -103.5 42 -158.5s9.66699 -111.167 3 -168.5c-8 -16.667 -25.667 -32.167 -53 -46.5
s-59.5 -26 -96.5 -35s-76.333 -15.5 -118 -19.5s-80.5 -5.66699 -116.5 -5s-67.333 4.83398 -94 12.501s-43.334 18.834 -50.001 33.501c-8 15.333 -13.167 35.333 -15.5 60s-2.83301 50.5 -1.5 77.5z" />
    <glyph glyph-name="less" unicode="&#x3c;" horiz-adv-x="1130" 
d="M98 903l243.001 507.999l234 514c54.667 6.66699 109 8.33398 163 5.00098s103.833 -8 149.5 -14s84.667 -12.833 117 -20.5s54.5 -14.167 66.5 -19.5l-119.5 -268l-115 -243l-111.5 -223.5l-109 -215.5l100.5 -227.5l112 -251l111.5 -245.5l100 -214
c-40.667 -5.33301 -86.667 -11.833 -138 -19.5s-100.833 -14.5 -148.5 -20.5s-89.334 -10.833 -125.001 -14.5s-58.167 -4.16699 -67.5 -1.5c-87.333 162.667 -169.5 323.5 -246.5 482.5s-149.167 321.833 -216.5 488.5z" />
    <glyph glyph-name="equal" unicode="=" horiz-adv-x="819" 
d="M108.5 477.5c1.66699 42.333 4.16504 81.8301 7.49805 118.497s7 66.667 11 90c28.667 2.66699 69.334 5.33398 122.001 8.00098s107.667 4.66699 165 6s111.833 1.33301 163.5 0s91.167 -4.66602 118.5 -9.99902c2.66699 -23.333 5.16699 -54 7.5 -92
s3.83301 -77.833 4.5 -119.5s0.5 -82 -0.5 -121s-2.83301 -69.5 -5.5 -91.5c-46.667 -5.33301 -94.5 -9.33301 -143.5 -12s-98 -4.66699 -147 -6s-97.667 -4.16602 -146 -8.49902s-95.833 -10.5 -142.5 -18.5c-6.66699 39.333 -11.167 81.333 -13.5 126
s-2.66602 88.167 -0.999023 130.5zM108.498 1125.5c1.66699 43 4.16504 82.833 7.49805 119.5s7 66.667 11 90c28.667 2.66699 69.334 5.5 122.001 8.5s107.667 5.16699 165 6.5s111.833 1.33301 163.5 0s91.167 -5 118.5 -11c2.66699 -23.333 5.16699 -54 7.5 -92
s3.83301 -77.833 4.5 -119.5s0.5 -82 -0.5 -121s-2.83301 -70.167 -5.5 -93.5c-46.667 -4 -94.5 -7.33301 -143.5 -10s-98 -4.66699 -147 -6s-97.667 -4 -146 -8s-95.833 -10.333 -142.5 -19c-6.66699 39.333 -11.167 81 -13.5 125s-2.66602 87.5 -0.999023 130.5z" />
    <glyph glyph-name="greater" unicode="&#x3e;" horiz-adv-x="1130" 
d="M98 -2c39.333 95.333 78.5 185.001 117.5 269.001l116 242l112 223.5l107.5 215.5l-99.5 227l-110.5 251l-111.5 246l-100.5 214c40.667 5.33301 86.667 11.833 138 19.5s100.833 14.5 148.5 20.5s89.334 10.833 125.001 14.5s58.167 4.16699 67.5 1.5
c87.333 -162.667 169.666 -323.5 246.999 -482.5s149.333 -321.833 216 -488.5l-242.5 -509l-234.5 -513c-54.667 -6.66699 -109 -8.33398 -163 -5.00098s-103.833 8 -149.5 14s-84.667 12.833 -117 20.5s-54.5 14.167 -66.5 19.5z" />
    <glyph glyph-name="question" unicode="?" horiz-adv-x="1449" 
d="M66 1378l22.9961 122.002c7.33301 39.333 15.833 77.666 25.5 114.999l31 115.5c11 39.667 24.5 81.167 40.5 124.5c44 23.333 97.333 41.833 160 55.5s129.834 23 201.501 28s144.834 6.33301 219.501 4s145.334 -7.5 212.001 -15.5s126.667 -18.5 180 -31.5
s94.333 -27.833 123 -44.5c8 -31.333 16.833 -75 26.5 -131s17.5 -114.667 23.5 -176s9.66699 -121.833 11 -181.5s-2.66699 -109.834 -12 -150.501c-24.667 -23.333 -53.667 -48.833 -87 -76.5l-103.5 -82.5c-35.667 -27.333 -70.5 -52.333 -104.5 -75
s-64 -41.334 -90 -56.001c-22 -52 -35.333 -102.667 -40 -152s-13 -102.666 -25 -159.999c-26 -8 -64.667 -15 -116 -21s-105.333 -11.167 -162 -15.5s-111.334 -7.5 -164.001 -9.5s-92.667 -3 -120 -3c-5.33301 27.333 -9.33301 59.166 -12 95.499s-4 73.166 -4 110.499
s1.33301 74.5 4 111.5s5.33398 68.5 8.00098 94.5c18 18 40 37.833 66 59.5s55 43.334 87 65.001s66.167 43.5 102.5 65.5s72.833 42.667 109.5 62c6.66699 32.667 9 66 7 100s-7 64.667 -15 92c-18 12 -44 19.833 -78 23.5s-71.167 4.5 -111.5 2.5s-82.333 -5.5 -126 -10.5
s-85 -10.833 -124 -17.5s-73.167 -13.167 -102.5 -19.5s-50.666 -12.166 -63.999 -17.499zM289.996 108.502c-0.666992 33 0.331055 63.832 2.99805 92.499s7.33398 47 14.001 55c31.333 36.667 71.666 65 120.999 85s101 32 155 36s106.833 1.83301 158.5 -6.5
s96.834 -21.166 135.501 -38.499c2.66699 -6.66699 7 -18.667 13 -36s12.167 -38.166 18.5 -62.499s10.833 -52.333 13.5 -84s1.33398 -63.834 -3.99902 -96.501c-24.667 -26 -64.667 -47.833 -120 -65.5s-114.5 -30.5 -177.5 -38.5s-122.833 -11 -179.5 -9
s-98.667 12.333 -126 31c-8 4 -14 19.667 -18 47s-6.33301 57.5 -7 90.5z" />
    <glyph glyph-name="at" unicode="@" horiz-adv-x="1810" 
d="M76 649.5c-2.66699 103.667 -1.00781 210.165 4.99219 319.498s15.5 212.333 28.5 309s29 184.667 48 264s40.167 139.333 63.5 180c48 30 108.167 57 180.5 81s150.833 43.833 235.5 59.5s173 27.334 265 35.001s182.167 12.167 270.5 13.5s171.333 -0.5 249 -5.5
s145.167 -12.833 202.5 -23.5c36.667 -113.333 62.834 -235.5 78.501 -366.5s25.334 -263 29.001 -396s3 -262 -2 -387l-13.5 -341.5c-10.667 -5.33301 -36.5 -11.833 -77.5 -19.5s-85.333 -14.5 -133 -20.5s-93 -10 -136 -12s-72.167 -2.33301 -87.5 -1
c0 13.333 -0.333008 30.333 -1 51s-1.66699 37 -3 49h-125c-48 0 -97.833 1.83301 -149.5 5.5s-104.167 8.83398 -157.5 15.501s-102.666 16.667 -147.999 30c-19.333 35.333 -32.666 92.333 -39.999 171s-9.66602 163.5 -6.99902 254.5s10.834 179.167 24.501 264.5
s31.5 151.666 53.5 198.999c82 35.333 164.333 60.666 247 75.999s173 21.666 271 18.999c0 15.333 -1.33301 29.666 -4 42.999c-2.66699 10.667 -5 22.167 -7 34.5s-5.66699 22.5 -11 30.5c-30 1.33301 -72.333 2 -127 2s-112.334 -3.33301 -173.001 -10
s-119.667 -19 -177 -37s-104 -44 -140 -78c-22 -57.333 -39.667 -130 -53 -218s-22.166 -181.833 -26.499 -281.5s-3.66602 -199 2.00098 -298s16.5 -188.833 32.5 -269.5c54.667 -32.667 113 -58.167 175 -76.5s126.5 -33.666 193.5 -45.999s135.667 -22.666 206 -30.999
l212.5 -26.5c6.66699 -65.333 3.83398 -117.5 -8.49902 -156.5s-28.166 -74.833 -47.499 -107.5c-31.333 -8 -77 -12.5 -137 -13.5s-126.833 1.33301 -200.5 7s-150.834 14.667 -231.501 27s-157.834 27.333 -231.501 45s-140.167 37.334 -199.5 59.001
s-104.666 44.834 -135.999 69.501c-26 57.333 -45.5 130.5 -58.5 219.5s-20.833 185.333 -23.5 289zM1049.99 778.498c2 -41 7.66992 -73.8359 17.0029 -98.5029c24.667 -8 56.5 -8.33301 95.5 -1s74.833 11 107.5 11c-2.66699 98 -4.33398 188.333 -5.00098 271
s-0.333984 170.667 0.999023 264c-19.333 -1.33301 -35.833 -2.66602 -49.5 -3.99902s-26.667 -4.16602 -39 -8.49902s-25.666 -9.83301 -39.999 -16.5s-31.833 -15.667 -52.5 -27c-6.66699 -35.333 -13.334 -76.166 -20.001 -122.499s-11.334 -92.333 -14.001 -138
s-3 -89 -1 -130z" />
    <glyph glyph-name="A" unicode="A" horiz-adv-x="2078" 
d="M6 -31c12 90 34.4961 198.501 67.4961 325.501s71 260.833 114 401.5s88.333 281.334 136 422.001l135.5 389c-20.667 1.33301 -40 3.33301 -58 6l-45 11.5c-14.667 3.66699 -26 7.5 -34 11.5c6.66699 26 13.334 54.667 20.001 86s13.834 63 21.501 95
s15.5 62.333 23.5 91s17 52.667 27 72c42 9.33301 96.5 18.833 163.5 28.5s140.5 16.834 220.5 21.501c80 5.33301 163 8.66602 249 9.99902c36 0.666992 71.333 1 106 1c48.667 -0.666992 97 -1.66699 145 -3c81.333 -2.66699 157 -7.16699 227 -13.5s129 -16.5 177 -30.5
l98 -460.5l95.5 -456.5c31 -152.667 60.667 -309.334 89 -470.001s54.166 -327.667 77.499 -501c-52 -10.667 -105.833 -18.834 -161.5 -24.501s-111.167 -10.167 -166.5 -13.5s-108.666 -5.33301 -159.999 -6h-50c-32 0 -61.333 0.333008 -88 1l-28.5 90
c-8.33301 26 -15.666 50.333 -21.999 73s-12.5 47.334 -18.5 74.001s-12.333 57.667 -19 93c-48 6.66699 -103 10.667 -165 12c-41.333 0.666992 -82.666 1 -123.999 1h-61c-61.333 -0.666992 -119.5 -3.66699 -174.5 -9s-100.167 -12.333 -135.5 -21l-35.5 -77.5
c-10.333 -21.667 -19.333 -43.834 -27 -66.501s-14.5 -46.167 -20.5 -70.5l-21 -86.5c-38 -9.33301 -83 -16 -135 -20s-105 -6 -159 -6s-106 1.66699 -156 5s-92.667 8.33301 -128 15zM837.996 780.001c23.333 -5.33301 55.001 -9.33496 95.001 -12.002
c26.667 -2 53.667 -3 81 -3c14.667 0 28.667 0.333008 42 1c41.333 1.33301 79.833 3.33301 115.5 6s60.167 6 73.5 10c-4 45.333 -10.167 96.333 -18.5 153s-17.833 113.334 -28.5 170.001s-22.5 109.834 -35.5 159.501s-26.5 91.167 -40.5 124.5
c-15.333 37.333 -32.333 56 -51 56c-2 0 -3.66699 -0.333008 -5 -1c-21.333 -4 -39.333 -22.333 -54 -55c-4 -8 -11.167 -27.167 -21.5 -57.5l-35 -107l-41 -133l-39 -135c-11.667 -42.333 -20.834 -79.5 -27.501 -111.5s-10 -53.667 -10 -65z" />
    <glyph glyph-name="B" unicode="B" horiz-adv-x="2105" 
d="M90 1468c2.66699 79.333 7.8291 153.163 15.4961 221.496l21.5 194.5c65.333 8 139.666 16.167 222.999 24.5s172 15.5 266 21.5c94.667 5.33301 192.667 9.33301 294 12c64.667 1.33301 129 2.33301 193 3c36.667 0 73 -0.333008 109 -1
c100 -1.33301 197.5 -5.16602 292.5 -11.499s183.167 -14.833 264.5 -25.5c15.333 -19.333 31.833 -48.166 49.5 -86.499s34.667 -80.333 51 -126s30.666 -92.667 42.999 -141s20.5 -91.166 24.5 -128.499c-12 -39.333 -30 -78.166 -54 -116.499s-51.333 -74.5 -82 -108.5
s-62.667 -64 -96 -90s-65.666 -47 -96.999 -63c87.333 -27.333 169.5 -69.5 246.5 -126.5s140.167 -133.167 189.5 -228.5c-5.33301 -57.333 -14.5 -120.5 -27.5 -189.5s-28.667 -135.167 -47 -198.5s-39.166 -120.666 -62.499 -171.999s-48.666 -87.666 -75.999 -108.999
l-143.5 -25.5c-59 -10.333 -123.167 -20 -192.5 -29s-141 -17.667 -215 -26s-143 -13.833 -207 -16.5c-121.333 -6.66699 -238.666 -10 -351.999 -10c-28.667 0 -56.667 0.333008 -84 1c-139.333 2 -267 15.333 -383 40c-8 62.667 -12.667 150.667 -14 264
c-0.666992 45.333 -1 92.666 -1 141.999c0 74 0.666992 152 2 234c2 137.333 5.33301 281 10 431s8.33398 292 11.001 426c-9.33301 1.33301 -21.166 1.66602 -35.499 0.999023s-29.666 -1 -45.999 -1s-32.833 1 -49.5 3s-30.334 5.66699 -41.001 11zM890.995 490.997
c4 -77.333 10 -142 18 -194c20 -4 41.333 -6 64 -6h17c29.333 1.33301 58.666 3.33301 87.999 6s58 7 86 13s52.333 12.667 73 20c31.333 45.333 51.666 101.666 60.999 168.999c6.66699 52 10 108.333 10 169c0 18 -0.333008 36.333 -1 55
c-15.333 12 -39.666 22.167 -72.999 30.5s-70 13.833 -110 16.5c-17.333 1.33301 -34.666 2 -51.999 2l-66 -3c-40 -3.33301 -73.667 -9.66602 -101 -18.999c-10 -73.333 -15.333 -141.333 -16 -204zM890.995 1243c0 -27.333 0.669922 -50.333 2.00293 -69
c16.667 -4 42 -6.66699 76 -8h26c26 0 52.667 1.33301 80 4c36.667 2.66699 71.5 7.66699 104.5 15s55.5 15.666 67.5 24.999c4.66699 28 7 57.667 7 89v11c-0.666992 36 -4.33398 70.667 -11.001 104s-16.834 63 -30.501 89s-30.834 46.667 -51.501 62
c-22 4.66699 -45 7 -69 7c-18.667 0 -38 -1.33301 -58 -4c-46.667 -6 -89.667 -16.667 -129 -32c-1.33301 -31.333 -3.33301 -64.166 -6 -98.499s-4.66699 -68.5 -6 -102.5s-2 -64.667 -2 -92z" />
    <glyph glyph-name="C" unicode="C" horiz-adv-x="1679" 
d="M75 590c-2 42.667 -2.99805 85.9961 -2.99805 129.996c0 57.333 1.66699 116.666 5 177.999c6 108.667 16.833 213.834 32.5 315.501s36.167 195.834 61.5 282.501s53.666 157.334 84.999 212.001c39.333 23.333 94.833 45.5 166.5 66.5s151.667 40.167 240 57.5
s179.5 32.333 273.5 45s182.667 21.667 266 27c59.333 3.33301 114 5 164 5c20 0 38.667 -0.333008 56 -1c64 -2 108.667 -10 134 -24c2.66699 -18 5.5 -42 8.5 -72s5.16699 -64 6.5 -102c0.666992 -15.333 1 -31 1 -47c0 -24.667 -0.666992 -49.667 -2 -75
c-2 -42.667 -6.66699 -86.667 -14 -132c-70.667 -5.33301 -137 -9.66602 -199 -12.999s-121.667 -7.5 -179 -12.5s-113 -13.167 -167 -24.5s-108.333 -29.333 -163 -54c-15.333 -58.667 -30.166 -127 -44.499 -205s-24.833 -156.333 -31.5 -235
c-4 -46.667 -6 -91.667 -6 -135c0 -30 1 -59.667 3 -89c4.66699 -69.333 18 -125.333 40 -168c23.333 -16.667 56.833 -29.667 100.5 -39s92.167 -16.333 145.5 -21s108.666 -8.5 165.999 -11.5s111.166 -5.16699 161.499 -6.5s94.5 -3.66602 132.5 -6.99902
s65.333 -9 82 -17c0.666992 -10 1 -20.333 1 -31c0 -27.333 -1.33301 -57.666 -4 -90.999c-3.33301 -47.333 -8 -92.5 -14 -135.5s-14.167 -81.5 -24.5 -115.5s-22.166 -56.667 -35.499 -68c-105.333 1.33301 -216 4.16602 -332 8.49902s-232.333 12.333 -349 24
s-231.667 29 -345 52s-220.666 53.833 -321.999 92.5c-28.667 39.333 -50.834 97.5 -66.501 174.5s-25.834 164.167 -30.501 261.5z" />
    <glyph glyph-name="D" unicode="D" horiz-adv-x="2162" 
d="M78 1487c0 42 1.33691 85.9961 4.00391 131.996s5.66699 89 9 129l9 107.5c2.66699 31.667 4.66699 54.167 6 67.5c113.333 16.667 243.333 30.334 390 41.001s296.667 16.667 450 18c24 0 48 0.333008 72 1c128 0.666992 253.333 -3 376 -11
c145.333 -9.33301 273.333 -25.666 384 -48.999c32.667 -30 61.334 -60 86.001 -90s47.167 -60.333 67.5 -91s40.666 -63.834 60.999 -99.501l67.5 -116.5c4 -30 7.16699 -74 9.5 -132s3.5 -122.833 3.5 -194.5s-0.833008 -147.167 -2.5 -226.5
s-3.83398 -155.166 -6.50098 -227.499s-6 -138.166 -10 -197.499s-8.66699 -104.666 -14 -135.999l-77 -118c-26.667 -42 -54.334 -83 -83.001 -123s-58.334 -78.5 -89.001 -115.5s-61.667 -68.5 -93 -94.5c-48 -5.33301 -106.5 -11.5 -175.5 -18.5
s-144.333 -12.833 -226 -17.5s-168.5 -7.66699 -260.5 -9c-26.667 -0.666992 -53.334 -1 -80.001 -1c-65.333 0 -131.333 1.33301 -198 4c-93.333 3.33301 -185 9.83301 -275 19.5s-174.667 24.167 -254 43.5c-8 92 -13 200 -15 324c-1.33301 74 -2 150.333 -2 229
c0 51.333 0.333008 104.333 1 159c1.33301 134.667 3 270.167 5 406.5s3.66699 261.833 5 376.5zM872.004 696.496c0 -67 1.16504 -123.671 3.49805 -170.004s4.83301 -73.166 7.5 -80.499c34 -9.33301 72.167 -16.333 114.5 -21s84.333 -7 126 -7s81.5 2.33301 119.5 7
s70.667 11.667 98 21c24.667 72.667 42.834 152.334 54.501 239.001s18.167 173.334 19.5 260.001v41c-0.666992 72 -3.66699 141.333 -9 208c-6.66699 79.333 -16 145.666 -28 198.999c-27.333 24.667 -62.5 43.334 -105.5 56.001s-88.5 20.334 -136.5 23.001l-37 2
c-35.333 0 -69.666 -3.33301 -102.999 -10c-45.333 -8 -84.333 -20.333 -117 -37c-1.33301 -18 -2.5 -53.5 -3.5 -106.5s-1.83301 -114.667 -2.5 -185s-1 -144.333 -1 -222v-217z" />
    <glyph glyph-name="E" unicode="E" horiz-adv-x="1736" 
d="M72 1522c2.66699 62.667 8.00195 126.67 16.002 192.003s19 126.666 33 183.999c70.667 15.333 147.334 27.5 230.001 36.5s168 15.833 256 20.5c87.333 4.66699 176.333 7.33398 267 8.00098h90c59.333 0 118 -0.333008 176 -1c86.667 -1.33301 169.5 -3.33301 248.5 -6
s151.5 -5.33398 217.5 -8.00098c8 -22 13.333 -51.167 16 -87.5s4.33398 -73.833 5.00098 -112.5v-38c0 -25.333 -0.333008 -50.666 -1 -75.999c-1.33301 -37.333 -2.66602 -68.666 -3.99902 -93.999c-69.333 -3.33301 -138.333 -5 -207 -5c-34 0 -68.333 0.333008 -103 1
c-20.667 0.666992 -41.334 1 -62.001 1c-82.667 0 -165.667 -4.33301 -249 -13c-10.667 -16.667 -19.667 -41.334 -27 -74.001c-6.66699 -32 -11.334 -67.333 -14.001 -106l-2 -45c0 -23.333 1.33301 -46 4 -68c4 -36.667 10.333 -67.334 19 -92.001
c4 -1.33301 18.333 -2 43 -2s55 0.333008 91 1s75.5 1 118.5 1h125c40.333 0 78 -0.333008 113 -1s61.167 -3.33398 78.5 -8.00098c5.33301 -49.333 9.33301 -102.666 12 -159.999l2 -48c0 -38 -2.66699 -73.667 -8 -107c-46.667 -5.33301 -94.5 -8.33301 -143.5 -9l-147 -2
c-49 -0.666992 -97.667 -2.33398 -146 -5.00098s-95.833 -9 -142.5 -19c-8.66699 -20.667 -15 -47.667 -19 -81c-2.66699 -24.667 -4.33398 -50 -5.00098 -76c0 -9.33301 0.333008 -19 1 -29c1.33301 -36.667 3.83301 -72.5 7.5 -107.5s7.5 -63.5 11.5 -85.5
c30 -9.33301 72.667 -15 128 -17c28 -1.33301 56.5 -2 85.5 -2s59.167 0.666992 90.5 2c62 2 123 3.66699 183 5c14.667 0 29 0.333008 43 1c41.333 0 76.333 -1.66699 105 -5c9.33301 -62 14.666 -128.333 15.999 -199v-17c0 -64.667 -7.33301 -125.667 -22 -183
c-112 -10.667 -221.667 -19.5 -329 -26.5s-216 -10.833 -326 -11.5h-37c-98 0 -198 2.33301 -300 7c-114.667 5.33301 -234.667 15.666 -360 30.999c-9.33301 113.333 -16 234 -20 362c-3.33301 126.667 -5.33301 256 -6 388v99c0 99.333 0.666992 199 2 299
c2 133.333 4.33301 262 7 386c-23.333 0 -50.333 0.333008 -81 1s-57.334 1 -80.001 1z" />
    <glyph glyph-name="F" unicode="F" horiz-adv-x="1626" 
d="M80 1538c4 74 6.66699 142.663 8 205.996s2.66602 109.333 3.99902 138c74 19.333 154.667 34.5 242 45.5s177.333 18.5 270 22.5c69.333 2.66699 138.666 4.33398 207.999 5.00098c24 0 47.333 -0.333008 70 -1c92 -1.33301 179.333 -3.33301 262 -6
s158.334 -6 227.001 -10s125.667 -7.66699 171 -11c0.666992 -23.333 1 -46.666 1 -69.999c0 -46 -1.66699 -93 -5 -141c-5.33301 -72 -17.666 -139.667 -36.999 -203c-50 -10.667 -102.333 -16.667 -157 -18c-27.333 -0.666992 -54.833 -1 -82.5 -1
s-55.167 0.333008 -82.5 1c-55.333 1.33301 -110.333 3 -165 5c-18 0.666992 -36 1 -54 1c-36 0 -72 -1.33301 -108 -4c-12 -9.33301 -20.667 -29.333 -26 -60c-4.66699 -30 -7.66699 -64.333 -9 -103c-0.666992 -19.333 -1 -38.166 -1 -56.499s0.333008 -36.166 1 -53.499
c1.33301 -34.667 2 -61 2 -79c31.333 -10.667 73.666 -17.167 126.999 -19.5s109.666 -3.83301 168.999 -4.5c29.333 0 58.5 -0.166992 87.5 -0.5s57.833 -0.166016 86.5 0.500977h24c46.667 0 86.334 -1.66699 119.001 -5c8 -34 13.667 -65 17 -93
c2.66699 -20 4 -39.667 4 -59c0 -8 -0.333008 -15.667 -1 -23c-1.33301 -26.667 -4.33301 -53.667 -9 -81s-12 -58 -22 -92c-50.667 -6.66699 -100.5 -11 -149.5 -13s-98 -4.5 -147 -7.5s-98.5 -6.5 -148.5 -10.5s-99.667 -12.667 -149 -26
c-1.33301 -4 -2.33301 -31.667 -3 -83s-1.16699 -112.5 -1.5 -183.5s0.333984 -146.833 2.00098 -227.5s3.83398 -152.334 6.50098 -215.001c-26 -10.667 -64.5 -20.5 -115.5 -29.5s-106.167 -15.833 -165.5 -20.5s-119.833 -7 -181.5 -7s-116.167 3.33301 -163.5 10
c-12.667 130 -20.334 265 -23.001 405c-2 84 -2.66699 167 -2 249c0 55.333 0.333008 110.333 1 165c2 136.667 5.83301 268.167 11.5 394.5s11.167 239.833 16.5 340.5c-15.333 0 -37 3.83301 -65 11.5z" />
    <glyph glyph-name="G" unicode="G" horiz-adv-x="1945" 
d="M97 736c0.666992 77.333 5.50586 157.665 14.5059 240.998s22.333 167.333 40 252s40.5 162.834 68.5 234.501s61.5 134.167 100.5 187.5s85.167 91.333 138.5 114c74 32.667 161.667 59.667 263 81s206.333 39.166 315 53.499s214.5 25 317.5 32l271.5 18.5
c23.333 -66.667 40.666 -140.667 51.999 -222c9.33301 -60.667 14 -116.667 14 -168c0 -17.333 -0.666992 -34.333 -2 -51c-54.667 -6.66699 -116.5 -13 -185.5 -19s-139 -13.5 -210 -22.5s-140.333 -20.667 -208 -35s-128.167 -31.166 -181.5 -50.499
c-22 -22 -41.167 -53 -57.5 -93s-30.333 -85.333 -42 -136s-21.167 -104 -28.5 -160s-11.666 -111 -12.999 -165v-35c0 -40 1.66699 -78 5 -114c4.66699 -46 12 -84.667 22 -116c31.333 -12 67.5 -23.5 108.5 -34.5s81.833 -20.333 122.5 -28s78.667 -12.5 114 -14.5
c22 -1.33301 41 -2 57 -2c10.667 0 20 0.333008 28 1c9.33301 32.667 16.666 60 21.999 82s8.66602 43.333 9.99902 64s0.333008 41.5 -3 62.5s-9 47.167 -17 78.5c-39.333 18 -82.666 28.333 -129.999 31c-23.333 1.33301 -45.666 2 -66.999 2
s-41.666 -0.666992 -60.999 -2c-5.33301 42 -8 81.667 -8 119c0 10.667 0.333008 21.334 1 32.001c2 46.667 11 96.667 27 150c56 13.333 120.5 24.5 193.5 33.5s147.167 16.167 222.5 21.5s147.5 9.5 216.5 12.5s127.167 4.5 174.5 4.5
c5.33301 -92.667 10.166 -197.834 14.499 -315.501s8.16602 -236.5 11.499 -356.5s5.66602 -237.167 6.99902 -351.5s2 -215.166 2 -302.499c-32.667 -4 -73.334 -7.33301 -122.001 -10s-99.834 -4 -153.501 -4s-107.834 2.33301 -162.501 7s-104.667 13.334 -150 26.001
v123c-62.667 5.33301 -134 11 -214 17s-161.833 13.167 -245.5 21.5s-165.834 19.333 -246.501 33s-152.334 33.5 -215.001 59.5c-50.667 22 -90 44.5 -118 67.5s-49.167 49.833 -63.5 80.5s-24.166 67.5 -29.499 110.5s-10.333 94.167 -15 153.5
c-3.33301 49.333 -5 105.666 -5 168.999v32z" />
    <glyph glyph-name="H" unicode="H" horiz-adv-x="1949" 
d="M118 902c0.666992 138.667 2.00391 272.169 4.00391 400.502s4.33301 245.833 7 352.5s4.66699 190.667 6 252c24.667 8 56.5 14.667 95.5 20s81 9.83301 126 13.5s90.833 6.16699 137.5 7.5c23.333 0.666992 45.833 1 67.5 1s42.5 -0.333008 62.5 -1
c38.667 -1.33301 71.667 -3.83301 99 -7.5s43.666 -9.5 48.999 -17.5c-15.333 -102 -23 -209.667 -23 -323c0.666992 -2.66699 1 -5 1 -7v-329c30 -9.33301 67.667 -14 113 -14h5c46.667 0 94.167 3 142.5 9s92.333 13 132 21s67.167 14.667 82.5 20
c6.66699 31.333 10 73 10 125s-1 107 -3 165s-3.66699 116.333 -5 175c-0.666992 19.333 -1 38.333 -1 57c0 36.667 1 70.334 3 101.001c22 10.667 59.833 20.167 113.5 28.5s111 14.5 172 18.5s119 6 174 6s94.167 -2.66699 117.5 -8
c6.66699 -84.667 11.334 -185.667 14.001 -303c2.66699 -96 4 -197.333 4 -304v-71c-0.666992 -133.333 -2.33398 -268.333 -5.00098 -405s-5.5 -265.834 -8.5 -387.501s-5.83301 -229.834 -8.5 -324.501l-6 -218c-28.667 -5.33301 -71.334 -9 -128.001 -11
s-115.334 -3 -176.001 -3s-116.667 0.666992 -168 2s-85.666 2.66602 -102.999 3.99902c-2 32 -3 66.667 -3 104c0 18.667 0.333008 38.334 1 59.001c1.33301 60.667 3 123.334 5 188.001c1.33301 38.667 2 77.334 2 116.001c0 25.333 -0.333008 50.666 -1 75.999
c-1.33301 62.667 -7 119 -17 169c-18.667 0.666992 -50.667 3 -96 7c-38 3.33301 -77.333 5 -118 5h-22c-48 -0.666992 -92.333 -5.16699 -133 -13.5s-66.334 -23.5 -77.001 -45.5c-6.66699 -112 -12 -223.333 -16 -334c-1.33301 -48.667 -2 -97.334 -2 -146.001
c0 -62 1.33301 -124.333 4 -187c-45.333 -9.33301 -93 -17.166 -143 -23.499s-101 -10.5 -153 -12.5c-30.667 -1.33301 -61.334 -2 -92.001 -2c-20.667 0 -41.334 0.333008 -62.001 1c-51.333 1.33301 -100.666 4.66602 -147.999 9.99902c-8 57.333 -14.667 137.333 -20 240
c-4.66699 104 -8 219.333 -10 346c-1.33301 95.333 -2 193.666 -2 294.999v103z" />
    <glyph glyph-name="I" unicode="I" horiz-adv-x="897" 
d="M161 922l0.00292969 157.003c0 103.333 0.333008 205.666 1 306.999c1.33301 152 4 290.667 8 416c45.333 10.667 93.166 18.5 143.499 23.5s101.166 8.5 152.499 10.5s101.5 3 150.5 3h139.5c0 -294.667 -4.33301 -590.834 -13 -888.501s-20.667 -598.167 -36 -901.5
c-10.667 -6.66699 -29.167 -12.334 -55.5 -17.001s-56.166 -9.16699 -89.499 -13.5s-68.833 -7.5 -106.5 -9.5s-73.834 -3.33301 -108.501 -4s-66 -1 -94 -1s-49.667 0.666992 -65 2c-8 138 -14.333 285.5 -19 442.5s-7.33398 314.833 -8.00098 473.5z" />
    <glyph glyph-name="J" unicode="J" horiz-adv-x="1568" 
d="M96 95c-1.33301 20 -2 40.6699 -2 62.0029c0 59.333 5 123 15 191c56 2.66699 110.5 5 163.5 7s105.833 5.83301 158.5 11.5s105 15.667 157 30s104.333 33.833 157 58.5c15.333 61.333 26.833 149 34.5 263s11.5 238.167 11.5 372.5s-2.83301 271.166 -8.5 410.499
s-13.834 266.333 -24.501 381c36.667 9.33301 80.334 18.833 131.001 28.5s105 17.5 163 23.5c41.333 4 83.333 6 126 6c17.333 0 35 -0.666992 53 -2c61.333 -2 120.666 -9 177.999 -21c8 -64 14.333 -145.667 19 -245c3.33301 -85.333 5 -178 5 -278v-46
c-0.666992 -118 -2.83398 -239 -6.50098 -363s-8.16699 -243.333 -13.5 -358s-10.666 -219.167 -15.999 -313.5s-11 -170.166 -17 -227.499c-38 -24.667 -92.167 -47.834 -162.5 -69.501s-148.5 -40.834 -234.5 -57.501s-175 -30.334 -267 -41.001s-178.667 -18 -260 -22
c-37.333 -1.33301 -72.666 -2 -105.999 -2c-39.333 0 -76 1.33301 -110 4c-62 4 -105.667 12 -131 24c-4 39.333 -8.33301 97 -13 173z" />
    <glyph glyph-name="K" unicode="K" horiz-adv-x="1912" 
d="M114 597c0.666992 122 2.33203 246.499 4.99902 373.499s5.66699 246.167 9 357.5l9 300l6 201c38 8 87.833 13 149.5 15s123.5 3 185.5 3s119 -1.33301 171 -4s87 -4.66699 105 -6c-1.33301 -42 -3.5 -88.333 -6.5 -139s-4.5 -102 -4.5 -154s1.5 -104.167 4.5 -156.5
s7.83301 -102.5 14.5 -150.5c2.66699 -23.333 13.334 -36 32.001 -38h2c17.333 0 37.333 16.667 60 50l85 131l109.5 173.5l113 181.5l93.5 155c17.333 1.33301 34.666 2 51.999 2c29.333 0 60 -2 92 -6c50.667 -6.66699 102.167 -15.5 154.5 -26.5
s104.833 -22.667 157.5 -35l151 -34.5l-91.5 -164.5l-130 -234.5l-139 -255l-119.5 -227c31.333 -79.333 66.5 -154.833 105.5 -226.5s79 -140.834 120 -207.501l122 -199.5c40.333 -66.333 77.5 -136.166 111.5 -209.499c-36.667 -15.333 -83.334 -29.166 -140.001 -41.499
s-114.667 -22.5 -174 -30.5s-116 -14.167 -170 -18.5s-96.667 -7.16602 -128 -8.49902c-49.333 68 -95.833 136.167 -139.5 204.5l-119.5 192l-94 157c-26.667 45 -48.334 78.5 -65.001 100.5c-12 8 -23 12 -33 12c-8 0 -15.333 -3.16699 -22 -9.5s-10 -18.833 -10 -37.5
c0 -32.667 0.666992 -73.334 2 -122.001s2 -99.667 2 -153s-0.666992 -106.166 -2 -158.499s-3.66602 -99.833 -6.99902 -142.5c-13.333 -6.66699 -35.666 -13 -66.999 -19s-67.166 -11.167 -107.499 -15.5s-82.5 -7.83301 -126.5 -10.5s-86.667 -4.33398 -128 -5.00098h-40
c-25.333 0 -48.666 0.333008 -69.999 1c-32 1.33301 -56.333 4 -73 8c-6.66699 76.667 -11.334 170 -14.001 280c-2 88 -3 180 -3 276v72z" />
    <glyph glyph-name="L" unicode="L" horiz-adv-x="1548" 
d="M116 1577c0.666992 104 3 194 7 270c12 6.66699 34.167 12.5 66.5 17.5s70 9.16699 113 12.5s89 6 138 8s96.333 3 142 3s87 -0.666992 124 -2s65.167 -3.33301 84.5 -6c-2.66699 -121.333 -4.83398 -250 -6.50098 -386s-2.5 -266.833 -2.5 -392.5v-342v-231.5
c53.333 -13.333 109 -21.333 167 -24c29.333 -1.33301 58.5 -2 87.5 -2s58.167 0.666992 87.5 2c58.667 2.66699 116.667 7.5 174 14.5l164 20.5c8 -83.333 12.667 -164.666 14 -243.999v-15c0 -74.667 -7.33301 -151 -22 -229c-34 -4 -80.667 -9 -140 -15
s-125.833 -11.833 -199.5 -17.5s-152.5 -10.834 -236.5 -15.501s-168.667 -8.33398 -254 -11.001s-168.333 -4 -249 -4s-155 2.66699 -223 8c-1.33301 66.667 -3.83301 147.834 -7.5 243.501s-7.16699 199.167 -10.5 310.5l-10 347
c-3.33301 120 -5.66602 237.333 -6.99902 352c-0.666992 76.667 -1 150.667 -1 222v106z" />
    <glyph glyph-name="M" unicode="M" horiz-adv-x="2529" 
d="M83 252c2 114.667 5.00098 235.166 9.00098 361.499s9.16699 253.333 15.5 381s12.833 247.167 19.5 358.5s13.167 209.666 19.5 294.999s11.5 147.666 15.5 186.999c38 10.667 83 21.5 135 32.5s106 20 162 27s111.333 13.5 166 19.5s104.834 10 150.501 12
s84.5 3 116.5 3s52 -1.33301 60 -4c34 -105.333 66.167 -211.5 96.5 -318.5s67.166 -210.5 110.499 -310.5c8 -18 21.667 -31.667 41 -41s37.666 -7 54.999 7c8 6.66699 20 25.334 36 56.001s33.5 68.5 52.5 113.5l60.5 147.5l60.5 152.5l50 131
c14.333 39 24.166 66.833 29.499 83.5c40.667 9.33301 96 16.666 166 21.999c69.333 5.33301 142.666 8.33301 219.999 9h33c64.667 0 129 -1.66699 193 -5c73.333 -4 135 -10 185 -18c13.333 -324.667 24.833 -647.5 34.5 -968.5s24.167 -647.5 43.5 -979.5
c-30 -18 -70.667 -30.667 -122 -38s-106.666 -12 -166 -14c-22 -0.666992 -44.333 -1 -67 -1c-37.333 0 -75.333 1 -114 3c-61.333 3.33301 -118 7.66602 -170 12.999c-1.33301 23.333 -3.5 58.5 -6.5 105.5s-6.16699 100.667 -9.5 161l-10 185.5
c-3.33301 63.333 -6.66602 122.333 -9.99902 177s-6.33301 100.834 -9 138.501s-4.66699 59.834 -6 66.501c-9.33301 32 -22 48 -38 48c-2 0 -3.66699 -0.333008 -5 -1c-18 -4 -32.667 -17.667 -44 -41l-65.5 -149.5l-87.5 -205l-98.5 -227l-98.5 -221.5
c-37.333 0 -75.333 -1 -114 -3c-8.66699 -0.666992 -17.667 -1 -27 -1c-29.333 0 -58.666 2.66699 -87.999 8c-36.667 65.333 -70.834 133.166 -102.501 203.499s-61.167 139.333 -88.5 207s-51.833 131.167 -73.5 190.5l-59.5 157c-6.66699 19.333 -19.5 32 -38.5 38
s-34.167 -2.66699 -45.5 -26c-6.66699 -13.333 -12.334 -40.166 -17.001 -80.499s-8.66699 -87.5 -12 -141.5s-6.16602 -111.667 -8.49902 -173s-4.16602 -119.666 -5.49902 -174.999s-2.33301 -105.166 -3 -149.499s-1.66699 -76.833 -3 -97.5
c-86 -18 -170.667 -27.333 -254 -28h-14c-79.333 0 -164 5.33301 -254 16c-1.33301 49.333 -2 103 -2 161c0 44 0.333008 90.667 1 140z" />
    <glyph glyph-name="N" unicode="N" horiz-adv-x="2117" 
d="M119 1196c0 117.333 1.00195 229.677 3.00195 337.01s4.33301 201.333 7 282c8 8 31.5 16 70.5 24s86.833 16.167 143.5 24.5s118.5 15.833 185.5 22.5s131.5 11.5 193.5 14.5s118.667 5.16699 170 6.5h29c36.667 0 65 -2 85 -6c44 -139.333 92.833 -276 146.5 -410
l160.5 -399c5.33301 -10.667 13.166 -19.834 23.499 -27.501s21.666 -10.834 33.999 -9.50098s23.833 7.83301 34.5 19.5s19 29.5 25 53.5c1.33301 5.33301 2.66602 22.166 3.99902 50.499s2.33301 63.666 3 105.999s2 89.333 4 141s3.33301 102.834 4 153.501
s1.66699 98.167 3 142.5s2.66602 80.833 3.99902 109.5c128 33.333 256 50 384 50c47.333 0 94.666 -2.33301 141.999 -7c2 -200.667 3 -401.667 3 -603c0 -100.667 -0.333008 -201.667 -1 -303c-1.33301 -302.667 -6 -603.334 -14 -902.001
c-44 -6.66699 -96.333 -13.834 -157 -21.501s-126.167 -15.334 -196.5 -23.001s-143.666 -14.167 -219.999 -19.5s-152.166 -8.66602 -227.499 -9.99902c-74 122.667 -141.333 250.5 -202 383.5s-116.667 269.167 -168 408.5c-5.33301 15.333 -15 26.666 -29 33.999
s-27.667 9.66602 -41 6.99902s-25.5 -10.167 -36.5 -22.5s-17.833 -30.5 -20.5 -54.5c-13.333 -126.667 -19.666 -271.334 -18.999 -434.001c0 -94.667 2 -195.334 6 -302.001c-82 -22 -164.333 -35 -247 -39c-14.667 -0.666992 -29.667 -1 -45 -1
c-68.667 0 -139.667 7.33301 -213 22c-5.33301 52 -10.166 122 -14.499 210s-7.83301 185.833 -10.5 293.5s-4.33398 221.667 -5.00098 342s-1 239.166 -1 356.499z" />
    <glyph glyph-name="O" unicode="O" horiz-adv-x="2109" 
d="M96 669.5c0 101 0.331055 201.998 0.998047 302.998s1.66699 199.333 3 295s4.33301 179.167 9 250.5c19.333 22 43.833 52 73.5 90l94 116.5c33 39.667 64.833 76.167 95.5 109.5s56.334 56.333 77.001 69c49.333 4 105.333 9 168 15s129.167 11.833 199.5 17.5
s143 10.167 218 13.5s148.667 5 221 5s142.333 -2 210 -6s128.834 -12.333 183.501 -25c30 -26 60 -57.333 90 -94s59 -75.167 87 -115.5s55 -81.666 81 -123.999s49.667 -82.833 71 -121.5l9.5 -170c3.66699 -66.667 6.5 -136.167 8.5 -208.5s3.66699 -146 5 -221
s2 -146 2 -213s-1 -127.167 -3 -180.5s-5 -95 -9 -125c-48 -66.667 -93.5 -134.5 -136.5 -203.5s-90.5 -134.833 -142.5 -197.5c-50.667 -10.667 -110.834 -18.834 -180.501 -24.501s-144.334 -10.5 -224.001 -14.5s-162.167 -6 -247.5 -6s-169.666 1.33301 -252.999 4
s-163.5 6.33398 -240.5 11.001s-147.167 11.334 -210.5 20.001c-20.667 23.333 -43.5 54 -68.5 92s-49.833 78.833 -74.5 122.5s-47.167 86.667 -67.5 129s-36.166 79.833 -47.499 112.5c-1.33301 82 -2 173.5 -2 274.5zM801.998 684.998
c0.666992 -63.333 1.66406 -120.997 2.99707 -172.997s2 -90.333 2 -115c32.667 -16.667 71 -27.334 115 -32.001c20 -2 40.333 -3 61 -3c24.667 0 49 1.33301 73 4c45.333 5.33301 87.833 16 127.5 32s71.834 35.667 96.501 59c1.33301 66.667 3.33301 137.167 6 211.5
s4 152.166 4 233.499s-1.66699 164.666 -5 249.999s-9.66602 170.333 -18.999 255c-42 -1.33301 -81.5 -2.33301 -118.5 -3s-73 -2.66699 -108 -6s-69.167 -9.16602 -102.5 -17.499s-67.666 -21.5 -102.999 -39.5c-8 -16.667 -14.167 -48 -18.5 -94s-7.5 -99.667 -9.5 -161
c-2 -62.667 -3.33301 -129.334 -4 -200.001v-103v-98z" />
    <glyph glyph-name="P" unicode="P" horiz-adv-x="2056" 
d="M82 1495c1.33301 40.667 4.99805 81.5029 10.998 122.503s12.5 79.667 19.5 116l19.5 98.5c6 29.333 9.66699 53 11 71c35.333 9.33301 90.333 17.666 165 24.999s159.334 12.666 254.001 15.999c96 4 196.667 6.66699 302 8c52.667 0.666992 104.334 1 155.001 1
c51.333 0 101 -0.333008 149 -1c97.333 -1.33301 185 -3.33301 263 -6s138.333 -6.33398 181 -11.001c56 -58.667 103 -117.667 141 -177s70.667 -120.333 98 -183s50.5 -129.167 69.5 -199.5s37.5 -146.5 55.5 -228.5c-2.66699 -27.333 -15.834 -64.166 -39.501 -110.499
s-53 -95.5 -88 -147.5s-72.667 -102.5 -113 -151.5s-78.166 -88.833 -113.499 -119.5c-65.333 -20.667 -134.5 -39 -207.5 -55s-145.833 -30.167 -218.5 -42.5s-142.334 -22.666 -209.001 -30.999s-126.667 -13.833 -180 -16.5v-44c0 -66.667 2.33301 -135.334 7 -206.001
c3.33301 -45.333 5 -90 5 -134c0 -39.333 -1.33301 -78 -4 -116c-38 -4 -82 -8 -132 -12s-101.5 -7.33301 -154.5 -10s-105.833 -4 -158.5 -4s-101.667 1.33301 -147 4c-4 27.333 -7.66699 70.666 -11 129.999s-5.33301 130 -6 212s-1 172.5 -1 271.5
s0.666992 200.667 2 305s3.33301 208 6 311s5.33398 199.5 8.00098 289.5c-15.333 0 -36.5 2.16699 -63.5 6.5s-52.167 10.5 -75.5 18.5zM842.998 1115l0.00195312 -13.001c0 -42.667 3 -82.334 9 -119.001c6.66699 -0.666992 14 -1 22 -1c19.333 0 42.666 1.33301 69.999 4
c38 3.33301 77.833 10.5 119.5 21.5s82 25 121 42s70.833 37.167 95.5 60.5c-2.66699 69.333 -11.5 134.5 -26.5 195.5s-29.5 105.167 -43.5 132.5c-13.333 15.333 -34.333 27 -63 35s-59.334 13 -92.001 15c-12 0.666992 -24.333 1 -37 1c-20 0 -40 -1 -60 -3
c-32 -3.33301 -58.333 -7.66602 -79 -12.999c-4 -24.667 -8.83301 -56.5 -14.5 -95.5s-10.5 -80.667 -14.5 -125s-6.33301 -90.166 -7 -137.499z" />
    <glyph glyph-name="Q" unicode="Q" horiz-adv-x="2101" 
d="M105 1006l0.00195312 43.0029c0 79.333 1.66699 156.666 5 231.999c3.33301 89.333 7.66602 171.666 12.999 246.999c48 52 96.5 110 145.5 174s99.5 124 151.5 180c58.667 10.667 126.167 19.834 202.5 27.501s155.166 13.834 236.499 18.501s162.333 8.16699 243 10.5
s155 3.5 223 3.5s127 0.333008 177 1s85.333 1 106 1c30 -24.667 59.667 -54.834 89 -90.501s58 -72.5 86 -110.5s55 -76.833 81 -116.5s49.667 -77.5 71 -113.5c6.66699 -48 12.834 -104 18.501 -168s10.167 -130.833 13.5 -200.5s6 -140.334 8 -212.001
s3 -139.167 3 -202.5s-0.666992 -120.333 -2 -171s-3.33301 -91 -6 -121c-34 -46.667 -66 -94.5 -96 -143.5l-92 -144.5l74.5 -72c22.333 -22 41.166 -41.333 56.499 -58c-19.333 -28.667 -44.666 -54.834 -75.999 -78.501s-66.5 -44.334 -105.5 -62.001
s-81 -33.667 -126 -48s-91.5 -26.5 -139.5 -36.5l-85 103.5c-29.333 36.333 -58.333 74.166 -87 113.499c-90 -5.33301 -179 -8.33301 -267 -9c-44 -0.666992 -86.833 -1 -128.5 -1s-82.5 0.333008 -122.5 1c-79.333 0.666992 -152 2.33398 -218 5.00098
s-121.667 4.66699 -167 6c-22 23.333 -45.5 52.833 -70.5 88.5s-49.167 74 -72.5 115s-44.833 81.5 -64.5 121.5s-35.834 76.667 -48.501 110c-9.33301 87.333 -16.5 178.333 -21.5 273s-7.83301 189.334 -8.5 284.001zM793.002 945.003
c0 -78.667 1.33105 -157.165 3.99805 -235.498s6 -154.5 10 -228.5c28.667 -5.33301 60.667 -10.333 96 -15s71.666 -7.66699 108.999 -9c-27.333 49.333 -49.5 95 -66.5 137s-29.167 79 -36.5 111c27.333 30 65.333 51.333 114 64s95.334 22.667 140.001 30
c26 -44 61.667 -91.333 107 -142l4 195c0.666992 34 1 68 1 102s-0.333008 68 -1 102c-1.33301 67.333 -4 132 -8 194s-11 118.333 -21 169c-28.667 0 -60.667 2.16699 -96 6.5s-71.666 7.5 -108.999 9.5c-13.333 0.666992 -26.666 1 -39.999 1l-74 -4
c-37.333 -3.33301 -71.666 -12.333 -102.999 -27c-10.667 -72.667 -18.334 -147.834 -23.001 -225.501s-7 -155.834 -7 -234.501z" />
    <glyph glyph-name="R" unicode="R" horiz-adv-x="2011" 
d="M70 1456c0 32.667 1.00488 67.1689 3.00488 103.502s5 72.833 9 109.5s8.66699 72.167 14 106.5s11.666 65.166 18.999 92.499c36.667 12 91.167 21.833 163.5 29.5s154.333 13.5 246 17.5s189 6 292 6s203 -1.33301 300 -4s187.333 -6.83398 271 -12.501
s152.167 -13.834 205.5 -24.501c39.333 -35.333 79.333 -82.333 120 -141s77 -125.667 109 -201s56.667 -155.333 74 -240c12 -58 18.333 -117.333 19 -178c0 -27.333 -1.33301 -54.666 -4 -81.999l-124 -150c-52.667 -62 -108.334 -121.667 -167.001 -179
c12 -19.333 27 -46.833 45 -82.5l57.5 -114.5l62.5 -128l59.5 -124l48 -101.5c13.667 -29.667 23.167 -51.167 28.5 -64.5c-23.333 -15.333 -57.833 -30 -103.5 -44s-96.167 -27.167 -151.5 -39.5s-112 -23.333 -170 -33s-109.667 -15.167 -155 -16.5
c-31.333 38 -59.5 74.167 -84.5 108.5l-73.5 103.5l-72 104.5l-79 113.5l-34.5 48.5c-12.333 17 -25 32 -38 45s-27 22.5 -42 28.5s-30.167 5.66699 -45.5 -1c-19.333 -8 -31 -24.333 -35 -49s-6 -48.667 -6 -72c0.666992 -42.667 1 -85.334 1 -128.001v-63
c-0.666992 -64 -2.33398 -128.667 -5.00098 -194c-26 -8 -60 -15.833 -102 -23.5s-89 -13.5 -141 -17.5s-107.667 -6 -167 -6s-119 3.33301 -179 10c-9.33301 117.333 -16.5 238.833 -21.5 364.5s-8.5 251.167 -10.5 376.5c-1.33301 74.667 -2 149.334 -2 224.001
c0 49.333 0.333008 99.333 1 150l4 362c-16.667 1.33301 -38.334 2 -65.001 2s-51.334 2.66699 -74.001 8zM825.005 1183.5c0 -43.667 1.00195 -84.501 3.00195 -122.501s6 -69.333 12 -94c27.333 0 60 1.66699 98 5s76.5 9 115.5 17s75.833 19.167 110.5 33.5
s63 33.833 85 58.5c1.33301 12 2 24.667 2 38c0 16.667 -1 34.334 -3 53.001c-3.33301 33.333 -7.33301 65.166 -12 95.499s-9.83398 57.333 -15.501 81s-9.16699 39.834 -10.5 48.501c-13.333 15.333 -37.5 28 -72.5 38s-71.833 17 -110.5 21c-23.333 2.66699 -46 4 -68 4
c-15.333 0 -30.333 -0.666992 -45 -2c-36 -2.66699 -62.667 -10.667 -80 -24c-2.66699 -35.333 -4.83398 -75 -6.50098 -119s-2.5 -87.833 -2.5 -131.5z" />
    <glyph glyph-name="S" unicode="S" horiz-adv-x="1699" 
d="M82 827c-1.33301 31.333 -2.00684 62.668 -2.00684 94.001c0 124.667 10.667 249.667 32 375c26.667 156 70.667 303.667 132 443c98 38 200.333 70 307 96s214.5 47.167 323.5 63.5s218.167 27.166 327.5 32.499c62.667 3.33301 124.334 5 185.001 5
c45.333 0 90.333 -1 135 -3c20.667 -65.333 33 -137.666 37 -216.999c3.33301 -59.333 5 -116 5 -170c0 -18 -0.333008 -35.667 -1 -53c-116 -18 -232.5 -32 -349.5 -42s-233.5 -26.667 -349.5 -50c-23.333 -39.333 -38.333 -82 -45 -128s-10.667 -92.667 -12 -140
c125.333 -24.667 250.5 -47.334 375.5 -68.001s251.167 -42.667 378.5 -66c24.667 -59.333 40.667 -123.666 48 -192.999c4 -38 6 -76.333 6 -115c0 -31.333 -1.33301 -62.666 -4 -93.999c-6 -70 -18.667 -138.167 -38 -204.5s-43.333 -126.833 -72 -181.5
c-98 -50.667 -199.667 -94 -305 -130s-212.166 -66.667 -320.499 -92s-217.5 -46.5 -327.5 -63.5s-217.667 -32.5 -323 -46.5c-12 9.33301 -23.167 35.666 -33.5 78.999s-18.5 90.166 -24.5 140.499s-11 98.833 -15 145.5c-2.66699 30 -3.66699 54.333 -3 73
c0 10.667 0.333008 19.667 1 27c58.667 2.66699 122.334 8.5 191.001 17.5s135.834 19.667 201.501 32s125.834 26 180.501 41s96.334 29.833 125.001 44.5c6.66699 20.667 11.334 47 14.001 79c1.33301 16 2 31.667 2 47s-0.666992 30 -2 44c-16.667 12 -44 22.5 -82 31.5
s-81.667 17.333 -131 25s-101.833 15.167 -157.5 22.5s-109.5 15.5 -161.5 24.5s-99.833 19.333 -143.5 31s-78.5 26.167 -104.5 43.5z" />
    <glyph glyph-name="T" unicode="T" horiz-adv-x="1828" 
d="M59 1321c-1.33301 28.667 -1.99707 57.999 -1.99707 87.999c0.666992 52.667 3 106.667 7 162c6.66699 87.333 20 172 40 254c18 8 53.333 15.833 106 23.5s115.834 14.167 189.501 19.5s155.5 10 245.5 14s181.833 7.33301 275.5 10s185.834 4.66699 276.501 6
c56.667 1.33301 110.667 2 162 2h89c76.667 -1.33301 142.167 -3.33301 196.5 -6s92.5 -6 114.5 -10c2.66699 -31.333 4 -67.5 4 -108.5s-1.33301 -82 -4 -123s-6.33398 -79.833 -11.001 -116.5s-9 -67.334 -13 -92.001c-74 -9.33301 -146.5 -17.166 -217.5 -23.499
s-143.5 -10.833 -217.5 -13.5c-6.66699 -34 -13.334 -83.5 -20.001 -148.5s-13.167 -138.833 -19.5 -221.5s-11.833 -170.667 -16.5 -264s-8.66699 -185.5 -12 -276.5s-5.33301 -177.167 -6 -258.5c-0.666992 -40.667 -1.16699 -79 -1.5 -115s0.166992 -69.333 1.5 -100
c-104 -18 -208 -35 -312 -51c-68.667 -10.667 -137.334 -15.667 -206.001 -15c-34.667 0 -69.334 1.33301 -104.001 4c-12 139.333 -20.833 266.333 -26.5 381s-9.16699 225.334 -10.5 332.001c-0.666992 53.333 -1 106.666 -1 159.999s0.333008 107.333 1 162
c1.33301 108 2.66602 224.667 3.99902 350c-30.667 2 -63 3 -97 3h-26c-44 -0.666992 -88.667 -2.16699 -134 -4.5s-89.833 -6.16602 -133.5 -11.499s-84.167 -9.33301 -121.5 -12z" />
    <glyph glyph-name="U" unicode="U" horiz-adv-x="1994" 
d="M122 1130l-0.00390625 138.495v130.5c0.666992 84.667 2.33398 162.834 5.00098 234.501s6.66699 128.5 12 170.5c108.667 13.333 214.334 21.333 317.001 24c18 0.666992 36.333 1 55 1c86 0 177 -5.66699 273 -17c-9.33301 -130.667 -15.333 -253.334 -18 -368.001
c-2 -91.333 -3 -180 -3 -266v-63c0.666992 -104.667 3.33398 -204.667 8.00098 -300s9.66699 -191.666 15 -288.999c26.667 -13.333 60 -22.666 100 -27.999c24 -3.33301 48.333 -5.33301 73 -6c15.333 0 31 0.666992 47 2c40 4 79 12.5 117 25.5s68.333 31.5 91 55.5
c0 98 -0.666992 200.667 -2 308s-2.33301 215.333 -3 324s-1 214.834 -1 318.501s0.666992 200.834 2 291.501c108 24.667 215.667 37 323 37h4c22 0 43.667 -0.333008 65 -1c88 0 177.333 0.666992 268 2c-1.33301 -105.333 -3.33301 -220.333 -6 -345
s-4.83398 -250.5 -6.50098 -377.5s-2.5 -249.833 -2.5 -368.5s1.66699 -225.334 5 -320.001c-9.33301 -30 -23.666 -63.333 -42.999 -100s-41 -74.5 -65 -113.5s-48.667 -77 -74 -114s-49.333 -69.833 -72 -98.5c-78 -2.66699 -168.833 -6.66699 -272.5 -12
s-211.167 -10 -322.5 -14s-222 -6 -332 -6s-210.667 4.66699 -302 14c-19.333 20.667 -41 48.334 -65 83.001s-47.833 71.834 -71.5 111.501s-45.167 79 -64.5 118s-33.666 72.833 -42.999 101.5c0 50.667 -0.666992 114.5 -2 191.5s-3 160 -5 249
s-3.33301 180.833 -4 275.5z" />
    <glyph glyph-name="V" unicode="V" horiz-adv-x="1880" 
d="M70 1829l169.996 23.5c62.667 9 123.334 16.833 182.001 23.5s110 11.667 154 15c14.667 1.33301 27.334 2 38.001 2c22 0 36.333 -2.33301 43 -7c5.33301 -39.333 13.166 -85.333 23.499 -138l33 -165l36 -173l36 -165l31.5 -136c9.33301 -38.667 16.333 -69 21 -91
c1.33301 -6.66699 5 -18.667 11 -36s12.833 -34.833 20.5 -52.5s15.834 -33.667 24.501 -48s16.667 -21.5 24 -21.5c10.667 0 20.5 4.83301 29.5 14.5s16.833 20.667 23.5 33s12.334 25 17.001 38l11 31.5c40.667 146 86.334 297.5 137.001 454.5l144 452.5
c50 6 98.333 9 145 9c15.333 0 30.333 -0.333008 45 -1c60 -2.66699 114 -7.33398 162 -14.001s89.167 -14.5 123.5 -23.5s58.166 -17.5 71.499 -25.5l-153 -427l-164 -461.5l-165.5 -473.5l-158.5 -461c-49.333 -6.66699 -102.666 -12.334 -159.999 -17.001
s-115 -8.5 -173 -11.5s-115.667 -4.83301 -173 -5.5h-34c-44.667 0 -86.667 1 -126 3c-27.333 80.667 -56.333 171.834 -87 273.501s-61 208.5 -91 320.5s-59 226.333 -87 343s-54 230.334 -78 341.001s-45.167 215.5 -63.5 314.5s-32.833 186.167 -43.5 261.5z" />
    <glyph glyph-name="W" unicode="W" horiz-adv-x="2678" 
d="M80 1855c98.667 18 198.666 30.9971 299.999 38.9971c27.333 2 55 3 83 3c76 0 154.333 -7.66699 235 -23c24.667 -132.667 48 -265.167 70 -397.5s43 -266.166 63 -401.499c2.66699 -13.333 12.334 -21.833 29.001 -25.5s27 -0.5 31 9.5
c20.667 54.667 41.834 118.834 63.501 192.501l65.5 225l62.5 225c19.667 73.667 37.834 137.834 54.501 192.501c94 8 189.667 14.667 287 20c21.333 1.33301 42.666 1.66602 63.999 0.999023c75.333 0 149.333 -7 222 -21l124.5 -393
c41 -129.333 80.833 -261.666 119.5 -396.999c2.66699 -6.66699 7 -13.834 13 -21.501s12.833 -11.167 20.5 -10.5s15.167 7.16699 22.5 19.5s13.333 33.5 18 63.5c32.667 248.667 62.667 500.667 90 756c62 13.333 127 20 195 20c17.333 0.666992 35 0.333984 53 -0.999023
c87.333 -4 177.333 -10.333 270 -19c-4 -95.333 -11.833 -200.5 -23.5 -315.5s-25.667 -232.833 -42 -353.5s-33.833 -241.5 -52.5 -362.5l-55.5 -344l-52 -299c-16.333 -91 -30.833 -166.5 -43.5 -226.5c-74 -5.33301 -144.333 -10 -211 -14
s-132.334 -7.33301 -197.001 -10s-129.5 -4.33398 -194.5 -5.00098s-132.833 -1 -203.5 -1c-2.66699 13.333 -6.83398 37.333 -12.501 72l-19.5 124l-24.5 153l-26 154.5l-23.5 134c-7.33301 40.333 -13 69.5 -17 87.5c-5.33301 24.667 -13.166 42.667 -23.499 54
s-21 16.666 -32 15.999s-21.333 -7.16699 -31 -19.5s-17.834 -29.166 -24.501 -50.499c-8 -32.667 -19.167 -76 -33.5 -130l-47 -180.5l-52.5 -209c-18 -73 -35 -145.167 -51 -216.5c-75.333 -5.33301 -144.666 -9.33301 -207.999 -12c-50.667 -2 -100 -3 -148 -3h-36
c-59.333 0.666992 -119.166 2.66699 -179.499 6s-123.833 6.33301 -190.5 9c-34 158.667 -63.667 316.5 -89 473.5s-49 313.667 -71 470l-65.5 471c-21.667 157.667 -46.834 314.834 -75.501 471.501z" />
    <glyph glyph-name="X" unicode="X" horiz-adv-x="1916" 
d="M47 -57c24.667 69.333 53.998 144.334 87.998 225.001s71.833 163.667 113.5 249s85.5 170.666 131.5 255.999s92 164.666 138 237.999c-19.333 27.333 -41.166 65.333 -65.499 114l-78.5 160c-28 58 -55.667 119.667 -83 185l-77 190.5
c-24 61.667 -45.167 119.834 -63.5 174.501s-32.166 100.334 -41.499 137.001c36.667 5.33301 80.834 11 132.501 17l159.5 18.5c54.667 6.33301 108.334 10.5 161.001 12.5c22.667 0.666992 44 1 64 1c26.667 0 50.667 -0.666992 72 -2l54.5 -114.5l53 -111l46 -97.5
l33.5 -72c1.33301 -5.33301 5 -12.833 11 -22.5s13.167 -20 21.5 -31s16.833 -20.5 25.5 -28.5s16.667 -12 24 -12c22 0 39.667 9.5 53 28.5s23 33.167 29 42.5c12 23.333 27.5 52 46.5 86l62.5 109.5l69 118l65 114.5c44.667 4.66699 89.334 7 134.001 7
c21.333 0 43.333 -0.666992 66 -2c66.667 -3.33301 128.167 -8.33301 184.5 -15s104.666 -13.834 144.999 -21.501s68.166 -13.5 83.499 -17.5c-49.333 -95.333 -98.166 -185 -146.499 -269l-142.5 -242l-138.5 -224.5l-134.5 -216.5l123 -226l137.5 -251l138 -246
l124.5 -215l-171.5 -18.5l-183.5 -20.5c-59.333 -6 -111 -11 -155 -15c-19.333 -1.33301 -35.333 -2.33301 -48 -3c-16.667 0 -28 1.33301 -34 4l-62.5 113.5l-72.5 124l-69 111.5l-50 76c-4 8 -10.5 19.667 -19.5 35s-20.833 23 -35.5 23c-22 0 -39.5 -10 -52.5 -30
s-22.833 -34.667 -29.5 -44l-124 -204.5c-44.667 -73.667 -81.334 -145.5 -110.001 -215.5c-66.667 -6.66699 -133.167 -10 -199.5 -10s-126.833 1.33301 -181.5 4s-101.334 6.5 -140.001 11.5s-65.667 8.83301 -81 11.5z" />
    <glyph glyph-name="Y" unicode="Y" horiz-adv-x="1974" 
d="M74 1872c52 2.66699 111.001 6.99512 177.001 12.9951s129.833 11.167 191.5 15.5s115.5 7.16602 161.5 8.49902c14.667 0.666992 28 1 40 1c22.667 0 38 -1 46 -3c8 -36.667 23.333 -80.667 46 -132s46.667 -102.666 72 -153.999l70.5 -141.5
c21.667 -43 36.167 -73.167 43.5 -90.5c1.33301 -5.33301 5 -12.833 11 -22.5s13.167 -20.334 21.5 -32.001s16.833 -21.667 25.5 -30s17.334 -12.5 26.001 -12.5c23.333 0 42.333 9 57 27s25 31.667 31 41c42 88.667 82.167 179.834 120.5 273.501
s81.166 184.167 128.499 271.5c59.333 3.33301 116.666 5 171.999 5h27c64 -0.666992 121.333 -3.16699 172 -7.5s93.667 -9.16602 129 -14.499s60.666 -10.666 75.999 -15.999c-49.333 -79.333 -101 -167.5 -155 -264.5l-166 -301l-170 -310l-164 -287.5
c-2.66699 -126.667 -5.5 -248.5 -8.5 -365.5s-6.5 -226.167 -10.5 -327.5c-46.667 -9.33301 -95 -15.666 -145 -18.999c-42 -2.66699 -84.333 -4 -127 -4h-26c-51.333 0.666992 -101.833 2.33398 -151.5 5.00098s-97.167 4 -142.5 4c0 122.667 -1.66699 244.5 -5 365.5
s-6.33301 242.833 -9 365.5c-30 38 -63.5 87.167 -100.5 147.5s-74.5 125.333 -112.5 195l-114.5 218c-38.333 75.667 -73.166 149.334 -104.499 221.001s-59 138.5 -83 200.5s-40.667 114.333 -50 157z" />
    <glyph glyph-name="Z" unicode="Z" horiz-adv-x="1556" 
d="M78 289c-1.33301 17.333 -1.99609 33.501 -1.99609 48.501s0.666992 28.833 2 41.5l194.5 301l199.5 317.5l178 295c54 93 96 169.5 126 229.5c-34.667 2.66699 -70 4 -106 4c-18.667 0 -36.667 -0.333008 -54 -1c-54.667 -2 -109 -3.66699 -163 -5
c-27.333 -0.666992 -54.666 -1 -81.999 -1s-54.333 0.333008 -81 1c-54 1.33301 -106.333 7.33301 -157 18c-18 62.667 -29 126.667 -33 192c-2.66699 38.667 -4 78.667 -4 120c0 27.333 0.666992 55 2 83c66.667 2.66699 152.667 9.5 258 20.5s218.666 19.167 339.999 24.5
c64 3.33301 128.667 5 194 5c58 0.666992 116.667 -0.333008 176 -3c126 -5.33301 243.667 -23 353 -53c1.33301 -30 3.5 -64.5 6.5 -103.5s5.16699 -78.5 6.5 -118.5c0.666992 -26.667 1 -53 1 -79v-38c-0.666992 -38.667 -4 -73.667 -10 -105
c-53.333 -114.667 -107.166 -220.167 -161.499 -316.5l-163.5 -276.5l-164 -257l-162 -258c45.333 -5.33301 98 -8.33301 158 -9s121.667 -1 185 -1s124.666 -0.166992 183.999 -0.5s111.666 -2.5 156.999 -6.5c2.66699 -29.333 4 -59 4 -89c0 -33.333 -1.66699 -67 -5 -101
c-6 -64 -16 -129 -30 -195c-106.667 -16.667 -216.167 -27.667 -328.5 -33s-223.833 -8 -334.5 -8s-217.834 2.16699 -321.501 6.5s-199.834 9.16602 -288.501 14.499c-10.667 32.667 -21.334 68.5 -32.001 107.5s-19.667 78 -27 117s-12.333 76.167 -15 111.5z" />
    <glyph glyph-name="bracketleft" unicode="[" horiz-adv-x="1077" 
d="M166 942c0 168 1.33301 331.499 4 490.499s6 302.167 10 429.5c56 10.667 118.5 21.5 187.5 32.5s138.667 19.167 209 24.5s139 8 206 8s127.167 -4.66699 180.5 -14l9 -82c3.33301 -31.333 6.33301 -63.833 9 -97.5s4.33398 -65.834 5.00098 -96.501
s-0.333008 -57.667 -3 -81c-34 -4 -72.167 -8 -114.5 -12s-81.166 -6.66699 -116.499 -8c-8 -80.667 -14.5 -172.5 -19.5 -275.5s-8.83301 -208.5 -11.5 -316.5s-3.66699 -213.5 -3 -316.5s3 -194.833 7 -275.5c56 -15.333 107.5 -25.333 154.5 -30
s82.833 -9.66699 107.5 -15c5.33301 -48 7.66602 -103 6.99902 -165s-4.33398 -117 -11.001 -165c-126.667 -13.333 -258.667 -17.666 -396 -12.999s-270.333 13.334 -399 26.001c-8 138 -13.667 289.167 -17 453.5s-5 330.5 -5 498.5z" />
    <glyph glyph-name="backslash" unicode="\" horiz-adv-x="1456" 
d="M45 1870c34 4 74.334 9.33105 121.001 15.998s94.5 12.834 143.5 18.501s97 9.83398 144 12.501s88.5 2.66699 124.5 0c20.667 -60 48.334 -134.333 83.001 -223l119.5 -298l145.5 -348.5l161.5 -368.5l168.5 -362l165 -329
c-45.333 -5.33301 -96.833 -11.833 -154.5 -19.5s-112.834 -14.5 -165.501 -20.5s-98.834 -10.833 -138.501 -14.5s-64.834 -4.16699 -75.501 -1.5c-15.333 34 -41 87.333 -77 160l-121.5 245l-140.5 286.5l-134 285.5l-53 119l-70 162l-76 184
c-26 64 -50.167 126.5 -72.5 187.5s-42.166 118 -59.499 171s-30 98.833 -38 137.5z" />
    <glyph glyph-name="bracketright" unicode="]" horiz-adv-x="1077" 
d="M159 1737c0.666992 61.333 4.33398 115.999 11.001 163.999c126.667 13.333 258.667 18 396 14s270.333 -12.333 399 -25c8 -138 13.667 -289.5 17 -454.5s5 -331.167 5 -498.5s-1.33301 -330.5 -4 -489.5s-6 -301.5 -10 -427.5c-56 -12 -118.5 -23.167 -187.5 -33.5
s-138.667 -18.833 -209 -25.5s-139 -10 -206 -10s-127.167 4.66699 -180.5 14c-2.66699 23.333 -5.66699 51 -9 83s-6.33301 64.5 -9 97.5s-4.33398 65.5 -5.00098 97.5s0.333008 59 3 81c34 4 72.167 8 114.5 12s81.166 6.66699 116.499 8c8 80.667 14.5 172.5 19.5 275.5
s8.83301 208.5 11.5 316.5s3.66699 213.833 3 317.5s-3 194.5 -7 272.5c-56 16.667 -107.5 27.334 -154.5 32.001s-82.833 9.66699 -107.5 15c-5.33301 48 -7.66602 102.667 -6.99902 164z" />
    <glyph glyph-name="asciicircum" unicode="^" horiz-adv-x="1458" 
d="M47 831c19.333 58.667 42.002 123.166 68.002 193.499s54.667 142.5 86 216.5s64.333 147.833 99 221.5s70 142.5 106 206.5c35.333 6.66699 82.333 11.5 141 14.5s119 4.83301 181 5.5s121 -0.166016 177 -2.49902s98.333 -4.16602 127 -5.49902l94.5 -194.5l104.5 -216
l104.5 -213l94.5 -187.5c-38 -4 -81.333 -9 -130 -15l-139.5 -17.5c-44.333 -5.66699 -83.666 -9.83398 -117.999 -12.501s-55.5 -2 -63.5 2l-47 97.5l-54.5 105.5l-52 96c-16.333 30 -29.5 52 -39.5 66c-2.66699 8 -7.33398 18.167 -14.001 30.5s-15.667 18.5 -27 18.5
c-18 0 -32 -8.16699 -42 -24.5s-17 -28.5 -21 -36.5l-94 -176.5c-34 -64.333 -62 -126.5 -84 -186.5c-50.667 -5.33301 -101.334 -8.33301 -152.001 -9s-96.667 0.333008 -138 3s-76.833 6 -106.5 10s-49.834 7.33301 -60.501 10z" />
    <glyph glyph-name="underscore" unicode="_" horiz-adv-x="1302" 
d="M103 224.5c2 43 6.50195 82.835 13.502 119.502s14.5 66.667 22.5 90l136 5c55.333 2 115.5 3.66699 180.5 5s132.667 2.5 203 3.5s137.5 1 201.5 0s123.333 -2.16699 178 -3.5s98.334 -4 131.001 -8c4 -22 8.16699 -52.333 12.5 -91s7.5 -78.834 9.5 -120.501
s2.66699 -82.334 2 -122.001s-3.66699 -70.5 -9 -92.5c-84.667 -5.33301 -171.334 -9.33301 -260.001 -12s-177.834 -4.66699 -267.501 -6s-178.834 -4.16602 -267.501 -8.49902s-174.667 -10.5 -258 -18.5c-12 39.333 -20.167 81.666 -24.5 126.999s-5.5 89.5 -3.5 132.5z
" />
    <glyph glyph-name="grave" unicode="`" horiz-adv-x="790" 
d="M51 1532c69.333 35.333 145 63.0029 227 83.0029s169 30 261 30l30.5 -93.5c12.333 -37.667 26.666 -77.334 42.999 -119.001s34.333 -84 54 -127s41.834 -82.167 66.501 -117.5c-22 -8 -45.5 -15.833 -70.5 -23.5s-50.833 -13.834 -77.5 -18.501
s-53 -8.83398 -79 -12.501s-50 -6.16699 -72 -7.5c-64 44 -128.5 103.833 -193.5 179.5z" />
    <glyph glyph-name="a" unicode="a" horiz-adv-x="1708" 
d="M63 317c2.66699 88.667 15 176.834 37 264.501s48.667 161.5 80 221.5c32.667 20.667 79.5 40.167 140.5 58.5s128.333 36.333 202 54s150.667 34 231 49l231.5 41.5c-4 16.667 -8 35.5 -12 56.5s-8 35.5 -12 43.5c-31.333 19.333 -75.166 33.666 -131.499 42.999
s-117.5 15.333 -183.5 18c-52.667 2 -106.334 3 -161.001 3h-41c-68 -0.666992 -129.333 -1 -184 -1c-0.666992 10 -1 21 -1 33c0 22.667 1 46.667 3 72c2.66699 37.333 7.16699 73.666 13.5 108.999s13.833 66.333 22.5 93s19.334 46 32.001 58
c93.333 9.33301 188.666 16.666 285.999 21.999c64 4 128 6 192 6c34.667 0 68.667 -0.666992 102 -2c98.667 -2.66699 195.5 -10.667 290.5 -24s187.167 -32.333 276.5 -57c26 -32.667 47.5 -82.167 64.5 -148.5s30.833 -142.5 41.5 -228.5s18.5 -178.167 23.5 -276.5
s7.83301 -194.833 8.5 -289.5v-57c0 -74.667 -1 -146.334 -3 -215.001c-2.66699 -86 -6 -159 -10 -219c-48 -13.333 -107.5 -26.166 -178.5 -38.499s-147.5 -23 -229.5 -32s-167 -16.5 -255 -22.5s-172.667 -10 -254 -12c-30.667 -0.666992 -60.334 -1 -89.001 -1
c-48 0 -93.333 1 -136 3c-69.333 3.33301 -126.333 9 -171 17l-60.5 83c-22.333 30.667 -44.166 62.334 -65.499 95.001s-40.833 64.834 -58.5 96.501s-31.5 59.5 -41.5 83.5zM688 458c1.33301 -25.333 4.5 -50.332 9.5 -74.999s10.833 -46.667 17.5 -66
c25.333 -10.667 57 -16 95 -16c9.33301 0 19.333 0.333008 30 1c52 3.33301 114.667 8.33301 188 15c-1.33301 61.333 -2.33301 120.166 -3 176.499s-2.33398 113.833 -5.00098 172.5c-54.667 -10.667 -107 -19.167 -157 -25.5s-100 -21.833 -150 -46.5
c-10 -17.333 -17 -38 -21 -62c-3.33301 -18 -4.66602 -36.667 -3.99902 -56v-18z" />
    <glyph glyph-name="b" unicode="b" horiz-adv-x="1847" 
d="M144 480l-0.00195312 73.002c0 86 0.666992 177 2 273c2.66699 124 5 247.667 7 371s4.33301 242.333 7 357s4.66699 217.334 6 308.001c44 13.333 92.5 25.833 145.5 37.5s105.833 20.834 158.5 27.501c53.333 6 104 11 152 15c28 2 53.333 3 76 3
c16.667 0 32.334 -0.333008 47.001 -1l-6 -135.5c-2.66699 -59 -4.66699 -119.833 -6 -182.5s-2 -120 -2 -172s0.666992 -87.333 2 -106c23.333 5.33301 58.5 9.66602 105.5 12.999s98.167 6.66602 153.5 9.99902s111 5.66602 167 6.99902s104.667 2 146 2
c39.333 -15.333 81.166 -41.333 125.499 -78s88 -79.5 131 -128.5s82.833 -100.5 119.5 -154.5s66 -105 88 -153c-5.33301 -57.333 -13.833 -126.833 -25.5 -208.5s-25.667 -161.834 -42 -240.501s-35 -150.167 -56 -214.5s-43.833 -107.166 -68.5 -128.499l-129 -25.5
c-53.333 -10.333 -111 -20 -173 -29s-126.167 -17.5 -192.5 -25.5s-128.833 -13.667 -187.5 -17c-109.333 -6.66699 -215 -10 -317 -10c-25.333 0 -50.666 0.333008 -75.999 1c-125.333 2 -239.333 15.333 -342 40c-5.33301 40.667 -9.16602 102.667 -11.499 186
s-3.83301 178.666 -4.5 285.999zM731.998 603.002c0.666992 -54 2.33008 -103.5 4.99707 -148.5s6.33398 -80.5 11.001 -106.5c18.667 -4 38 -6 58 -6h16c25.333 1.33301 51.333 3.33301 78 6s52.334 7.16699 77.001 13.5s46.334 12.833 65.001 19.5
c15.333 22 27.5 53.5 36.5 94.5s15.833 86 20.5 135s7.33398 98.833 8.00098 149.5v49c0 31.333 -0.333008 60.666 -1 87.999c-13.333 12 -35.166 22.167 -65.499 30.5s-63.5 13.833 -99.5 16.5c-16 1.33301 -32 2 -48 2c-20.667 0 -40.334 -1 -59.001 -3
c-34.667 -3.33301 -64.334 -9.66602 -89.001 -18.999c-5.33301 -48 -9 -100 -11 -156c-1.33301 -42 -2 -83.333 -2 -124v-41z" />
    <glyph glyph-name="c" unicode="c" horiz-adv-x="1511" 
d="M68 471c-2 34 -3.00098 68.668 -3.00098 104.001c0.666992 46 2.33398 93.667 5.00098 143c5.33301 86.667 15.166 170.667 29.499 252s32.666 156.666 54.999 225.999s47.833 125.333 76.5 168c35.333 19.333 85.5 37.833 150.5 55.5s136.833 33.334 215.5 47.001
s160.334 25.5 245.001 35.5c85.333 10.667 165.333 18 240 22c45.333 2.66699 87 4 125 4c26 0 50.333 -0.666992 73 -2c57.333 -2.66699 97.666 -9 120.999 -19c4 -30 8.33301 -76.333 13 -139c1.33301 -16 2 -32.667 2 -50c0 -48.667 -5 -99.667 -15 -153
c-62.667 -4 -122.334 -7.33301 -179.001 -10s-110.667 -6.33398 -162 -11.001s-101.166 -11.5 -149.499 -20.5s-97.166 -23.833 -146.499 -44.5c-13.333 -48 -26.666 -103 -39.999 -165c-12 -62 -21.333 -124 -28 -186c-4 -38 -6 -75 -6 -111
c0 -22.667 0.666992 -44.667 2 -66c4 -56 16.333 -101 37 -135c22 -12 52.5 -21.833 91.5 -29.5s82.333 -13.667 130 -18s97.167 -7.5 148.5 -9.5s99.833 -3.66699 145.5 -5s86 -3.33301 121 -6s59.167 -6.66699 72.5 -12c0.666992 -9.33301 1 -19.333 1 -30
c0 -21.333 -1 -44.666 -3 -69.999c-2.66699 -37.333 -7.16699 -73 -13.5 -107s-14 -64.667 -23 -92s-19.5 -45 -31.5 -53c-95.333 0 -195.333 1.66699 -300 5s-209.5 9.33301 -314.5 18s-208.333 22.667 -310 42s-197.5 44 -287.5 74
c-26 31.333 -46.167 77.666 -60.5 138.999s-23.5 131 -27.5 209z" />
    <glyph glyph-name="d" unicode="d" horiz-adv-x="1898" 
d="M92 375c-4.66699 27.333 -7.00293 57.998 -7.00293 91.998s2.33301 71 7 111c9.33301 81.333 26 164 50 248s54.167 163.333 90.5 238s76.833 133.667 121.5 177c61.333 12 124.166 25.333 188.499 40s129.5 27.334 195.5 38.001c65.333 11.333 132 19.666 200 24.999
c40 3.33301 80.333 5 121 5c28.667 0 57.334 -1 86.001 -3c0 38 0.666992 81.167 2 129.5l4 146.5c1.33301 49.333 3 96.833 5 142.5s3.66699 85.5 5 119.5c39.333 16.667 85.333 27.667 138 33c38 4 76.667 6 116 6c14.667 0 29.667 -0.333008 45 -1
c54.667 -2 107.334 -7.5 158.001 -16.5s93.667 -20.167 129 -33.5c0 -139.333 0.333008 -291.666 1 -456.999v-249.5v-253.5c-0.666992 -170 -2.66699 -335.167 -6 -495.5s-10.666 -305.166 -21.999 -434.499c-70.667 -18 -146.667 -31.833 -228 -41.5
s-163.666 -16.167 -246.999 -19.5c-52 -2 -104 -3 -156 -3c-31.333 0 -62.333 0.333008 -93 1c-82.667 2 -161.167 6.16699 -235.5 12.5s-142.5 12.5 -204.5 18.5s-114.333 11.667 -157 17c-57.333 49.333 -111.833 112.5 -163.5 189.5zM713.997 593.998
c-4 -36.667 -6.33203 -71.332 -6.99902 -103.999c0 -50 4.66699 -96.667 14 -140c24.667 -8 54 -14 88 -18s70.167 -6 108.5 -6s76.166 2 113.499 6s72 10 104 18c4 9.33301 6.66699 38.666 8 87.999c0.666992 32.667 1 68 1 106v59
c-0.666992 60.667 -1.66699 119.667 -3 177s-2.66602 98.333 -3.99902 123c-48 13.333 -100.333 20 -157 20c-10.667 0 -20.667 -0.333008 -30 -1c-68 -2.66699 -130 -17.667 -186 -45c-22.667 -98 -39.334 -192.333 -50.001 -283z" />
    <glyph glyph-name="e" unicode="e" horiz-adv-x="1771" 
d="M78 477c-2 33.333 -3.00195 67.666 -3.00195 102.999c0 46.667 1.66699 94.667 5 144c5.33301 86.667 15.166 170.667 29.499 252s32.5 156.833 54.5 226.5s47.333 125.5 76 167.5c35.333 19.333 88.166 37.833 158.499 55.5s148.833 33.334 235.5 47.001
s177.334 25.5 272.001 35.5c93.333 10.667 181.333 18 264 22c49.333 2.66699 95.333 4 138 4c28 0 54.667 -0.666992 80 -2c62.667 -2.66699 106 -9 130 -19c31.333 -54.667 58.5 -117.334 81.5 -188.001s41.833 -145.334 56.5 -224.001s25.334 -159.334 32.001 -242.001
c5.33301 -60 7.66602 -118.667 6.99902 -176c0 -22 -0.333008 -43.667 -1 -65c-44 -6.66699 -104.833 -14 -182.5 -22s-162.667 -15.5 -255 -22.5s-187.333 -13.167 -285 -18.5s-187.5 -9.33301 -269.5 -12c2.66699 -24.667 6.83398 -47.334 12.501 -68.001
s13.167 -38.334 22.5 -53.001c20.667 -12 52.167 -23.167 94.5 -33.5s89.5 -18.666 141.5 -24.999s106.333 -12.166 163 -17.499s109.834 -10 159.501 -14s93.334 -8.16699 131.001 -12.5s63.167 -9.16602 76.5 -14.499c0.666992 -9.33301 1 -19.333 1 -30
c0 -21.333 -1 -44.333 -3 -69c-2.66699 -37.333 -7 -73.166 -13 -107.499s-13.5 -65.166 -22.5 -92.499s-19.5 -45 -31.5 -53c-94 0 -196.333 3.33301 -307 10s-222 16.834 -334 30.501s-222 32.167 -330 55.5s-207 50 -297 80c-26 31.333 -46.167 77.666 -60.5 138.999
s-23.5 131 -27.5 209zM710.998 854c14.667 -0.666992 29.332 -1.00098 43.999 -1.00098c59.333 -0.666992 115.333 3.66602 168 12.999c66 10.667 123 22.334 171 35.001c1.33301 16 2 32.333 2 49c0 24 -1.33301 48 -4 72c-4 42.667 -14.333 80.334 -31 113.001
c-23.333 -1.33301 -45.5 -2.5 -66.5 -3.5s-42.833 -2.83301 -65.5 -5.5s-46.667 -6.66699 -72 -12s-53.666 -15 -84.999 -29c-12 -39.333 -23.5 -74.333 -34.5 -105s-19.833 -72.667 -26.5 -126z" />
    <glyph glyph-name="f" unicode="f" horiz-adv-x="1597" 
d="M108 1025c2 36 4.66992 69.3359 8.00293 100.003s7 55.667 11 75c27.333 2.66699 69 5 125 7s116.667 3 182 3c2.66699 74 6.83398 144.5 12.501 211.5s12.5 128.167 20.5 183.5s17.833 102.333 29.5 141s25.167 68.334 40.5 89.001
c88.667 32.667 170.167 57.5 244.5 74.5s147.666 29.667 219.999 38s146.666 13.166 222.999 14.499s161.166 2.66602 254.499 3.99902c12 -8 22.5 -24.333 31.5 -49s16.5 -52.667 22.5 -84s10.333 -65 13 -101c2 -23.333 3 -45 3 -65c0 -10 -0.333008 -19.667 -1 -29
c-76.667 -5.33301 -155.834 -16.833 -237.501 -34.5s-153.834 -46.834 -216.501 -87.501c-12 -22 -22.167 -51.833 -30.5 -89.5s-15.5 -96.834 -21.5 -177.501c38 -6.66699 73.5 -10.667 106.5 -12s65.167 -2 96.5 -2s63 0.333008 95 1h20c26 0 52.667 -1 80 -3
c8 -35.333 13.333 -66.666 16 -93.999c2 -22 3 -44 3 -66v-16c-0.666992 -27.333 -3.66699 -54.666 -9 -81.999s-12 -58 -20 -92c-49.333 -6.66699 -88.666 -11.167 -117.999 -13.5s-57 -4.83301 -83 -7.5s-53.667 -6 -83 -10s-68.666 -11 -117.999 -21
c-1.33301 -68 -2 -142.333 -2 -223v-233.5c0 -75 0.333008 -144.167 1 -207.5s1.66699 -111.333 3 -144c-44 -9.33301 -91.833 -16.833 -143.5 -22.5s-103.834 -9.83398 -156.501 -12.501c-42 -2 -82.667 -3 -122 -3h-30c-48 0.666992 -90.333 3.66699 -127 9
c-2.66699 35.333 -5.5 82.666 -8.5 141.999s-5.83301 125.833 -8.5 199.5s-4.66699 152.834 -6 237.501s-2 171.667 -2 261c-56 -2.66699 -110 -5.5 -162 -8.5s-99 -7.83301 -141 -14.5c-6.66699 32.667 -11 67.667 -13 105c-2 21.333 -3 42.666 -3 63.999
c0 14.667 0.333008 29.667 1 45z" />
    <glyph glyph-name="g" unicode="g" horiz-adv-x="1751" 
d="M68 599c-2 32 -2.99316 64.332 -2.99316 96.999c0 44 1.66699 88.667 5 134c5.33301 81.333 15.166 160.333 29.499 237s32.666 148.667 54.999 216s47.833 122.333 76.5 165c49.333 26 109.833 48.833 181.5 68.5s149.167 35.667 232.5 48s169.666 22 258.999 29
s177.666 10.5 264.999 10.5s170.666 -2.83301 249.999 -8.5s149.666 -13.834 210.999 -24.501c1.33301 -19.333 2.33301 -63 3 -131c0.666992 -33.333 1 -69.666 1 -108.999s-0.333008 -81.666 -1 -126.999c-0.666992 -90 -1.66699 -186.833 -3 -290.5
s-3.33301 -202.334 -6 -296.001s-6.33398 -177 -11.001 -250s-10 -123.833 -16 -152.5c-10.667 -56 -24.167 -111 -40.5 -165s-36.166 -103.167 -59.499 -147.5s-50.666 -83.166 -81.999 -116.499s-66.666 -57.666 -105.999 -72.999
c-66.667 -24.667 -145.834 -45.5 -237.501 -62.5s-186 -31.333 -283 -43s-192.333 -20.5 -286 -26.5s-175.167 -10.333 -244.5 -13c-20.667 52 -36.334 110.333 -47.001 175c-8 47.333 -12 91.333 -12 132c0 15.333 0.666992 30.333 2 45l167 13.5c62 5 125 11.167 189 18.5
s126.5 16.5 187.5 27.5s115.167 24.5 162.5 40.5c12 10.667 23.167 33.834 33.5 69.501s19.166 77.5 26.499 125.5c-66.667 -3.33301 -133.334 -5 -200.001 -5c-74 0 -147.333 2 -220 6c-139.333 7.33301 -269.666 27.333 -390.999 60
c-26 27.333 -46.167 69.666 -60.5 126.999s-23.5 122.666 -27.5 195.999zM692.007 729.999c4 -42.667 16.333 -80.665 37 -113.998c24.667 -12 61 -20 109 -24c36.667 -2.66699 76 -4 118 -4h43c5.33301 105.333 8.83301 211.166 10.5 317.499s2.5 212.166 2.5 317.499
c-44 -5.33301 -86.167 -12.5 -126.5 -21.5s-80.833 -21.833 -121.5 -38.5l-39.5 -147.5c-13 -50.333 -22.5 -99.5 -28.5 -147.5c-4 -30 -6 -58.667 -6 -86c0 -18 0.666992 -35.333 2 -52z" />
    <glyph glyph-name="h" unicode="h" horiz-adv-x="1755" 
d="M105 722c0.666992 111.333 2.16992 218.166 4.50293 320.499l6.5 281.5c2 85.333 3.66699 152.666 5 201.999c22 5.33301 50.333 10.333 85 15s72.667 9 114 13c40 3.33301 81.333 5.33301 124 6h61h56c35.333 -0.666992 65 -2.83398 89 -6.50098
s38.667 -8.83398 44 -15.501c-13.333 -82 -20 -169.667 -20 -263v-265c28 -6.66699 63.333 -10 106 -10c3.33301 0 6.33301 -0.333008 9 -1c40.667 0.666992 81 3 121 7c44 4 83.5 9.33301 118.5 16s59.5 12.667 73.5 18c5.33301 24.667 8 57.834 8 99.501
s-0.666992 85.667 -2 132l-4 141.5c-0.666992 16 -1 31.333 -1 46c0 29.333 1 55.666 3 78.999c19.333 9.33301 53.166 17.5 101.499 24.5s100.166 12.167 155.499 15.5s107.5 5 156.5 5s84.5 -2.66699 106.5 -8c6.66699 -67.333 11 -148.333 13 -243
c1.33301 -71.333 2 -145.666 2 -222.999v-78c-0.666992 -106 -2 -213.833 -4 -323.5s-4.33301 -212.667 -7 -309s-5.33398 -182.666 -8.00098 -258.999l-6 -174.5c-24.667 -4 -62.667 -7 -114 -9s-104.166 -3 -158.499 -3s-104.833 0.333008 -151.5 1
s-78 2.33398 -94 5.00098c-1.33301 20.667 -2 43.667 -2 69c0 18.667 0.333008 38.334 1 59.001c2 48.667 3.66699 99 5 151c0.666992 26 1 51.667 1 77s-0.333008 50.666 -1 75.999c-1.33301 50.667 -6.33301 96.334 -15 137.001c-18 1.33301 -47 3.33301 -87 6
c-32.667 2.66699 -66.667 4 -102 4h-24c-44 -0.666992 -84.333 -4.5 -121 -11.5s-59 -19.5 -67 -37.5c-6.66699 -88.667 -11.334 -177.667 -14.001 -267c-1.33301 -44.667 -2 -89.167 -2 -133.5s0.666992 -88.833 2 -133.5c-81.333 -16.667 -170 -26 -266 -28
c-22 -0.666992 -43.667 -1 -65 -1c-72 0 -141.333 2.66699 -208 8c-6.66699 45.333 -12 109.333 -16 192c-3.33301 82.667 -6.33301 174.667 -9 276c-2 79.333 -3 161.333 -3 246v74z" />
    <glyph glyph-name="i" unicode="i" horiz-adv-x="806" 
d="M129 1716c1.33301 26 3.66797 51.3379 7.00098 76.0049s6.33301 43.667 9 57c4 24.667 17.333 45.834 40 63.501s48.334 32.667 77.001 45s57.667 21.666 87 27.999l71 15.5c8 1.33301 16.667 2 26 2c8 0 17.333 -0.666992 28 -2
c21.333 -2.66699 42.833 -6.83398 64.5 -12.501s43.167 -11.834 64.5 -18.501s38.666 -14 51.999 -22c19.333 -46.667 33.666 -96 42.999 -148c5.33301 -30 8 -60 8 -90c0 -21.333 -1.33301 -43 -4 -65c-8 -16.667 -26.667 -31.834 -56 -45.501
s-63.333 -24.834 -102 -33.501c-37.333 -8 -78 -14.333 -122 -19c-30.667 -3.33301 -60 -5 -88 -5c-12 0 -23.667 0.333008 -35 1c-38 2 -71 6.16699 -99 12.5s-46.333 16.166 -55 29.499c-8 15.333 -13 34.333 -15 57c-1.33301 14 -2 28.667 -2 44
c0 9.33301 0.333008 19.333 1 30zM144.002 688.005c-0.666992 44 -1.00098 87.333 -1.00098 130c0 185.333 3.66699 360.333 11 525c40.667 8 83.5 14.167 128.5 18.5s90.333 7.5 136 9.5s90.834 3 135.501 3h126c0 -118.667 -1 -232 -3 -340s-5 -215.5 -9 -322.5
s-8.5 -215.5 -13.5 -325.5s-10.833 -225.667 -17.5 -347c-15.333 -8 -44.833 -14.5 -88.5 -19.5s-90 -9.16699 -139 -12.5s-96.333 -5 -142 -5s-78.167 0.666992 -97.5 2c-15.333 222.667 -24 450.667 -26 684z" />
    <glyph glyph-name="j" unicode="j" horiz-adv-x="882" 
d="M-454 -262c-0.666992 16 -1.00391 32.332 -1.00391 48.999c0 47.333 5 99.333 15 156c50.667 1.33301 99.834 2.33301 147.501 3s95 3.66699 142 9s94 13.5 141 24.5s94.5 26.833 142.5 47.5c9.33301 32.667 16.833 82.334 22.5 149.001s9.83398 142.667 12.501 228
s4 176.5 4 273.5s-1 192.667 -3 287s-5 183.5 -9 267.5s-9.66699 156.667 -17 218c32.667 8 72 16.167 118 24.5s95 14.5 147 18.5c34 2.66699 69 4 105 4c18 0 36.333 -0.333008 55 -1c55.333 -2 109 -7.66699 161 -17c8 -50.667 13 -120.334 15 -209.001
c2 -52 3 -106.667 3 -164c0 -41.333 -0.333008 -84.333 -1 -129c-2 -106.667 -5.33301 -217.334 -10 -332.001s-9.66699 -224.167 -15 -328.5s-11.166 -198.833 -17.499 -283.5s-12.166 -149 -17.499 -193c-26 -40.667 -69 -76.667 -129 -108
s-127.833 -57.666 -203.5 -78.999s-155.167 -38.166 -238.5 -50.499s-162.333 -20.5 -237 -24.5c-36.667 -2 -71.5 -3 -104.5 -3s-64.167 1 -93.5 3c-57.333 4 -97.333 11.667 -120 23c-4 31.333 -8.66699 77 -14 137zM161.996 1816
c1.33301 26 3.66309 51.334 6.99609 76.001s6.33301 44 9 58c4 24.667 17.333 45.834 40 63.501s48.334 32.667 77.001 45s57.334 21.5 86.001 27.5l70 15c8.66699 1.33301 17.667 2 27 2s19.333 -0.666992 30 -2c20.667 -2.66699 41.834 -6.66699 63.501 -12
s42.834 -11.5 63.501 -18.5s38.334 -14.5 53.001 -22.5c19.333 -46.667 33.666 -96 42.999 -148c5.33301 -30.667 8 -61.667 8 -93c0 -22 -1.33301 -44 -4 -66c-9.33301 -16.667 -28.333 -31.167 -57 -43.5s-62.5 -22.833 -101.5 -31.5s-79.833 -15.334 -122.5 -20.001
c-28 -2.66699 -55.333 -4 -82 -4c-14 0 -28 0.666992 -42 2c-38.667 2 -71.667 6 -99 12s-45 16 -53 30c-8 15.333 -13 34.666 -15 57.999c-1.33301 13.333 -2 27.333 -2 42c0 10 0.333008 20 1 30z" />
    <glyph glyph-name="k" unicode="k" horiz-adv-x="1722" 
d="M103 582c0.666992 129.333 2.16309 262.001 4.49609 398.001s4.83301 263.667 7.5 383s5.33398 224.5 8.00098 315.5s4.66699 154.833 6 191.5c34 6.66699 78.667 10.667 134 12c36.667 0.666992 74 1 112 1h56c56.667 -0.666992 107.834 -2 153.501 -4
s76.834 -3.66699 93.501 -5c-1.33301 -23.333 -2.66602 -57.5 -3.99902 -102.5s-2.33301 -96.167 -3 -153.5s-1 -117.5 -1 -180.5s0.333008 -123.167 1 -180.5s2.33398 -109.833 5.00098 -157.5s6 -84.5 10 -110.5c2.66699 -18 12 -27.667 28 -29h2c15.333 0 34 13 56 39
l76 104.5l98 139.5l101.5 146.5l85.5 123.5h27c32 0 65.333 -1.66699 100 -5c45.333 -4.66699 91.666 -11 138.999 -19s94.5 -17.167 141.5 -27.5l136.5 -29.5c-19.333 -28.667 -47 -72.5 -83 -131.5l-116.5 -188.5l-125 -203.5c-41.667 -69 -76.834 -129.5 -105.501 -181.5
c27.333 -64 58.5 -124.333 93.5 -181s70.833 -111.667 107.5 -165l110.5 -160c37 -53.333 70.5 -109.333 100.5 -168c-32.667 -10.667 -74.667 -21.167 -126 -31.5s-103.666 -18.5 -156.999 -24.5s-104.166 -11.167 -152.499 -15.5l-115.5 -10.5
c-44 56 -85.667 111.667 -125 167l-107.5 153.5l-84 125c-23.667 36.333 -43.167 62.833 -58.5 79.5c-12 6.66699 -22.333 10 -31 10c-6.66699 0 -13 -2 -19 -6s-9 -14.333 -9 -31c0 -26 0.333008 -58.5 1 -97.5s1 -79.667 1 -122s-0.333008 -85 -1 -128
s-2.33398 -80.833 -5.00098 -113.5c-19.333 -9.33301 -55 -16.833 -107 -22.5s-107.333 -10.167 -166 -13.5s-114.167 -5 -166.5 -5s-89.5 2.66699 -111.5 8c-6 61.333 -10.333 145.666 -13 252.999c-2.66699 88 -3.66699 183 -3 285v69z" />
    <glyph glyph-name="l" unicode="l" horiz-adv-x="905" 
d="M157 1602c0.666992 101.333 2.99805 182.998 6.99805 244.998c10.667 4 30.334 8.5 59.001 13.5s62.5 8.83301 101.5 11.5s80.667 4.33398 125 5.00098l128.5 2h39c25.333 0 49.333 -0.333008 72 -1c33.333 -1.33301 58.333 -2.66602 75 -3.99902
c-1.33301 -64 -2.66602 -151.333 -3.99902 -262s-2.33301 -230.167 -3 -358.5s-1 -260.833 -1 -397.5v-380v-303v-169l-116 -13c-30.667 -3.33301 -64.667 -5.33301 -102 -6h-23c-32.667 0 -69.667 1 -111 3c-52 2.66699 -124 6 -216 10
c-1.33301 53.333 -3.33301 127.333 -6 222s-5.33398 200.167 -8.00098 316.5s-5.66699 238.333 -9 366s-5.66602 250.834 -6.99902 369.501c-0.666992 79.333 -1 154.666 -1 225.999v104z" />
    <glyph glyph-name="m" unicode="m" horiz-adv-x="2275" 
d="M76 -39c-0.666992 33.333 -1.00586 70.001 -1.00586 110.001c0 39.333 0.333008 82.333 1 129c1.33301 93.333 4 190.166 8 290.499s8.66699 201.666 14 303.999s10.833 197.833 16.5 286.5s11.167 167.167 16.5 235.5s10 117.5 14 147.5
c35.333 10.667 76.333 20.167 123 28.5s94.834 15.666 144.501 21.999s99.5 11.5 149.5 15.5s95.5 7.33301 136.5 10s75.833 4 104.5 4s46.334 -0.666992 53.001 -2c31.333 -86 60.333 -172 87 -258s59.667 -168 99 -246c6.66699 -16.667 19 -28.667 37 -36
s35 -5.33301 51 6c6.66699 5.33301 17 20.666 31 45.999s29.833 56.333 47.5 93l55 117.5l54 121l45 103.5l28.5 65c36.667 9.33301 86.334 16.166 149.001 20.499s128.667 6.83301 198 7.5h34c57.333 0 113.333 -1.33301 168 -4
c66.667 -3.33301 121.667 -8.33301 165.001 -15c13.333 -259.333 24.5 -517.5 33.5 -774.5s21.833 -519.167 38.5 -786.5c-27.333 -12 -64.166 -21.167 -110.499 -27.5s-96.166 -10.166 -149.499 -11.499c-15.333 -0.666992 -30.666 -1 -45.999 -1
c-38.667 0 -77.667 1.33301 -117 4l-152 9c-1.33301 18 -3.16602 46.5 -5.49902 85.5s-5.16602 82 -8.49902 129s-6.33301 96.167 -9 147.5s-5.66699 98.5 -9 141.5s-6 79.833 -8 110.5s-4 48 -6 52c-9.33301 28.667 -22.5 41.334 -39.5 38.001s-29.5 -14 -37.5 -32
l-60 -119.5l-80 -163l-88 -182.5l-88 -180c-35.333 0 -70 -0.333008 -104 -1h-11c-30 0 -60.667 2.33301 -92 7c-32.667 52 -63.334 106.333 -92.001 163s-55.167 111.667 -79.5 165s-46.5 104.166 -66.5 152.499l-52 125.5c-6.66699 15.333 -18.334 25.333 -35.001 30
s-30.334 -1.66602 -41.001 -18.999c-5.33301 -9.33301 -10.5 -30.5 -15.5 -63.5s-8.83301 -71 -11.5 -114s-5 -89.5 -7 -139.5s-3.66699 -97.167 -5 -141.5s-2.33301 -84.166 -3 -119.499s-1 -60.666 -1 -75.999c-78 -13.333 -154.333 -20.333 -229 -21h-18
c-70 0 -144.667 3.66699 -224 11z" />
    <glyph glyph-name="n" unicode="n" horiz-adv-x="1904" 
d="M106 956.5c0 94.333 0.828125 184.499 2.49512 270.499s3.83398 161 6.50098 225c6.66699 6.66699 27.667 13.167 63 19.5s78.666 12.833 129.999 19.5s107 12.5 167 17.5s118 9.16699 174 12.5s107.167 5 153.5 5s80.5 -2 102.5 -6
c39.333 -110.667 83.333 -219.334 132 -326.001l145 -320c4 -9.33301 10.833 -17 20.5 -23s19.834 -8 30.501 -6s20.834 7.33301 30.501 16s17.167 22 22.5 40c1.33301 6.66699 3 33 5 79s3.66699 99.333 5 160s3.16602 121.334 5.49902 182.001l5.5 142
c78 18 156.333 29.667 235 35c39.333 2.66699 78.833 4 118.5 4s79.5 -1.33301 119.5 -4c2 -160 3 -320.667 3 -482c0 -80.667 -0.333008 -161 -1 -241c-1.33301 -242.667 -5.66602 -483.667 -12.999 -723c-39.333 -5.33301 -86.333 -11 -141 -17l-177 -19.5
c-63.333 -7 -129.166 -12.5 -197.499 -16.5s-136.5 -6.66699 -204.5 -8c-66.667 98 -127.167 200.667 -181.5 308s-105.166 216.333 -152.499 327c-5.33301 12 -13.833 21.167 -25.5 27.5s-23.667 8.33301 -36 6s-23.666 -8.16602 -33.999 -17.499
s-16.833 -24.333 -19.5 -45c-9.33301 -82.667 -15 -172 -17 -268c-0.666992 -22 -1 -44.667 -1 -68c0 -77.333 2.66699 -160.666 8 -249.999c-73.333 -19.333 -147.333 -30.333 -222 -33c-12.667 -0.666992 -26 -1 -40 -1c-62 0 -126.333 5.33301 -193 16
c-5.33301 40.667 -10 96.167 -14 166.5s-7 149.166 -9 236.499s-3.5 178.833 -4.5 274.5s-1.5 190.667 -1.5 285z" />
    <glyph glyph-name="o" unicode="o" horiz-adv-x="1802" 
d="M82 550l0.000976562 231.5c0 77 1 151.667 3 224s4.33301 135.833 7 190.5c16.667 16.667 38 39.334 64 68.001l81 87l80.5 81.5c25.667 25 47.5 43.167 65.5 54.5c62.667 4 138 9.66699 226 17c88.667 8 180.334 14 275.001 18c71.333 2.66699 141.666 4 210.999 4h69
c92 -1.33301 173.667 -9 245 -23c52 -40.667 102.167 -93.834 150.5 -159.501l132.5 -184.5c4 -56 7.66699 -125.333 11 -208s5.66602 -166.334 6.99902 -251.001c0.666992 -56.667 1 -110.334 1 -161.001v-73c-0.666992 -72 -3.66699 -125 -9 -159
c-39.333 -49.333 -77.833 -100.166 -115.5 -152.499s-78.5 -103.166 -122.5 -152.499c-65.333 -12 -147.5 -20.833 -246.5 -26.5s-202.833 -8.5 -311.5 -8.5s-216.167 2.16699 -322.5 6.5s-199.833 11.166 -280.5 20.499c-18 18 -37.5 41.167 -58.5 69.5s-41.667 59 -62 92
s-39.5 65.833 -57.5 98.5s-31.667 61.334 -41 86.001c-1.33301 62.667 -2 132.667 -2 210zM686.001 573.5c0 -49 0.666016 -92.668 1.99902 -131.001s2 -67.166 2 -86.499c29.333 -13.333 62.666 -21.666 99.999 -24.999c17.333 -1.33301 34.333 -2 51 -2
c20.667 0 41.667 1 63 3c38.667 4 74.834 12 108.501 24s60.834 26.333 81.501 43c2.66699 102 5.33398 215.667 8.00098 341c0.666992 17.333 1 34.666 1 51.999c0 108.667 -7.33301 219.334 -22 332.001c-35.333 -1.33301 -69 -2.33301 -101 -3
s-62.667 -2.33398 -92 -5.00098s-58.333 -7 -87 -13s-58 -16 -88 -30c-6.66699 -13.333 -11.834 -37.5 -15.501 -72.5s-6.5 -76 -8.5 -123s-3 -97.167 -3 -150.5v-153.5z" />
    <glyph glyph-name="p" unicode="p" horiz-adv-x="1851" 
d="M143 604c0 121.333 0.331055 238.002 0.998047 350.002s3.16699 215.5 7.5 310.5s9.16602 175.167 14.499 240.5c31.333 9.33301 79.166 17.5 143.499 24.5s136.333 12.167 216 15.5s163.5 5.33301 251.5 6c44 0.666992 87.167 1 129.5 1s84.166 -0.333008 125.499 -1
c82 -0.666992 156.833 -2.33398 224.5 -5.00098s119.834 -6 156.501 -10c50.667 -56 93.334 -112.333 128.001 -169s64.334 -115 89.001 -175s45.5 -123.5 62.5 -190.5s33.833 -138.833 50.5 -215.5c-2.66699 -24.667 -14.667 -59.5 -36 -104.5s-47.666 -92 -78.999 -141
s-65 -96.667 -101 -143s-70.667 -83.833 -104 -112.5c-58.667 -18 -120.667 -34.833 -186 -50.5s-130.833 -29.334 -196.5 -41.001s-128.5 -21.5 -188.5 -29.5s-114 -13.667 -162 -17c0 -38 0.666992 -79.167 2 -123.5l4 -133c1.33301 -44.333 2.33301 -87.833 3 -130.5v-26
c0 -33.333 -1 -65.333 -3 -96c-34 -4 -73.5 -8.16699 -118.5 -12.5s-91.333 -7.83301 -139 -10.5s-95.5 -4 -143.5 -4s-91.667 1.33301 -131 4l-9 291c-3.33301 108 -6.16602 221 -8.49902 339s-3.5 237.667 -3.5 359zM722.998 728.002c0 -55.333 2.66895 -107 8.00195 -155
c7.33301 -0.666992 15.333 -1 24 -1c16.667 0 36 1.33301 58 4c34 5.33301 69.833 14.166 107.5 26.499s74.167 28.333 109.5 48s64 43.167 86 70.5c-2.66699 82 -10.834 159.167 -24.501 231.5s-26.5 124.833 -38.5 157.5c-12 18 -31.167 31.333 -57.5 40
s-54.166 14.334 -83.499 17.001c-13.333 1.33301 -26.333 2 -39 2c-16 0 -32 -1 -48 -3c-28.667 -3.33301 -52.334 -9 -71.001 -17c-2.66699 -28.667 -6.83398 -66.167 -12.501 -112.5s-10.167 -95.5 -13.5 -147.5s-5 -105.667 -5 -161z" />
    <glyph glyph-name="q" unicode="q" horiz-adv-x="1847" 
d="M94 639c4 57.333 11.8291 126.669 23.4961 208.002s26 161.166 43 239.499s36.167 150 57.5 215s43.666 109.167 66.999 132.5l129 22c53.333 9.33301 111.333 18.5 174 27.5s126.834 17.667 192.501 26s127.834 13.833 186.501 16.5c117.333 6.66699 230.333 10 339 10
h54c125.333 -1.33301 240 -15 344 -41c5.33301 -40.667 9 -102.667 11 -186s3 -178.333 3 -285s-0.666992 -221.667 -2 -345s-3 -246.833 -5 -370.5s-4.33301 -242.834 -7 -357.501s-4.66699 -217 -6 -307c-45.333 -13.333 -94.166 -26.333 -146.499 -39
s-105.166 -22.334 -158.499 -29.001s-104 -11.667 -152 -15c-26.667 -2 -51.334 -3 -74.001 -3c-17.333 0 -33.666 0.666992 -48.999 2c2.66699 31.333 5 76.333 7 135s3.33301 119.667 4 183s1.66699 121.333 3 174v34c0 34 -1.33301 58 -4 72
c-23.333 -5.33301 -58.166 -10.166 -104.499 -14.499s-97.166 -8.16602 -152.499 -11.499s-111.333 -5.66602 -168 -6.99902s-105.334 -2 -146.001 -2c-38 15.333 -79.5 41.666 -124.5 78.999s-89 80.666 -132 129.999s-82.667 100.833 -119 154.5s-65.5 104.5 -87.5 152.5z
M756.996 743.003l0.000976562 -48.999c0 -31.333 0.333008 -60.666 1 -87.999c13.333 -12 35 -21.833 65 -29.5s63 -12.834 99 -15.501c15.333 -1.33301 31 -2 47 -2c20 0 39.667 1 59 3c35.333 3.33301 65.333 10 90 20c6.66699 48 10.667 100 12 156
c1.33301 27.333 2 54.666 2 81.999s-0.666992 54.333 -2 81c-1.33301 53.333 -3.33301 102.5 -6 147.5s-6 80.5 -10 106.5c-22 5.33301 -46.333 8 -73 8s-53.167 -2 -79.5 -6s-51.833 -9 -76.5 -15s-46.667 -12.667 -66 -20c-13.333 -22 -24.5 -53.333 -33.5 -94
s-15.833 -85.667 -20.5 -135s-7.33398 -99.333 -8.00098 -150z" />
    <glyph glyph-name="r" unicode="r" horiz-adv-x="1798" 
d="M127 772c-0.666992 46 -1.00586 90.667 -1.00586 134c0 65.333 0.666992 128 2 188c2 100 5.33301 188.167 10 264.5s11.334 129.5 20.001 159.5c34 9.33301 82 16.666 144 21.999s131.333 9 208 11c38.667 1.33301 78.334 1.83301 119.001 1.5
s82.334 -0.833008 125.001 -1.5c86 -2 170.167 -5 252.5 -9s159.833 -8.66699 232.5 -14s133.334 -12.333 182.001 -21c35.333 -30 71.5 -68.167 108.5 -114.5s69.5 -98.833 97.5 -157.5c28.667 -59.333 50.334 -123 65.001 -191c10.667 -47.333 15.667 -95.333 15 -144
c0 -22 -1 -44 -3 -66c-27.333 -32.667 -65.166 -74 -113.499 -124s-99.833 -99 -154.5 -147c16.667 -24.667 38.834 -61.834 66.501 -111.501l85.5 -154.5l80 -148.5c24 -45.667 39.333 -76.167 46 -91.5c-20.667 -10.667 -52.5 -22.167 -95.5 -34.5s-90 -24 -141 -35
s-103.167 -20.167 -156.5 -27.5s-101 -11.666 -143 -12.999c-28.667 31.333 -54.667 61 -78 89l-69 85l-66.5 87l-73.5 95c-9.33301 13.333 -19.833 26.5 -31.5 39.5s-23.667 24.667 -36 35s-25 18.333 -38 24s-27.167 5.5 -42.5 -0.5
c-18 -6.66699 -28.833 -20.167 -32.5 -40.5s-5.16699 -39.5 -4.5 -57.5v-157.5c0 -53 -1.33301 -106.167 -4 -159.5c-24.667 -6.66699 -56.667 -12.834 -96 -18.501s-83 -10.5 -131 -14.5s-99.5 -6 -154.5 -6s-110.5 2.66699 -166.5 8c-4 45.333 -7.83301 111.333 -11.5 198
s-6.83398 182.834 -9.50098 288.501s-4.66699 215.834 -6 330.501zM699.994 955.5c0 -35 1.16699 -68.5 3.5 -100.5s5.5 -59 9.5 -81c26 0 56.333 1.66699 91 5s70.167 8.5 106.5 15.5s70.5 16.5 102.5 28.5s58.333 27.667 79 47c1.33301 10.667 2 21.667 2 33
c0 12.667 -0.666992 26 -2 40c-2.66699 26.667 -6.5 53 -11.5 79s-9.83301 48.5 -14.5 67.5s-7.66699 31.833 -9 38.5c-13.333 13.333 -36.166 24.333 -68.499 33s-66.5 14.667 -102.5 18c-20 2 -39.667 3 -59 3c-15.333 0 -30.333 -0.666992 -45 -2
c-32.667 -2.66699 -57 -9 -73 -19c-2.66699 -30 -4.83398 -63 -6.50098 -99s-2.5 -71.5 -2.5 -106.5z" />
    <glyph glyph-name="s" unicode="s" horiz-adv-x="1529" 
d="M74 664c-1.33301 27.333 -2.00293 54.668 -2.00293 82.001c0 97.333 9.33301 194.666 28 291.999c24 125.333 63.667 243.666 119 354.999c88.667 30 181.167 55.5 277.5 76.5s193.666 37.667 291.999 50s196.166 20.833 293.499 25.5c62 2.66699 123.667 4 185 4
c34.667 0 69 -0.333008 103 -1c18 -53.333 29 -111.666 33 -174.999c3.33301 -47.333 5 -92.333 5 -135c0 -14 -0.333008 -28 -1 -42c-105.333 -15.333 -210.166 -27.333 -314.499 -36s-209.166 -22 -314.499 -40c-22 -31.333 -35.667 -65.333 -41 -102
s-8.66602 -73.667 -9.99902 -111c113.333 -20.667 226 -39.5 338 -56.5l340 -51.5c22 -46.667 36.333 -97.667 43 -153c4 -30.667 6 -61.667 6 -93c0 -24.667 -1.33301 -49.667 -4 -75c-5.33301 -56.667 -16.5 -112 -33.5 -166s-38.5 -102.667 -64.5 -146
c-87.333 -40.667 -178.833 -75.5 -274.5 -104.5s-192.334 -53 -290.001 -72s-195.667 -35.667 -294 -50s-195.166 -26.166 -290.499 -35.499c-12 6.66699 -22.5 27 -31.5 61s-16.167 71 -21.5 111c-6 40 -10.333 79.333 -13 118c-2 25.333 -3 45.666 -3 60.999
c0 7.33301 0.333008 13.666 1 18.999c52 4 109 9.16699 171 15.5s122.333 14.666 181 24.999s113 21.666 163 33.999s88 23.833 114 34.5c5.33301 16.667 9.33301 37.667 12 63c1.33301 12.667 2 25.167 2 37.5s-0.666992 23.833 -2 34.5c-15.333 10.667 -40 19.5 -74 26.5
s-73.167 13.833 -117.5 20.5s-91.666 12.834 -141.999 18.501s-99.166 11.834 -146.499 18.501s-90.333 14.834 -129 24.501s-69.667 22.167 -93 37.5z" />
    <glyph glyph-name="t" unicode="t" horiz-adv-x="1609" 
d="M37 934c-1.33301 24.667 -2.00391 49.998 -2.00391 75.998c0 38.667 1.66699 79.334 5 122.001c6 70.667 18.667 139 38 205c42 18 177 33 405 45c0 32.667 0.333008 71.334 1 116.001l2 135.5c0.666992 45.667 1.83398 90 3.50098 133s3.16699 78.833 4.5 107.5
c39.333 8 85.333 14 138 18s105.834 7.16699 159.501 9.5s106.5 3.5 158.5 3.5h138v-117c0 -45.333 -0.5 -91.833 -1.5 -139.5s-1.83301 -93.667 -2.5 -138s-1 -82.833 -1 -115.5h160c52 0 99.5 -0.333008 142.5 -1s80.333 -1.83398 112 -3.50098s54.167 -4.5 67.5 -8.5
c2.66699 -24.667 4 -53.334 4 -86.001s-1 -65.334 -3 -98.001s-5.16699 -63.667 -9.5 -93s-8.5 -53.666 -12.5 -72.999c-32.667 -4 -69.167 -7.33301 -109.5 -10l-122 -8c-41 -2.66699 -81.667 -4.66699 -122 -6s-76.833 -3.66602 -109.5 -6.99902
c-9.33301 -40.667 -16 -101 -20 -181s-7 -167.333 -9 -262c-1.33301 -70.667 -2 -142 -2 -214v-72c0.666992 -96 1.66699 -180.667 3 -254c-92.667 -12 -185.667 -25.333 -279 -40c-60 -9.33301 -119.333 -13.666 -178 -12.999c-33.333 0 -66.666 1.33301 -99.999 4
c-10.667 112 -18.667 207.333 -24 286c-4.66699 78 -7.66699 152.333 -9 223c-0.666992 35.333 -1 71 -1 107c0 36.667 0.333008 73 1 109c1.33301 73.333 2 159.333 2 258c-36.667 3.33301 -74 5 -112 5c-34.667 0 -69.667 -1.33301 -105 -4
c-75.333 -6 -145.666 -12.333 -210.999 -19z" />
    <glyph glyph-name="u" unicode="u" 
d="M110 1118c0.666992 69.333 1.99902 132.499 3.99902 189.499s5.66699 102.5 11 136.5c98 12 193 19 285 21h40c80.667 0 166.334 -5 257.001 -15c-8 -105.333 -13.333 -203.666 -16 -294.999c-2.66699 -74.667 -4 -147 -4 -217v-46c0.666992 -84 3 -164.5 7 -241.5
s9 -153.833 15 -230.5c24.667 -9.33301 54.667 -16 90 -20c24 -2.66699 48.333 -4.33398 73 -5.00098c10.667 0 22 0.333008 34 1c36 2 70.833 8.5 104.5 19.5s61.5 25.5 83.5 43.5c0 79.333 -0.666992 162 -2 248s-2.5 172.333 -3.5 259s-1.5 171.667 -1.5 255
s1 160.333 3 231c98 19.333 195.667 29 293 29s197.333 1.33301 300 4c-1.33301 -84.667 -3.33301 -176.834 -6 -276.501s-4.66699 -200.334 -6 -302.001s-2 -200 -2 -295s1.33301 -180.167 4 -255.5c-8 -24.667 -20.5 -51.667 -37.5 -81s-36.5 -59.666 -58.5 -90.999
s-44.5 -61.666 -67.5 -90.999s-44.833 -55.666 -65.5 -78.999c-69.333 -1.33301 -150.5 -4 -243.5 -8s-189.667 -7.66699 -290 -11s-200 -5 -299 -5s-190.167 3.33301 -273.5 10c-16.667 16.667 -35.834 39 -57.501 67s-43.167 57.667 -64.5 89s-40.5 62.666 -57.5 93.999
s-29.5 58.666 -37.5 81.999c0 40.667 -0.666992 91.834 -2 153.501s-2.66602 127.834 -3.99902 198.501l-4 218c-0.666992 49.333 -1 98 -1 146v70z" />
    <glyph glyph-name="v" unicode="v" horiz-adv-x="1691" 
d="M61 1464l154.004 17.4971l164 18.5c52 5.33301 97.667 9.33301 137 12c13.333 0.666992 24.666 1.33398 33.999 2.00098c20 0 33.333 -1.66699 40 -5c8 -48 19.5 -106.333 34.5 -175s31 -137.167 48 -205.5l48 -189.5l31.5 -124
c1.33301 -4 4.66602 -13.167 9.99902 -27.5s11.5 -28.666 18.5 -42.999s14.5 -27 22.5 -38s14.667 -16.5 20 -16.5c10.667 0 20.167 3.5 28.5 10.5s15.666 15.167 21.999 24.5s11.833 19.5 16.5 30.5s7.66699 19.167 9 24.5c35.333 118.667 76 240.167 122 364.5l130 360.5
c50 5.33301 98 8 144 8h27c54 -1.33301 102.5 -5 145.5 -11s79.833 -12.5 110.5 -19.5s52 -13.167 64 -18.5l-135.5 -343l-148.5 -369.5l-150.5 -378l-142.5 -369.5c-44 -4 -91.5 -8 -142.5 -12s-102.833 -7.5 -155.5 -10.5s-104.5 -4.5 -155.5 -4.5s-99.167 1 -144.5 3
c-38 96.667 -77.833 210.834 -119.5 342.501s-81.334 267.167 -119.001 406.5s-71.5 273.833 -101.5 403.5s-52 240.167 -66 331.5z" />
    <glyph glyph-name="w" unicode="w" horiz-adv-x="2410" 
d="M72 1485c88.667 12.667 178.664 22.3301 269.997 28.9971c27.333 2 54.666 3 81.999 3c66 0 133.667 -6 203 -18c23.333 -106.667 44.5 -212.834 63.5 -318.501l57.5 -320.5c1.33301 -5.33301 4.33301 -10 9 -14s10 -6.33301 16 -7s11.833 -0.666992 17.5 0
s9.16699 3.66699 10.5 9c19.333 42 38.833 92.833 58.5 152.5l59 182.5l56 181c17.667 58.667 34.167 109.334 49.5 152.001c84.667 8 171 13.333 259 16c14.667 0.666992 29.334 1 44.001 1c72.667 0 143.667 -5.66699 213 -17l110.5 -316l108.5 -317
c2.66699 -6.66699 6.83398 -12.834 12.501 -18.501s11.834 -8.16699 18.501 -7.5s13.167 5.83398 19.5 15.501s11.5 26.834 15.5 51.501c15.333 98 29.666 197.833 42.999 299.5l39 304.5c58 11.333 119 17 183 17c12.667 0 25.667 -0.333008 39 -1
c78.667 -2.66699 159.667 -8 243 -16c-4 -76.667 -11.5 -160.667 -22.5 -252s-23.667 -185.5 -38 -282.5s-29.666 -193.333 -46 -289c-16.333 -95.667 -32.833 -187.167 -49.5 -274.5l-47.5 -239.5l-38.5 -182.5c-65.333 -5.33301 -128.166 -9.33301 -188.499 -12
s-119.833 -5 -178.5 -7s-117 -3 -175 -3h-183c-2.66699 9.33301 -6.5 28 -11.5 56l-17.5 99.5c-6.66699 38.333 -14.167 79 -22.5 122l-23.5 123.5l-20.5 106.5c-6.33301 31.667 -11.5 54.834 -15.5 69.501c-10 38 -25 57 -45 57h-4c-22 -2.66699 -38.333 -21.667 -49 -57
l-31.5 -103.5l-42 -143l-47 -166l-47.5 -173.5c-66.667 -4 -128.667 -7.33301 -186 -10s-112.666 -4 -165.999 -4s-107 1.33301 -161 4s-111.667 5.33398 -173 8.00098c-31.333 125.333 -58.333 251 -81 377s-43.5 252.167 -62.5 378.5l-58 376.5
c-19.667 124.667 -42.5 250.667 -68.5 378z" />
    <glyph glyph-name="x" unicode="x" horiz-adv-x="1724" 
d="M41 -45c22 53.333 48.6699 112.667 80.0029 178s65.833 132.166 103.5 200.499l117.5 205c40.667 68.333 82.334 132.5 125.001 192.5c-26 32.667 -57.5 82.5 -94.5 149.5s-73.833 138.667 -110.5 215s-70 151.5 -100 225.5s-51.333 132.667 -64 176l120 14.5
c46 5.66699 93.5 10.834 142.5 15.501s96.833 8.33398 143.5 11.001c23.333 1.33301 45.5 2 66.5 2s40.5 -0.666992 58.5 -2l97 -182c32 -58.667 55.667 -104.334 71 -137.001c1.33301 -4 4.66602 -10.167 9.99902 -18.5s11.833 -16.666 19.5 -24.999
s15.167 -15.5 22.5 -21.5s14.333 -9 21 -9c19.333 0 35.166 7.16699 47.499 21.5s21.166 25.5 26.499 33.5c10.667 20.667 24.667 44.334 42 71.001l56.5 87l62.5 95l58 89c43.333 4 87 6 131 6c17.333 0 34 -0.333008 50 -1c60 -2 115.167 -5.33301 165.5 -10
s93.666 -10.5 129.999 -17.5l74.5 -14.5l-132 -216l-127.5 -193l-125 -179.5l-121.5 -175.5l110.5 -182l124 -198.5l124 -196.5l112.5 -172c-45.333 -4 -96.5 -9.16699 -153.5 -15.5s-112.167 -11.833 -165.5 -16.5s-100 -8.33398 -140 -11.001c-20 -1.33301 -36 -2 -48 -2
s-20.333 0.666992 -25 2l-56.5 92c-21 34 -42.5 67 -64.5 99l-61.5 88l-44.5 63c-5.33301 5.33301 -11.833 14.166 -19.5 26.499s-18.5 18.5 -32.5 18.5c-19.333 0 -35 -7.5 -47 -22.5s-20.667 -26.5 -26 -34.5l-112.5 -164c-39.667 -58.667 -72.5 -116.667 -98.5 -174
c-60 -6 -120 -9 -180 -9h-17c-52.667 0 -101 1.33301 -145 4c-49.333 2.66699 -91.833 5.5 -127.5 8.5s-60.167 6.5 -73.5 10.5z" />
    <glyph glyph-name="y" unicode="y" 
d="M66 1497c48 4 101.498 8.17188 160.498 12.5049s116.167 8.16602 171.5 11.499s104 5.66602 146 6.99902c13.333 0.666992 25.333 1 36 1c20.667 0 34.334 -1 41.001 -3c8 -28.667 22.167 -63.834 42.5 -105.501s41.833 -83 64.5 -124l62.5 -112.5
c19 -34 31.833 -58.667 38.5 -74c1.33301 -4 4.83301 -10.167 10.5 -18.5s12.167 -16.833 19.5 -25.5s15.166 -16.167 23.499 -22.5s15.833 -9.5 22.5 -9.5c20.667 0 37.834 7.16699 51.501 21.5s22.5 25.833 26.5 34.5c38 69.333 74.5 141.5 109.5 216.5
s73.5 146.833 115.5 215.5c56.667 4.66699 110.667 7 162 7h20c56.667 -0.666992 107.5 -2.66699 152.5 -6s83.5 -7.5 115.5 -12.5s54.667 -9.5 68 -13.5c-44 -61.333 -90 -131.333 -138 -210l-149 -242.5l-154 -247.5l-148 -230c-2.66699 -102.667 -5.5 -200.667 -8.5 -294
l-8.5 -259c-40.667 -8 -83.834 -13.333 -129.501 -16s-91.5 -4 -137.5 -4s-91.5 1.33301 -136.5 4s-87.833 4 -128.5 4c0 98 -1.33301 195.167 -4 291.5s-5.66699 193.833 -9 292.5c-27.333 31.333 -57.333 70.833 -90 118.5l-101 154.5
c-34.667 55.333 -69.167 113.666 -103.5 174.999l-95.5 178c-29.333 57.333 -54.166 110.666 -74.499 159.999s-35.166 91 -44.499 125z" />
    <glyph glyph-name="z" unicode="z" horiz-adv-x="1400" 
d="M70 232c-1.33301 14 -1.99902 26.8281 -1.99902 38.4951s0.666992 22.5 2 32.5l176 240l179 254l159.5 235.5c48.333 73.667 86.166 135.167 113.499 184.5c-42 2 -84.333 3 -127 3c-52.667 0 -107 -1.33301 -163 -4c-26 -1.33301 -52 -2 -78 -2
c-72 0 -141.667 5 -209 15c-16.667 52.667 -27 104.334 -31 155.001c-2.66699 30.667 -4 62.334 -4 95.001c0 22 0.666992 44.333 2 67c60 4 137.333 10 232 18c96 8.66699 198 15.334 306 20.001c54 2.66699 108.833 4 164.5 4s111.834 -1.33301 168.501 -4
c114 -4.66699 220.333 -18.667 319 -42c1.33301 -24.667 3 -52.667 5 -84s3.66699 -63 5 -95c0.666992 -16 1 -31.833 1 -47.5s-0.333008 -31.167 -1 -46.5c-1.33301 -30.667 -4 -58.334 -8 -83.001c-48 -91.333 -96.167 -175.666 -144.5 -252.999
s-97.166 -151.166 -146.499 -221.499l-147.5 -207l-145.5 -205.5c40.667 -5.33301 88.167 -7.83301 142.5 -7.5s109.833 0.5 166.5 0.5h166c54 0 100.667 -1.66699 140 -5c2.66699 -24 4 -47.667 4 -71c0.666992 -28 -1 -55.667 -5 -83
c-6.66699 -50.667 -16 -101.667 -28 -153c-95.333 -13.333 -193.5 -22.166 -294.5 -26.499s-201.333 -6.5 -301 -6.5s-196.334 1.66699 -290.001 5l-259.5 9c-10.667 26 -20.834 55 -30.501 87s-17.5 63.667 -23.5 95s-10.333 61 -13 89z" />
    <glyph glyph-name="braceleft" unicode="{" horiz-adv-x="1032" 
d="M94 950c27.333 22 52.665 45.3311 75.998 69.998c19.333 20.667 37.5 43.5 54.5 68.5s26.833 51.167 29.5 78.5c6.66699 57.333 4.5 114 -6.5 170l-31.5 162c-10 52 -14.667 100.5 -14 145.5s15.334 83.833 44.001 116.5c60 68 144.333 117.167 253 147.5
s231 53.5 367 69.5c8 -15.333 17.5 -34.833 28.5 -58.5s21.333 -49.167 31 -76.5s17.5 -55.333 23.5 -84s9 -55.334 9 -80.001c-49.333 -5.33301 -94 -20 -134 -44s-73.667 -54.333 -101 -91c-10.667 -13.333 -13 -37.166 -7 -71.499s14.833 -72.666 26.5 -114.999
s23 -86.666 34 -132.999s14.167 -89.833 9.5 -130.5c-1.33301 -19.333 -9.5 -37.166 -24.5 -53.499s-31.167 -30.833 -48.5 -43.5c-20.667 -16.667 -44 -32.334 -70 -47.001c23.333 -30 44 -58 62 -84c15.333 -23.333 29.333 -46.166 42 -68.499s19 -41.833 19 -58.5
c0 -49.333 -6.83301 -96.5 -20.5 -141.5s-27 -86.167 -40 -123.5s-23.167 -69.666 -30.5 -96.999s-5.66602 -48.666 5.00098 -63.999c6.66699 -9.33301 17.167 -19.833 31.5 -31.5s30.666 -22.667 48.999 -33s37.833 -19.5 58.5 -27.5s40.667 -14 60 -18
c-5.33301 -65.333 -15.666 -126.5 -30.999 -183.5s-33 -98.833 -53 -125.5c-45.333 6.66699 -95 17.167 -149 31.5s-107.5 31.333 -160.5 51s-103.5 40.834 -151.5 63.501s-88.333 44 -121 64c-22 13.333 -34.333 38.666 -37 75.999s-1 81.5 5 132.5
s14.167 106.5 24.5 166.5s18.166 120 23.499 180c2.66699 23.333 -2.66602 51.166 -15.999 83.499s-29 64.166 -47 95.499c-20.667 35.333 -44.667 72.666 -72 111.999z" />
    <glyph glyph-name="bar" unicode="|" horiz-adv-x="1175" 
d="M75 1655.5c2 44.333 5.6582 85.333 10.9912 123s12 68.167 20 91.5c31.333 1.33301 73 3.33301 125 6s109.167 4.33398 171.5 5.00098l193.5 2c66.667 0.666992 130.834 1 192.501 1s118 -0.666992 169 -2s90.833 -4 119.5 -8c4 -24.667 7.83301 -56.5 11.5 -95.5
s6.5 -79.333 8.5 -121s2.33301 -82.167 1 -121.5s-4 -71.333 -8 -96c-27.333 -2.66699 -58.833 -4.66699 -94.5 -6s-68.5 -2.66602 -98.5 -3.99902c-2.66699 -168 -6.66699 -336.667 -12 -506s-11.666 -340 -18.999 -512c31.333 0 63.833 -0.333008 97.5 -1
s59.834 -2.33398 78.501 -5.00098c4 -22 7.5 -51.5 10.5 -88.5s5.5 -74.667 7.5 -113s2.33301 -75.5 1 -111.5s-4 -65 -8 -87c-69.333 -4 -143.666 -7.33301 -222.999 -10s-159.666 -4.66699 -240.999 -6s-161.666 -3.83301 -240.999 -7.5s-153.666 -9.5 -222.999 -17.5
c-9.33301 35.333 -15.833 74.166 -19.5 116.499s-4.5 83.333 -2.5 123s5.5 77 10.5 112s10.833 62.5 17.5 82.5c9.33301 0 21.5 0.666992 36.5 2s31.167 2.5 48.5 3.5s34.833 1.83301 52.5 2.5s33.167 1 46.5 1c-5.33301 165.333 -8.66602 333.5 -9.99902 504.5
s-0.666016 335.833 2.00098 494.5c-13.333 0 -29.333 -0.333008 -48 -1s-37.5 -1.66699 -56.5 -3s-37.667 -3 -56 -5s-34.5 -3.66699 -48.5 -5c-10.667 39.333 -17.667 81.833 -21 127.5s-4 90.667 -2 135z" />
    <glyph glyph-name="braceright" unicode="}" horiz-adv-x="1032" 
d="M80 211c49.333 6.66699 94.3311 21.9971 134.998 45.9971s74 53.667 100 89c10.667 15.333 13 39.666 7 72.999s-14.667 71.833 -26 115.5l-33.5 135c-11 46.333 -14.5 89.5 -10.5 129.5c2.66699 18 11.5 35.5 26.5 52.5s31.5 32.167 49.5 45.5
c20.667 16.667 43.667 31.667 69 45c-23.333 28.667 -43.666 56 -60.999 82c-15.333 23.333 -29.833 46.833 -43.5 70.5s-20.5 43.167 -20.5 58.5c1.33301 49.333 8.5 96.5 21.5 141.5s26.333 86.333 40 124s24 70 31 97s4.83301 47.5 -6.5 61.5
c-6.66699 10.667 -17.167 21.5 -31.5 32.5s-30.666 22 -48.999 33s-37.5 21 -57.5 30s-39.333 14.167 -58 15.5c4 65.333 13.5 126.333 28.5 183s32.833 99.334 53.5 128.001c45.333 -6.66699 94.833 -17.5 148.5 -32.5s107.167 -32.5 160.5 -52.5
s103.833 -40.833 151.5 -62.5s87.834 -43.5 120.501 -65.5c22 -12 34.667 -36.5 38 -73.5s2 -81.5 -4 -133.5s-14.167 -107.667 -24.5 -167s-18.833 -119.666 -25.5 -180.999c-2.66699 -20.667 3.16602 -47.334 17.499 -80.001s30.166 -64.667 47.499 -96
c20.667 -36.667 44 -74.334 70 -113.001c-27.333 -22 -52.666 -45.333 -75.999 -70c-19.333 -22 -37.5 -45.5 -54.5 -70.5s-26.833 -50.5 -29.5 -76.5c-5.33301 -56 -2.83301 -112.333 7.5 -169l31 -163c10.333 -52 15.166 -100.5 14.499 -145.5
s-15.334 -83.833 -44.001 -116.5c-30 -35.333 -66.167 -64.666 -108.5 -87.999s-90.166 -42.833 -143.499 -58.5s-111.166 -29 -173.499 -40s-127.5 -21.167 -195.5 -30.5c-8 15.333 -17.5 34.833 -28.5 58.5s-21.333 48.834 -31 75.501s-17.5 54.334 -23.5 83.001
s-9 55.334 -9 80.001z" />
    <glyph glyph-name="asciitilde" unicode="~" horiz-adv-x="1454" 
d="M78 1120c20.667 49.333 45 102.335 73 159.002s58 110.667 90 162s65.333 97.333 100 138s68.334 70 101.001 88c35.333 20.667 72.5 25.167 111.5 13.5s79.333 -30.5 121 -56.5s84.667 -55.333 129 -88s89.833 -61.334 136.5 -86.001
c31.333 -16.667 62.666 -16 93.999 2s59.333 40.667 84 68c28.667 32.667 56.667 72 84 118c38 -23.333 74.5 -51.333 109.5 -84s62.167 -70 81.5 -112c-9.33301 -16.667 -24.333 -41.667 -45 -75l-69 -111.5c-25.333 -41 -53 -83 -83 -126s-60.333 -81.833 -91 -116.5
s-60.667 -62.334 -90 -83.001s-56.333 -30.334 -81 -29.001c-40.667 5.33301 -87.334 20.666 -140.001 45.999s-103.667 52.333 -153 81s-93.666 52.834 -132.999 72.501s-66.666 25.5 -81.999 17.5c-9.33301 -5.33301 -20.5 -14.166 -33.5 -26.499s-26.333 -27 -40 -44
s-27.334 -35.333 -41.001 -55l-39.5 -58.5c-50.667 27.333 -92 57 -124 89s-55.333 64.333 -70 97z" />
    <glyph glyph-name="uni00A0" unicode="&#xa0;" horiz-adv-x="819" 
 />
    <glyph glyph-name="exclamdown" unicode="&#xa1;" horiz-adv-x="905" 
d="M113 -6l58.5029 390l50 356l38.5 289l25 192l88 12c39.333 5.33301 81.166 10 125.499 14s86 7.16699 125 9.5s66.833 0.5 83.5 -5.5c15.333 -216 21.166 -430.333 17.499 -643s-5.5 -425 -5.5 -637c-108 -13.333 -213.833 -21 -317.5 -23s-199.834 13.333 -288.501 46z
M225.003 1901c8 16.667 26.834 31.666 56.501 44.999s63.5 24.833 101.5 34.5s78.833 16.5 122.5 20.5s84.667 5.33301 123 4s71.5 -5.5 99.5 -12.5s46 -17.833 54 -32.5c8 -15.333 13.167 -34.833 15.5 -58.5s2.83301 -48.834 1.5 -75.501s-3.83301 -53 -7.5 -79
s-6.83398 -47.333 -9.50098 -64c-5.33301 -26 -18.833 -47.833 -40.5 -65.5s-46.834 -32.667 -75.501 -45s-57.334 -22.166 -86.001 -29.499s-52.667 -12.333 -72 -15c-15.333 -4 -33.5 -4.66699 -54.5 -2s-42.5 6.33398 -64.5 11.001s-43.167 11.167 -63.5 19.5l-53.5 22.5
c-19.333 49.333 -33.666 101.333 -42.999 156s-10.666 110 -3.99902 166z" />
    <glyph glyph-name="cent" unicode="&#xa2;" horiz-adv-x="1589" 
d="M101 705c-0.666992 102 5.16602 204.501 17.499 307.501s29.833 199.333 52.5 289s48.334 158.834 77.001 207.501l59.5 18.5l61 17.5c21.667 6 46.5 11.833 74.5 17.5s62 11.167 102 16.5c-1.33301 42 -2.66602 80.167 -3.99902 114.5s-2.66602 66.5 -3.99902 96.5
s-2.83301 58.667 -4.5 86s-3.83398 56 -6.50098 86c44 18 90.5 32.333 139.5 43s98.833 18.834 149.5 24.501s100.167 8.5 148.5 8.5s93.166 -2 134.499 -6c-13.333 -80.667 -21.833 -154.167 -25.5 -220.5s-8.83398 -129.5 -15.501 -189.5
c45.333 5.33301 85.333 9.66602 120 12.999s66.334 6.16602 95.001 8.49902s55.667 4.16602 81 5.49902s51 0.666016 77 -2.00098c2.66699 -10.667 5.66699 -28.834 9 -54.501s6.66602 -53.834 9.99902 -84.501s5.66602 -60.667 6.99902 -90
s0.666016 -55.666 -2.00098 -78.999c-48 -2.66699 -99.5 -8 -154.5 -16s-110.167 -17.833 -165.5 -29.5l-161 -35l-142 -31.5c-16.667 -31.333 -31.334 -70.666 -44.001 -117.999s-21.667 -96.833 -27 -148.5s-5.66602 -103.167 -0.999023 -154.5s16.667 -96 36 -134
c20.667 -9.33301 57.834 -18.5 111.501 -27.5s113.334 -17.333 179.001 -25s131.5 -14.834 197.5 -21.501s121.667 -12 167 -16c1.33301 -13.333 0.333008 -35.166 -3 -65.499s-8.16602 -62.5 -14.499 -96.5s-14.166 -66.5 -23.499 -97.5s-20.333 -53.833 -33 -68.5
c-34 2.66699 -63 4.66699 -87 6s-46.833 2 -68.5 2s-45.167 1 -70.5 3s-56.333 5.66699 -93 11c-2.66699 -46.667 -4 -93 -4 -139s-0.666992 -105.333 -2 -178c-24.667 -6.66699 -58.834 -12 -102.501 -16s-89.5 -6.5 -137.5 -7.5s-93.167 -0.666992 -135.5 1
s-74.166 5.83398 -95.499 12.501c-16.667 61.333 -27 122 -31 182s-8 125 -12 195c-32.667 8 -67.5 14 -104.5 18s-73.333 9.83301 -109 17.5s-70.5 18 -104.5 31s-64.667 30.833 -92 53.5c-16.667 70.667 -25.334 157 -26.001 259z" />
    <glyph glyph-name="sterling" unicode="&#xa3;" horiz-adv-x="1556" 
d="M101 352.5c0.666992 37 4.00195 70.4961 10.002 100.496l134 200.5c32 49 58.333 87.833 79 116.5c-39.333 -4 -73.5 -7 -102.5 -9s-52.167 -5 -69.5 -9c-13.333 82 -18.5 152.667 -15.5 212s9.5 112 19.5 158c15.333 4 44.666 6.33301 87.999 7s96.333 2 159 4
l-113.5 90c-41.667 34 -82.167 64 -121.5 90l23.5 200.5c9 75 25.167 147.5 48.5 217.5c190 68 390.333 116 601 144s415.667 38 615 30c9.33301 -30 16.833 -61.5 22.5 -94.5s9.83398 -66.5 12.501 -100.5s4 -68.167 4 -102.5v-98.5l-154.5 -22
c-48.333 -6.66699 -95.833 -12.834 -142.5 -18.501s-93.834 -12.167 -141.501 -19.5s-99.5 -16 -155.5 -26c-22 -34 -33 -70.167 -33 -108.5s6.33301 -68.166 19 -89.499c45.333 -13.333 84.666 -23.833 117.999 -31.5s66 -14 98 -19s65.667 -9.5 101 -13.5
s77.666 -10.667 126.999 -20c5.33301 -48 8.33301 -101.333 9 -160s-2.33301 -112 -9 -160c-16.667 -1.33301 -33.834 -4.66602 -51.501 -9.99902s-38.667 -10.833 -63 -16.5s-53 -10.834 -86 -15.501s-72.5 -7 -118.5 -7l-113.5 -166
c-37.667 -57.333 -84.5 -120.666 -140.5 -189.999c52 -1.33301 105.167 -1.66602 159.5 -0.999023l163.5 2c54.667 0.666992 109 0.333984 163 -0.999023s106.333 -6.33301 157 -15c19.333 -61.333 31 -122.666 35 -183.999s4.66699 -125.333 2 -192
c-45.333 -1.33301 -99.333 -5.5 -162 -12.5s-130.834 -13.167 -204.501 -18.5s-151.167 -10.166 -232.5 -14.499s-163.666 -5.83301 -246.999 -4.5s-165.666 6.16602 -246.999 14.499s-158 21.5 -230 39.5c-1.33301 30 -3.5 63 -6.5 99s-5.16699 73.167 -6.5 111.5
s-1.66602 76 -0.999023 113z" />
    <glyph glyph-name="yen" unicode="&#xa5;" horiz-adv-x="1880" 
d="M63 1927c15.333 4 42.168 9.15723 80.501 15.4902s84 11.833 137 16.5s112 7.33398 177 8.00098s130.167 -1.66602 195.5 -6.99902c32.667 -102.667 69.834 -200 111.501 -292l122.5 -277c5.33301 -10.667 14.833 -25.667 28.5 -45s31.5 -29 53.5 -29
c15.333 0 27.333 7.83301 36 23.5s14.334 28.167 17.001 37.5c6.66699 19.333 20.334 52.833 41.001 100.5l67.5 158.5l72.5 176.5l61 150.5c10.667 2.66699 36.167 3.66699 76.5 3s87.166 -3 140.499 -7s109.5 -8.5 168.5 -13.5l162.5 -13.5
c-38 -74 -80.833 -162.833 -128.5 -266.5l-147.5 -327.5c30 0 57.333 -1 82 -3s45 -4.33301 61 -7c2.66699 -23.333 5.16699 -54 7.5 -92s3.83301 -77.5 4.5 -118.5s0.666992 -81 0 -120s-2.33398 -69.5 -5.00098 -91.5c-56 -8 -113.5 -13 -172.5 -15
s-118.5 -4.33301 -178.5 -7c-32.667 -74 -63.334 -140.333 -92.001 -199c36.667 1.33301 76.5 2.33301 119.5 3s84.333 1 124 1s76.667 -0.666992 111 -2s61.5 -4 81.5 -8c2.66699 -23.333 5.16699 -54.166 7.5 -92.499s3.83301 -77.833 4.5 -118.5
s0.666992 -80.167 0 -118.5s-2.33398 -69.166 -5.00098 -92.499c-75.333 -9.33301 -153 -14.666 -233 -15.999s-158.667 -6.33301 -236 -15l-13 -250c-10.667 -6.66699 -30.334 -12.667 -59.001 -18s-61.834 -10 -99.501 -14s-77.667 -7.5 -120 -10.5
s-83 -4.83301 -122 -5.5s-73.833 -1 -104.5 -1s-52.667 0.666992 -66 2c-2.66699 50.667 -5 102.334 -7 155.001s-4.66699 106.334 -8 161.001c-74 -4 -148.667 -7.16699 -224 -9.5s-148.666 -10.166 -219.999 -23.499c-6.66699 39.333 -11 81.333 -13 126
s-2.33301 88 -1 130s3.66602 81.5 6.99902 118.5s7 67.167 11 90.5c20.667 1.33301 48 3.33301 82 6s70.5 4.33398 109.5 5.00098l121 2c41.667 0.666992 80.834 0.333984 117.501 -0.999023v45c-30 45.333 -61.333 96.666 -94 153.999
c-57.333 -1.33301 -114.666 -3.66602 -171.999 -6.99902s-113.333 -10 -168 -20c-6.66699 39.333 -11 81.333 -13 126s-2.33301 88.167 -1 130.5s3.66602 81.833 6.99902 118.5s7 66.667 11 90l119 6c-48 110.667 -92.167 217.5 -132.5 320.5
s-74.166 194.167 -101.499 273.5z" />
    <glyph glyph-name="section" unicode="&#xa7;" horiz-adv-x="1662" 
d="M98 1060c2.66699 81.333 8.8418 162.833 18.5088 244.5s22 159.167 37 232.5s32.5 138.666 52.5 195.999s42 102.333 66 135c39.333 10.667 90.166 21.834 152.499 33.501s130.666 22.667 204.999 33s151.833 20.5 232.5 30.5s159.167 17.833 235.5 23.5
s147.333 10.167 213 13.5s120.5 4.33301 164.5 3c2.66699 -13.333 6 -33 10 -59s7.66699 -54.333 11 -85s5.66602 -61.167 6.99902 -91.5s0.666016 -56.833 -2.00098 -79.5c-46.667 -2.66699 -101.667 -7.83398 -165 -15.501s-128.5 -16 -195.5 -25l-194.5 -26.5
c-62.667 -8.66699 -117.334 -16.667 -164.001 -24c-19.333 -18 -32.333 -41.833 -39 -71.5s-4.33398 -58.167 6.99902 -85.5c23.333 -5.33301 55.333 -11.166 96 -17.499l137 -20.5l159 -22.5l160.5 -22.5l142 -19.5c43 -5.66699 77.5 -9.83398 103.5 -12.501
c26 -96.667 41.833 -197.334 47.5 -302.001s3.33398 -207.5 -6.99902 -308.5s-27.166 -197.5 -50.499 -289.5s-50.666 -174.333 -81.999 -247c-87.333 -34 -180.5 -64 -279.5 -90s-200.333 -48.5 -304 -67.5s-207.834 -34.667 -312.501 -47s-206 -23.166 -304 -32.499
c-12 15.333 -22.5 38.833 -31.5 70.5s-16.5 64.667 -22.5 99s-10.833 67.166 -14.5 98.499s-4.83398 53 -3.50098 65l108.5 14.5l135.5 18.5l145.5 19.5c49 6.33301 95 13.5 138 21.5s80.5 15.833 112.5 23.5s55 14.834 69 21.501c9.33301 4 18.166 11.833 26.499 23.5
s13.5 24 15.5 37s-0.833008 25.333 -8.5 37s-22.834 18.167 -45.501 19.5c-24.667 4 -56.834 8.83301 -96.501 14.5s-77.167 10.5 -112.5 14.5c-31.333 2.66699 -70.333 6.33398 -117 11.001s-95.5 10.5 -146.5 17.5s-101.833 14.833 -152.5 23.5
s-96.334 18.667 -137.001 30c-10.667 60 -17.5 127.5 -20.5 202.5s-3.16699 153.167 -0.5 234.5zM636.008 989c-2 -24.667 1.66699 -53.998 11 -87.998c27.333 -10.667 60.166 -19.834 98.499 -27.501s76.166 -13.5 113.499 -17.5s72.5 -7 105.5 -9s57.5 -3 73.5 -3
c10.667 36.667 17 68 19 94s-2.33301 54 -13 84c-19.333 0 -44.166 2 -74.499 6s-63 9.16699 -98 15.5l-105.5 19.5c-35.333 6.66699 -68.666 12.667 -99.999 18c-18 -36.667 -28 -67.334 -30 -92.001z" />
    <glyph glyph-name="dieresis" unicode="&#xa8;" horiz-adv-x="1339" 
d="M128 1312c0.666992 30.667 2.33496 60.3311 5.00195 88.998s5.33398 51.667 8.00098 69c4 28.667 14.667 53.334 32 74.001s37.166 38.167 59.499 52.5s45.166 25.5 68.499 33.5l57 19c12 2.66699 26.667 3 44 1s34.5 -6.5 51.5 -13.5s33.667 -14.5 50 -22.5
s30.166 -16.333 41.499 -25c15.333 -56 27 -114.667 35 -176s8.66699 -122.666 2 -183.999c-6.66699 -19.333 -21.667 -36.5 -45 -51.5s-50 -27.667 -80 -38s-62.5 -18.166 -97.5 -23.499s-67.5 -7.33301 -97.5 -6s-56.167 6.16602 -78.5 14.499s-36.5 19.833 -42.5 34.5
c-5.33301 16.667 -9 38.667 -11 66s-2.66699 56.333 -2 87zM798.001 1324c0.666992 28 2.3291 56.0029 4.99609 84.0029s4.66699 50.333 6 67c4 27.333 13.833 50.833 29.5 70.5s33.834 36 54.501 49s41.5 23.5 62.5 31.5s38.5 13.333 52.5 16
c23.333 5.33301 52.333 1.66602 87 -11.001s63 -27.334 85 -44.001c15.333 -53.333 26.166 -109.333 32.499 -168s6.83301 -117.334 1.5 -176.001c-9.33301 -26 -34.166 -48.167 -74.499 -66.5s-83.666 -31.333 -129.999 -39s-89.333 -8 -129 -1s-63.5 22.167 -71.5 45.5
c-5.33301 15.333 -8.66602 35.833 -9.99902 61.5s-1.66602 52.5 -0.999023 80.5z" />
    <glyph glyph-name="copyright" unicode="&#xa9;" horiz-adv-x="2101" 
d="M105 970.5c-0.666992 94.333 0.833984 186.165 4.50098 275.498s8.16699 171.666 13.5 246.999c48 53.333 96.5 111.666 145.5 174.999s99.5 123 151.5 179c58.667 10.667 126.167 19.834 202.5 27.501s155.166 14 236.499 19s162.333 8.5 243 10.5s155 3 223 3
s127 0.333008 177 1s85.333 1 106 1c30 -24.667 59.667 -54.834 89 -90.501s58 -72.5 86 -110.5s55 -76.833 81 -116.5l71 -112.5c6.66699 -48 12.834 -103.667 18.501 -167s10.167 -129.833 13.5 -199.5s6 -140.667 8 -213s3 -140 3 -203s-0.666992 -120 -2 -171
s-3.33301 -90.833 -6 -119.5c-45.333 -65.333 -88 -131.666 -128 -198.999s-84.667 -131.666 -134 -192.999c-113.333 -15.333 -233.833 -26.666 -361.5 -33.999s-251.5 -11.333 -371.5 -12s-231.333 0.333008 -334 3s-186 5.66699 -250 9c-22 23.333 -45.5 53 -70.5 89
s-49.167 74.5 -72.5 115.5s-44.833 81.333 -64.5 121s-35.834 75.834 -48.501 108.501c-9.33301 87.333 -16.5 178.333 -21.5 273s-7.83301 189.167 -8.5 283.5zM492.501 949.999c-2.33301 -117.333 3.33203 -232.667 16.999 -346s34.834 -207.333 63.501 -282
c68 -23.333 145.833 -42.5 233.5 -57.5s175.5 -23.5 263.5 -25.5s171.667 1.66699 251 11s144.333 26.333 195 51c23.333 100 38.333 208 45 324s6.83398 231.333 0.500977 346s-18 225.5 -35 332.5s-37.167 202.167 -60.5 285.5c-70.667 19.333 -150 32.333 -238 39
s-174 7.33398 -258 2.00098s-159.833 -16.833 -227.5 -34.5s-115.834 -40.834 -144.501 -69.501c-34 -57.333 -59.5 -138.333 -76.5 -243s-26.667 -215.667 -29 -333zM598.999 761.998c-2 57.333 -1.00098 115.666 2.99902 174.999s10.5 116 19.5 170
s20.333 102.833 34 146.5s27.834 77.167 42.501 100.5c98 52 200.333 87.833 307 107.5s218 30.167 334 31.5c6.66699 -6.66699 13.5 -18.5 20.5 -35.5s12.833 -37.5 17.5 -61.5s8.5 -48.333 11.5 -73s4.5 -47.334 4.5 -68.001c-12 -6.66699 -34.833 -13.334 -68.5 -20.001
l-108 -22.5c-38.333 -8.33301 -75.833 -17.666 -112.5 -27.999s-64.667 -22.833 -84 -37.5c-12 -24.667 -20.5 -56.167 -25.5 -94.5s-7.5 -79.666 -7.5 -123.999s2.33301 -88.666 7 -132.999s11.334 -83.5 20.001 -117.5c28.667 -15.333 59 -25.666 91 -30.999
s65.333 -9 100 -11s70.5 -3.33301 107.5 -4s74.5 -2.33398 112.5 -5.00098c6.66699 -53.333 9 -103.166 7 -149.499s-4.33301 -81.166 -7 -104.499c-22 -5.33301 -53 -8.5 -93 -9.5s-85 0.666992 -135 5s-102.333 9.83301 -157 16.5s-106.834 14.834 -156.501 24.501
s-94.667 20.667 -135 33s-71.5 25.166 -93.5 38.499c-18 31.333 -31.333 71.666 -40 120.999s-14 102.666 -16 159.999z" />
    <glyph glyph-name="ordfeminine" unicode="&#xaa;" horiz-adv-x="1290" 
d="M103 224.5c2 43 6.50195 82.835 13.502 119.502s14.5 66.667 22.5 90l136 5c55.333 2 115.5 3.66699 180.5 5s132.667 2.5 203 3.5s137.5 1 201.5 0s123.333 -2.16699 178 -3.5s98.334 -4 131.001 -8c4 -22 8.16699 -52.333 12.5 -91s7.5 -78.834 9.5 -120.501
s2.66699 -82.334 2 -122.001s-3.66699 -70.5 -9 -92.5c-84.667 -5.33301 -171.334 -9.33301 -260.001 -12s-177.834 -4.66699 -267.501 -6s-178.834 -4.16602 -267.501 -8.49902s-174.667 -10.5 -258 -18.5c-12 39.333 -20.167 81.666 -24.5 126.999s-5.5 89.5 -3.5 132.5z
M123.002 1156c2.66699 90.667 10.834 178.666 24.501 263.999s31.5 152 53.5 200c27.333 10.667 65.166 21.834 113.499 33.501s102.166 22.667 161.499 33s121.833 20.333 187.5 30s129.167 17.5 190.5 23.5s118 10.667 170 14s94.333 5 127 5
c10.667 -92.667 19.167 -189.834 25.5 -291.501s10.833 -202 13.5 -301s3.66699 -194.167 3 -285.5s-2.33398 -174 -5.00098 -248c-10.667 -5.33301 -36.5 -11.833 -77.5 -19.5s-85.5 -14.5 -133.5 -20.5s-93.5 -10 -136.5 -12s-71.833 -2.33301 -86.5 -1
c0 13.333 -0.333008 30.333 -1 51s-1.66699 37 -3 49h-125c-48 0 -98 1.66699 -150 5s-104.5 8.5 -157.5 15.5s-102.167 17.167 -147.5 30.5c-19.333 35.333 -32.666 92.333 -39.999 171s-9.66602 163.334 -6.99902 254.001zM521.002 1019.5
c2 -41 7.99707 -73.5029 17.9971 -97.5029c24.667 -8 56.334 -8.33301 95.001 -1s74.334 11 107.001 11c-2.66699 98 -4.33398 188.333 -5.00098 271s-0.333984 170.334 0.999023 263.001c-19.333 -1.33301 -35.666 -2.66602 -48.999 -3.99902s-26.166 -4 -38.499 -8
s-25.666 -9.5 -39.999 -16.5l-52.5 -26.5c-6.66699 -35.333 -13.5 -76.166 -20.5 -122.499s-11.833 -92.5 -14.5 -138.5s-3 -89.5 -1 -130.5z" />
    <glyph glyph-name="guillemotleft" unicode="&#xab;" horiz-adv-x="1884" 
d="M98 874c86 138 167.001 273.999 243.001 407.999l234 412c54.667 4 109 5 163 3s103.833 -5.5 149.5 -10.5s84.667 -10.833 117 -17.5s54.5 -11.334 66.5 -14.001c-40.667 -78 -80.5 -150.5 -119.5 -217.5l-115 -192.5l-111.5 -178l-109 -174l100.5 -182.5l112 -199.5
l111.5 -196.5l100 -171.5c-40.667 -5.33301 -86.667 -10.666 -138 -15.999s-100.833 -10.833 -148.5 -16.5s-89.334 -9.5 -125.001 -11.5s-58.167 -1.66699 -67.5 1c-87.333 128.667 -169.5 256.834 -246.5 384.501s-149.167 257.5 -216.5 389.5zM829.001 873.999
l244 407.998l236 412c54.667 4 108.834 5 162.501 3s103.167 -5.5 148.5 -10.5s84 -10.833 116 -17.5l66 -14c-39.333 -78 -78.5 -150.5 -117.5 -217.5l-115 -192.5l-111.5 -178l-108 -174l99 -182.5l110.5 -199.5l111.5 -196.5l101 -171.5
c-40.667 -5.33301 -86.834 -10.666 -138.501 -15.999s-101 -10.833 -148 -16.5s-88.5 -9.5 -124.5 -11.5s-58.333 -1.66699 -67 1c-88.667 128.667 -171.5 256.834 -248.5 384.501s-149.167 257.5 -216.5 389.5z" />
    <glyph glyph-name="logicalnot" unicode="&#xac;" horiz-adv-x="1888" 
d="M113 982c0 47.333 0.666992 96.833 2 148.5s3.66602 100 6.99902 145s7 84.667 11 119s8.66699 57.5 14 69.5c65.333 4 141.5 6.5 228.5 7.5s178.667 0.666992 275 -1s194.666 -4.16699 294.999 -7.5l290.5 -10l261 -9c80.667 -2.66699 149 -5.33398 205 -8.00098
c4 -69.333 6 -147.166 6 -233.499s-1 -174.166 -3 -263.499s-5 -178.333 -9 -267s-8.5 -172 -13.5 -250s-9.83301 -148 -14.5 -210s-9 -110.667 -13 -146c-69.333 -15.333 -137.333 -22.666 -204 -21.999s-134.667 5 -204 13l16.5 173.5
c5.66699 61 9.83398 122.167 12.501 183.5s2.66699 122.666 0 183.999s-9.66699 119.333 -21 174h-195.5h-285.5c-105.333 0 -215.333 -0.333008 -330 -1s-223 -2.33398 -325 -5.00098c-1.33301 19.333 -2.66602 48.333 -3.99902 87s-2 81.667 -2 129z" />
    <glyph glyph-name="uni00AD" unicode="&#xad;" horiz-adv-x="819" 
d="M108.5 762.5c1.66699 44.333 4.16602 85.332 7.49902 122.999s7 68.834 11 93.501c28.667 4 69.334 7 122.001 9l165 6c57.333 2 111.833 2 163.5 0s91.167 -5 118.5 -9c2.66699 -24.667 5.16699 -57.167 7.5 -97.5s3.83301 -82 4.5 -125s0.5 -83.833 -0.5 -122.5
s-2.83301 -70.334 -5.5 -95.001c-94 -12 -190.833 -18.5 -290.5 -19.5s-195.834 -10.167 -288.501 -27.5c-6.66699 40.667 -11.167 83.834 -13.5 129.501s-2.66602 90.667 -0.999023 135z" />
    <glyph glyph-name="registered" unicode="&#xae;" horiz-adv-x="2101" 
d="M105 970.5c-0.666992 94.333 0.833984 186.165 4.50098 275.498s8.16699 171.666 13.5 246.999c48 53.333 96.5 111.666 145.5 174.999s99.5 123 151.5 179c58.667 10.667 126.167 19.834 202.5 27.501s155.166 14 236.499 19s162.333 8.5 243 10.5s155 3 223 3
s127 0.333008 177 1s85.333 1 106 1c30 -24.667 59.667 -54.834 89 -90.501s58 -72.5 86 -110.5s55 -76.833 81 -116.5l71 -112.5c6.66699 -48 12.834 -103.667 18.501 -167s10.167 -129.833 13.5 -199.5s6 -140.667 8 -213s3 -140 3 -203s-0.666992 -120 -2 -171
s-3.33301 -90.833 -6 -119.5c-45.333 -65.333 -88 -131.666 -128 -198.999s-84.667 -131.666 -134 -192.999c-113.333 -15.333 -233.833 -26.666 -361.5 -33.999s-251.5 -11.333 -371.5 -12s-231.333 0.333008 -334 3s-186 5.66699 -250 9c-22 23.333 -45.5 53 -70.5 89
s-49.167 74.5 -72.5 115.5s-44.833 81.333 -64.5 121s-35.834 75.834 -48.501 108.501c-9.33301 87.333 -16.5 178.333 -21.5 273s-7.83301 189.167 -8.5 283.5zM492.501 949.999c-2.33301 -117.333 3.33203 -232.667 16.999 -346s34.834 -207.333 63.501 -282
c68 -23.333 145.833 -42.5 233.5 -57.5s175.5 -23.5 263.5 -25.5s171.667 1.66699 251 11s144.333 26.333 195 51c23.333 100 38.333 208 45 324s6.83398 231.333 0.500977 346s-18 225.5 -35 332.5s-37.167 202.167 -60.5 285.5c-70.667 19.333 -150 32.333 -238 39
s-174 7.33398 -258 2.00098s-159.833 -16.833 -227.5 -34.5s-115.834 -40.834 -144.501 -69.501c-34 -57.333 -59.5 -138.333 -76.5 -243s-26.667 -215.667 -29 -333zM634.999 678.998c0 66 0.334961 136.667 1.00195 212s2 147.666 4 216.999s4 132 6 188
s4.33301 97.667 7 125c16.667 5.33301 41.334 10.5 74.001 15.5s68.834 9.5 108.501 13.5s82 7.33301 127 10s88 4.33398 129 5.00098s78.833 1 113.5 1s61.667 -1.33301 81 -4c52 -62.667 91.667 -130.5 119 -203.5s50 -153.833 68 -242.5
c-1.33301 -13.333 -9.66602 -31.666 -24.999 -54.999l-48.5 -72l-49 -69c-15.667 -21.333 -24.834 -36.666 -27.501 -45.999c13.333 -24.667 28.666 -56 45.999 -94l50.5 -110.5c16.333 -35.667 30.666 -68.5 42.999 -98.5l24.5 -59c-34 -26 -76.667 -42.833 -128 -50.5
s-101.666 -8.16699 -150.999 -1.5c-20.667 27.333 -38.834 52.666 -54.501 75.999s-29.834 46.666 -42.501 69.999l-38.5 68.5c-13 22.333 -27.833 46.5 -44.5 72.5c-9.33301 19.333 -20.833 34.166 -34.5 44.499s-28.167 11.166 -43.5 2.49902
c-4 -1.33301 -7.66699 -6.33301 -11 -15s-6 -18.5 -8 -29.5s-3.33301 -21.667 -4 -32s-1 -18.166 -1 -23.499c-1.33301 -42 -1.33301 -75.667 0 -101s0.666016 -60 -2.00098 -104c-18 -1.33301 -39 -2 -63 -2s-48.5 0.333008 -73.5 1s-50.167 2.33398 -75.5 5.00098
s-48.333 4.66699 -69 6c-2.66699 20.667 -4.66699 56 -6 106s-2 108 -2 174zM936.001 999.498c0 -24.333 1.33398 -47.5029 4.00098 -69.5029c10.667 -1.33301 25.334 -0.666016 44.001 2.00098s37.5 6.66699 56.5 12s37.833 12.5 56.5 21.5s34 19.5 46 31.5
c4 39.333 0.166992 73.5 -11.5 102.5s-18.834 53.833 -21.501 74.5c-6.66699 8 -16.834 14 -30.501 18s-28 6.33301 -43 7s-30 0.333984 -45 -0.999023s-28.167 -3.33301 -39.5 -6c-1.33301 -13.333 -3.33301 -30.666 -6 -51.999s-5 -44 -7 -68s-3 -48.167 -3 -72.5z" />
    <glyph glyph-name="degree" unicode="&#xb0;" horiz-adv-x="1122" 
d="M100 1281c0 70 0.671875 137.497 2.00488 202.497s3.66602 116.5 6.99902 154.5c28.667 30 67.5 56 116.5 78s103.167 38.5 162.5 49.5s121.5 17.167 186.5 18.5s126.167 -3.5 183.5 -14.5s109.166 -28.167 155.499 -51.5s80.5 -52.666 102.5 -87.999
c5.33301 -35.333 9.66602 -89.166 12.999 -161.499s5.66602 -147.166 6.99902 -224.499s1.66602 -148.333 0.999023 -213s-2.33398 -107.334 -5.00098 -128.001c-23.333 -34 -59.166 -62.667 -107.499 -86s-102.5 -40.666 -162.5 -51.999s-123.167 -17.5 -189.5 -18.5
s-129.5 4.66699 -189.5 17s-113.833 30.5 -161.5 54.5s-83.167 53.667 -106.5 89c-4 45.333 -7.5 101.5 -10.5 168.5s-4.5 135.5 -4.5 205.5zM438.005 1255c0 -27.333 0.666992 -55.3359 2 -84.0029s2.66602 -60.667 3.99902 -96c18 -4 38.333 -7 61 -9s45.167 -3 67.5 -3
s43.833 1.66699 64.5 5s37 9 49 17c0 66.667 1 127.167 3 181.5s-2.33301 112.833 -13 175.5c-15.333 0 -32.166 1 -50.499 3s-37.333 3.33301 -57 4s-39.5 0.333984 -59.5 -0.999023s-38 -6 -54 -14c-5.33301 -35.333 -9.5 -67.166 -12.5 -95.499
s-4.5 -56.166 -4.5 -83.499z" />
    <glyph glyph-name="plusminus" unicode="&#xb1;" horiz-adv-x="1110" 
d="M100 1143.5c1.33301 37.667 3.83496 72.8359 7.50195 105.503s8.16699 58.667 13.5 78c15.333 4 40 6.33301 74 7s72.667 1.66699 116 3c0 28.667 0.333008 59.834 1 93.501s1.66699 67.834 3 102.501s2.83301 69.167 4.5 103.5l4.5 89.5
c76.667 12 159.667 19.5 249 22.5s171.333 3.83301 246 2.5v-101.5v-109.5v-106.5c0 -34.333 -0.666992 -65.833 -2 -94.5c45.333 0 85 -0.333008 119 -1s58.667 -2.33398 74 -5.00098c2.66699 -22 5 -49.667 7 -83s3.66699 -68.333 5 -105
s1.66602 -71.834 0.999023 -105.501s-2.33398 -61.5 -5.00098 -83.5c-27.333 -2.66699 -59.833 -4.33398 -97.5 -5.00098s-78.167 -2.33398 -121.5 -5.00098c-1.33301 -24.667 -3 -51.667 -5 -81l-6.5 -92c-2.33301 -32 -4.16602 -63.667 -5.49902 -95
s-3.33301 -61.333 -6 -90c-13.333 -6.66699 -40.5 -12.167 -81.5 -16.5s-84.333 -7.5 -130 -9.5s-89.667 -3 -132 -3s-73.166 0.666992 -92.499 2c-1.33301 26 -3.33301 55.333 -6 88s-5 65.834 -7 99.501s-3.83301 66.5 -5.5 98.5l-4.5 87
c-40.667 -2.66699 -78.334 -5.33398 -113.001 -8.00098s-64.334 -5.33398 -89.001 -8.00098c-6.66699 34 -11.167 70.667 -13.5 110s-2.83301 77.833 -1.5 115.5zM103.002 229.502c2 41 5.83301 79.5 11.5 115.5s11.834 64.333 18.501 85
c28.667 2.66699 66.167 4.66699 112.5 6s96.833 2.66602 151.5 3.99902s111.334 2 170.001 2h170c54.667 0 104.5 -0.666992 149.5 -2s81.167 -3.33301 108.5 -6c4 -22 7.83301 -51.333 11.5 -88s6.5 -75.167 8.5 -115.5s2.33301 -78.833 1 -115.5s-4 -66.667 -8 -90
c-70.667 -4 -143.334 -7.16699 -218.001 -9.5s-149.167 -4.16602 -223.5 -5.49902s-148.833 -4 -223.5 -8s-147.334 -10 -218.001 -18c-9.33301 38 -15.833 78.167 -19.5 120.5s-4.5 84 -2.5 125z" />
    <glyph glyph-name="acute" unicode="&#xb4;" horiz-adv-x="790" 
d="M51 1178c23.333 35.333 44.833 74.5 64.5 117.5s37.834 85.333 54.501 127s31 81.167 43 118.5s22.333 68.333 31 93c92.667 0 180 -9.83301 262 -29.5s157.667 -47.167 227 -82.5l-189.5 -226.5c-65 -75.667 -129.5 -135.5 -193.5 -179.5
c-45.333 2.66699 -95.833 9.16699 -151.5 19.5s-104.834 24.5 -147.501 42.5z" />
    <glyph glyph-name="paragraph" unicode="&#xb6;" horiz-adv-x="2101" 
d="M51 1038c-6.66699 88.667 -2.50098 175.331 12.499 259.998s36.5 164 64.5 238s60.5 140.667 97.5 200s73.167 106.666 108.5 141.999c49.333 6.66699 119.333 12.167 210 16.5s191.334 7.83301 302.001 10.5s225.334 3.33398 344.001 2.00098s231 -3.5 337 -6.5
s199.5 -8.33301 280.5 -16s138.5 -17.5 172.5 -29.5l8.5 -442c3 -155.333 4.5 -314 4.5 -476s-2.5 -324.833 -7.5 -488.5s-12.833 -323.5 -23.5 -479.5c-56 -6.66699 -111.333 -10 -166 -10s-105.834 2 -153.501 6s-91 9.83301 -130 17.5s-70.833 15.5 -95.5 23.5
c-1.33301 32.667 -3.33301 68.5 -6 107.5l-8 120c-2.66699 41 -4.66699 81.333 -6 121s-2 75.167 -2 106.5c-27.333 4 -67.666 8.66699 -120.999 14c-4 -157.333 -6 -321.666 -6 -492.999c-78 -1.33301 -156.333 -4.16602 -235 -8.49902s-157.334 3.16699 -236.001 22.5
c-2.66699 84.667 -5.16699 172 -7.5 262l-7.5 279c-86 13.333 -164.167 26.833 -234.5 40.5s-123.166 27.167 -158.499 40.5c-28.667 24.667 -58.334 54.167 -89.001 88.5s-61 70.5 -91 108.5s-58.667 76.5 -86 115.5s-51.333 74.833 -72 107.5zM658.999 1081
c10.667 -5.33301 26.333 -11.333 47 -18s44.667 -13 72 -19c0 64 0.333008 128.333 1 193s1.66699 129 3 193c-48 -10.667 -76.667 -21.667 -86 -33c-1.33301 -8 -4.33301 -24 -9 -48s-9.66699 -51.333 -15 -82s-9.5 -62.5 -12.5 -95.5s-3.16699 -63.167 -0.5 -90.5z
M1286 974.997c56 -5.33301 96.333 -7.99902 121 -7.99902c4 24.667 7 56 9 94s3 78.833 3 122.5s-0.666992 87.5 -2 131.5s-3.33301 83.667 -6 119c-8 6.66699 -22.667 11.667 -44 15s-47.666 5.66602 -78.999 6.99902c1.33301 -83.333 1.66602 -164.833 0.999023 -244.5
s-1.66699 -158.5 -3 -236.5z" />
    <glyph glyph-name="periodcentered" unicode="&#xb7;" horiz-adv-x="905" 
d="M164 703.5c1.33301 25 3.66797 49.833 7.00098 74.5s6.33301 44.667 9 60c4 24.667 17.333 45.5 40 62.5s48.334 31.667 77.001 44s57.334 21.833 86.001 28.5s52 11.334 70 14.001c16.667 4 35.5 4.66699 56.5 2s42.333 -6.33398 64 -11.001
s43.167 -10.834 64.5 -18.501s38.666 -14.834 51.999 -21.501c19.333 -48 33.666 -97.833 42.999 -149.5s10.666 -104.167 3.99902 -157.5c-8 -16.667 -26.667 -31.167 -56 -43.5s-63.5 -22.833 -102.5 -31.5s-80 -15.167 -123 -19.5s-84 -6.16602 -123 -5.49902
s-72 4.83398 -99 12.501s-44.833 18.167 -53.5 31.5c-8 12 -13 30.167 -15 54.5s-2.33301 49 -1 74z" />
    <glyph glyph-name="cedilla" unicode="&#xb8;" horiz-adv-x="1658" 
d="M342 -8c30 2.66699 62.833 6.00684 98.5 10.0068s70.5 8.5 104.5 13.5s65.333 11.5 94 19.5s52 19 70 33c10.667 22 18.667 50.667 24 86s9.16602 75.166 11.499 119.499s3 91 2 140s-2.16699 96.833 -3.5 143.5c24.667 4 57.834 6 99.501 6s85 -1.33301 130 -4
s87.333 -6.66699 127 -12l90.5 -12c4 -50.667 6.33301 -110.167 7 -178.5s-1 -136.333 -5 -204s-11.833 -130.834 -23.5 -189.501s-27.834 -102.334 -48.501 -131.001c-49.333 -20.667 -106 -36.334 -170 -47.001s-129.5 -18.834 -196.5 -24.501
s-132.833 -9.16699 -197.5 -10.5s-123 -2 -175 -2c-6.66699 5.33301 -12.5 17.666 -17.5 36.999s-9.16699 41.166 -12.5 65.499s-5.66602 49.5 -6.99902 75.5s-2 48 -2 66z" />
    <glyph glyph-name="ordmasculine" unicode="&#xba;" horiz-adv-x="1290" 
d="M103 224.5c2 43 6.50195 82.835 13.502 119.502s14.5 66.667 22.5 90l136 5c55.333 2 115.5 3.66699 180.5 5s132.667 2.5 203 3.5s137.5 1 201.5 0s123.333 -2.16699 178 -3.5s98.334 -4 131.001 -8c4 -22 8.16699 -52.333 12.5 -91s7.5 -78.834 9.5 -120.501
s2.66699 -82.334 2 -122.001s-3.66699 -70.5 -9 -92.5c-84.667 -5.33301 -171.334 -9.33301 -260.001 -12s-177.834 -4.66699 -267.501 -6s-178.834 -4.16602 -267.501 -8.49902s-174.667 -10.5 -258 -18.5c-12 39.333 -20.167 81.666 -24.5 126.999s-5.5 89.5 -3.5 132.5z
M117.002 1193c0 80 0.666992 155.834 2 227.501s3.33301 128.5 6 170.5c31.333 35.333 75.333 65.333 132 90s118.834 43.5 186.501 56.5s138 19.833 211 20.5s142.667 -5.16602 209 -17.499s125.333 -31 177 -56s90.5 -58.167 116.5 -99.5c4 -26 7.33301 -62.5 10 -109.5
l8.5 -152.5c3 -54.667 4.83301 -111 5.5 -169s1 -113 1 -165s-0.333008 -97.667 -1 -137s-2.33398 -67.333 -5.00098 -84c-27.333 -36.667 -68.333 -68.334 -123 -95.001s-116.167 -46.834 -184.5 -60.501s-140 -20.5 -215 -20.5s-146.667 6.5 -215 19.5
s-129.833 33.167 -184.5 60.5s-95 61.333 -121 102c-5.33301 49.333 -9.33301 111.5 -12 186.5s-4 152.5 -4 232.5zM500.002 1165c0 -30 1.00098 -61.333 3.00098 -94s3.66699 -69.334 5 -110.001c20.667 -2.66699 43.5 -5.83398 68.5 -9.50098s50.5 -5.5 76.5 -5.5
s50.167 2.5 72.5 7.5s41.166 12.167 56.499 21.5c0 72.667 1.5 140 4.5 202s-2.5 127.667 -16.5 197c-16.667 0 -35.5 1 -56.5 3s-42.833 3.33301 -65.5 4s-45.167 0.333984 -67.5 -0.999023s-43.166 -6 -62.499 -14c-6.66699 -39.333 -11.334 -75.166 -14.001 -107.499
s-4 -63.5 -4 -93.5z" />
    <glyph glyph-name="guillemotright" unicode="&#xbb;" horiz-adv-x="1847" 
d="M98 143c39.333 78 78.5 150.5 117.5 217.5l116 192.5l112 179l107.5 177l-99.5 180.5l-110.5 200l-111.5 196.5l-100.5 173c40.667 2.66699 86.667 7.33398 138 14.001s100.833 12.5 148.5 17.5s89.334 8.5 125.001 10.5s58.167 1.66699 67.5 -1
c87.333 -128.667 169.666 -256.834 246.999 -384.501s149.333 -258.167 216 -391.5l-242.5 -404.5l-234.5 -413.5c-54.667 -4 -109 -5 -163 -3s-103.833 5.83301 -149.5 11.5s-84.667 11.167 -117 16.5s-54.5 9.33301 -66.5 12zM811 143c39.333 78 78.5 150.5 117.5 217.5
l115 192.5l111.5 179l109 177l-99.5 180.5l-111 200l-111.5 196.5l-100 173c40.667 2.66699 86.667 7.33398 138 14.001s100.5 12.5 147.5 17.5s88.667 8.5 125 10.5s58.5 1.66699 66.5 -1c88.667 -128.667 171.5 -256.834 248.5 -384.501s149.167 -258.167 216.5 -391.5
l-244 -405l-235 -413c-54.667 -4 -109 -5 -163 -3s-103.5 5.83301 -148.5 11.5s-83.667 11.167 -116 16.5s-54.5 9.33301 -66.5 12z" />
    <glyph glyph-name="questiondown" unicode="&#xbf;" horiz-adv-x="1449" 
d="M66 520.5c-1.33301 60.333 2.66992 110.834 12.0029 151.501l87 74.5l103.5 82.5c35.667 27.333 70.5 52.333 104.5 75s64 41.667 90 57c22 53.333 35.333 104.5 40 153.5s13 102.167 25 159.5c26 8 64.667 14.833 116 20.5s105.666 10.5 162.999 14.5
s112 7.33301 164 10s91.667 4 119 4c6.66699 -27.333 11 -59.5 13 -96.5s3 -74.167 3 -111.5s-1.33301 -74.166 -4 -110.499s-5.33398 -68.166 -8.00098 -95.499c-18 -16.667 -40 -35.834 -66 -57.501s-55 -43.667 -87 -66s-66.167 -44.5 -102.5 -66.5l-109.5 -64
c-6.66699 -32.667 -9 -66 -7 -100s7 -64 15 -90c18 -12 44 -19.5 78 -22.5s71.167 -4.16699 111.5 -3.5s82.333 3.5 126 8.5s85 11.167 124 18.5s73.5 14.166 103.5 20.499s51 12.166 63 17.499l-23 -121.5c-7.33301 -39 -15.833 -77.333 -25.5 -115s-20 -76 -31 -115
s-24.5 -80.833 -40.5 -125.5c-44 -23.333 -97.333 -41.833 -160 -55.5s-129.5 -22.834 -200.5 -27.501s-143.833 -6 -218.5 -4s-145.334 7 -212.001 15s-126.667 18.833 -180 32.5s-95 28.834 -125 45.501c-8 32.667 -16.833 76.334 -26.5 131.001s-17.5 112.667 -23.5 174
s-9.66699 122.166 -11 182.499zM488.003 1733c-2.66699 31.333 -1.33008 63.332 4.00293 95.999c16.667 16.667 40.167 32 70.5 46s65 26.167 104 36.5s79.667 18.333 122 24s83.333 8.5 123 8.5s75.5 -2.5 107.5 -7.5s57 -12.833 75 -23.5
c8 -5.33301 14 -21.666 18 -48.999s6.33301 -57.5 7 -90.5s-0.333008 -63.833 -3 -92.5s-7.33398 -47 -14.001 -55c-30 -36.667 -69.667 -65 -119 -85s-100.833 -32 -154.5 -36s-106.834 -1.5 -159.501 7.5s-98.334 21.5 -137.001 37.5
c-1.33301 6.66699 -5.33301 18.667 -12 36s-13 38.333 -19 63s-10.333 52.667 -13 84z" />
    <glyph glyph-name="Agrave" unicode="&#xc0;" horiz-adv-x="2078" 
d="M6 -27c35.333 -5.33301 78 -10.0098 128 -14.0098s102 -6 156 -6s106.833 2 158.5 6s96.834 10 135.501 18l21 79c6 22.667 12.833 44 20.5 64s16.667 39.833 27 59.5l35.5 68.5c35.333 8 80.333 14 135 18s112.834 6.66699 174.501 8s123.5 1 185.5 -1
s117 -5.66699 165 -11c6.66699 -31.333 13 -58.666 19 -81.999s12.167 -45.166 18.5 -65.499s13.5 -42.166 21.5 -65.499l29 -82c40.667 -1.33301 86.667 -1.66602 138 -0.999023s104.666 2.33398 159.999 5.00098s110.833 6.83398 166.5 12.501s109.5 12.5 161.5 20.5
c-23.333 157.333 -49.166 308.333 -77.499 453s-58 285.834 -89 423.501l-95.5 411.5l-98 414c-48 10.667 -107.167 18.834 -177.5 24.501s-146 9.83398 -227 12.501s-164.5 3.33398 -250.5 2.00098s-169 -4 -249 -8s-153.5 -9.83301 -220.5 -17.5
s-121.5 -16.167 -163.5 -25.5c-9.33301 -19.333 -18.166 -41.666 -26.499 -66.999s-16.333 -52.333 -24 -81s-14.834 -57.334 -21.501 -86.001s-13.334 -54.667 -20.001 -78c8 -2.66699 19.5 -5.66699 34.5 -9s29.833 -6.33301 44.5 -9c18 -4 37.333 -6.66699 58 -8
l-135 -349.5c-48 -127.667 -93.5 -254.667 -136.5 -381s-80.833 -246.833 -113.5 -361.5s-55.334 -211.667 -68.001 -291zM641 2217.99c140.667 72.667 302.998 110.998 486.998 114.998c8 -27.333 18.333 -59.5 31 -96.5s27.167 -76.333 43.5 -118s34.333 -83.667 54 -126
s41.834 -81.833 66.501 -118.5c-22 -9.33301 -45.667 -17.166 -71 -23.499s-51.166 -12.166 -77.499 -17.499s-52.5 -9.33301 -78.5 -12s-50 -5.66699 -72 -9c-31.333 22 -63.333 48.667 -96 80s-65.167 64.5 -97.5 99.5s-64.5 72.333 -96.5 112zM837.998 701.988
c0 9.33301 3.33398 28.5 10.001 57.5s15.834 63 27.501 102s24.667 79.667 39 122l41 118.5l35 97c10.333 28 17.5 45.333 21.5 52c15.333 28.667 33.5 44.834 54.5 48.501s39.5 -12.5 55.5 -48.5c13.333 -30 26.666 -67.5 39.999 -112.5s25.333 -92.667 36 -143
s20.167 -101.666 28.5 -153.999s14.5 -98.833 18.5 -139.5c-13.333 -2.66699 -37.833 -5.33398 -73.5 -8.00098s-74.334 -4 -116.001 -4s-82.667 0.666992 -123 2s-71.833 4.66602 -94.5 9.99902z" />
    <glyph glyph-name="Aacute" unicode="&#xc1;" horiz-adv-x="2078" 
d="M6 -27c12 79.333 34.498 176.343 67.498 291.01s71 235.167 114 361.5l136 381l135.5 349.5c-20.667 1.33301 -40 4 -58 8c-15.333 2.66699 -30.333 5.66699 -45 9s-26 6.33301 -34 9c6.66699 23.333 13.334 49.333 20.001 78s13.834 57.334 21.501 86.001
s15.5 55.667 23.5 81s17 47.666 27 66.999c42 9.33301 96.5 17.833 163.5 25.5s140.5 13.5 220.5 17.5s163 6.66699 249 8s169.5 0.666016 250.5 -2.00098s156.667 -6.83398 227 -12.501s129.5 -13.834 177.5 -24.501l98 -414l95.5 -411.5
c31 -137.667 60.667 -278.834 89 -423.501s54.166 -295.667 77.499 -453c-52 -8 -105.833 -14.833 -161.5 -20.5s-111.167 -9.83398 -166.5 -12.501s-108.666 -4.33398 -159.999 -5.00098s-97.333 -0.333984 -138 0.999023l-28.5 82
c-8.33301 23.333 -15.666 45.166 -21.999 65.499s-12.5 42.166 -18.5 65.499s-12.333 50.666 -19 81.999c-48 5.33301 -103 9 -165 11s-123.833 2.33301 -185.5 1s-119.834 -4 -174.501 -8s-99.667 -10 -135 -18l-35.5 -68.5c-10.333 -19.667 -19.333 -39.5 -27 -59.5
s-14.5 -41.167 -20.5 -63.5l-21 -79.5c-38 -8 -83 -14 -135 -18s-105 -6 -159 -6s-106 2 -156 6s-92.667 8.66699 -128 14zM837.998 702.01c23.333 -5.33301 55 -8.66699 95 -10s80.833 -2 122.5 -2s80.334 1.33301 116.001 4s60.167 5.33398 73.5 8.00098
c-4 40.667 -10.167 87.167 -18.5 139.5s-17.833 103.666 -28.5 153.999s-22.5 98 -35.5 143s-26.5 82.5 -40.5 112.5c-16.667 35.333 -35.5 51.333 -56.5 48s-38.833 -19.333 -53.5 -48c-4 -6.66699 -11.167 -24 -21.5 -52l-35 -97l-41 -118.5
c-14.333 -42.333 -27.333 -83 -39 -122s-20.834 -72.833 -27.501 -101.5s-10 -48 -10 -58zM873.998 1868.01c24.667 35.333 47.001 74.5 67.001 117.5s38.167 85.333 54.5 127s30.666 81 42.999 118l30.5 93.5c91.333 -1.33301 178 -11.833 260 -31.5
s157.667 -47.167 227 -82.5l-189 -227.5c-64.667 -75 -129 -134.5 -193 -178.5c-45.333 2.66699 -96 9.5 -152 20.5s-105.333 25.5 -148 43.5z" />
    <glyph glyph-name="Acircumflex" unicode="&#xc2;" horiz-adv-x="2078" 
d="M6 -27c12 79.333 34.498 176.343 67.498 291.01s71 235.167 114 361.5l136 381l135.5 349.5c-20.667 1.33301 -40 4 -58 8c-15.333 2.66699 -30.333 5.66699 -45 9s-26 6.33301 -34 9c6.66699 23.333 13.334 49.333 20.001 78s13.834 57.334 21.501 86.001
s15.5 55.667 23.5 81s17 47.666 27 66.999c42 9.33301 96.5 17.833 163.5 25.5s140.5 13.5 220.5 17.5s163 6.66699 249 8s169.5 0.666016 250.5 -2.00098s156.667 -6.83398 227 -12.501s129.5 -13.834 177.5 -24.501l98 -414l95.5 -411.5
c31 -137.667 60.667 -278.834 89 -423.501s54.166 -295.667 77.499 -453c-52 -8 -105.833 -14.833 -161.5 -20.5s-111.167 -9.83398 -166.5 -12.501s-108.666 -4.33398 -159.999 -5.00098s-97.333 -0.333984 -138 0.999023l-28.5 82
c-8.33301 23.333 -15.666 45.166 -21.999 65.499s-12.5 42.166 -18.5 65.499s-12.333 50.666 -19 81.999c-48 5.33301 -103 9 -165 11s-123.833 2.33301 -185.5 1s-119.834 -4 -174.501 -8s-99.667 -10 -135 -18l-35.5 -68.5c-10.333 -19.667 -19.333 -39.5 -27 -59.5
s-14.5 -41.167 -20.5 -63.5l-21 -79.5c-38 -8 -83 -14 -135 -18s-105 -6 -159 -6s-106 2 -156 6s-92.667 8.66699 -128 14zM550.998 1825.01c13.333 36.667 30 76.166 50 118.499s41.833 86 65.5 131s48.834 90 75.501 135l79 127.5c26 2.66699 61.167 5 105.5 7
s90.166 3.33301 137.499 4s91.833 0.666992 133.5 0s73.167 -1.66699 94.5 -3l70 -119.5l79 -131l77.5 -131.5c25 -43.333 48.5 -82 70.5 -116c-28.667 -1.33301 -61 -4 -97 -8s-70.833 -7.66699 -104.5 -11s-63 -5.66602 -88 -6.99902s-41.167 -1.33301 -48.5 0
c-9.33301 18 -20.833 38.167 -34.5 60.5l-41 65l-39 58.5l-28.5 41l-12.5 18.5c-5.66699 8.33301 -12.5 12.5 -20.5 12.5c-12 0 -21.833 -5.16699 -29.5 -15.5l-17.5 -23.5l-70.5 -107.5c-25 -39 -45.833 -76.833 -62.5 -113.5c-38 -4 -75.833 -6.5 -113.5 -7.5
s-72.167 -0.833008 -103.5 0.5s-58.333 3.83301 -81 7.5zM837.998 702.009c23.333 -5.33301 55 -8.66699 95 -10s80.833 -2 122.5 -2s80.334 1.33301 116.001 4s60.167 5.33398 73.5 8.00098c-4 40.667 -10.167 87.167 -18.5 139.5s-17.833 103.666 -28.5 153.999
s-22.5 98 -35.5 143s-26.5 82.5 -40.5 112.5c-16.667 35.333 -35.5 51.333 -56.5 48s-38.833 -19.333 -53.5 -48c-4 -6.66699 -11.167 -24 -21.5 -52l-35 -97l-41 -118.5c-14.333 -42.333 -27.333 -83 -39 -122s-20.834 -72.833 -27.501 -101.5s-10 -48 -10 -58z" />
    <glyph glyph-name="Atilde" unicode="&#xc3;" horiz-adv-x="2078" 
d="M6 -27c12 79.333 34.498 176.343 67.498 291.01s71 235.167 114 361.5l136 381l135.5 349.5c-20.667 1.33301 -40 4 -58 8c-15.333 2.66699 -30.333 5.66699 -45 9s-26 6.33301 -34 9c6.66699 23.333 13.334 49.333 20.001 78s13.834 57.334 21.501 86.001
s15.5 55.667 23.5 81s17 47.666 27 66.999c42 9.33301 96.5 17.833 163.5 25.5s140.5 13.5 220.5 17.5s163 6.66699 249 8s169.5 0.666016 250.5 -2.00098s156.667 -6.83398 227 -12.501s129.5 -13.834 177.5 -24.501l98 -414l95.5 -411.5
c31 -137.667 60.667 -278.834 89 -423.501s54.166 -295.667 77.499 -453c-52 -8 -105.833 -14.833 -161.5 -20.5s-111.167 -9.83398 -166.5 -12.501s-108.666 -4.33398 -159.999 -5.00098s-97.333 -0.333984 -138 0.999023l-28.5 82
c-8.33301 23.333 -15.666 45.166 -21.999 65.499s-12.5 42.166 -18.5 65.499s-12.333 50.666 -19 81.999c-48 5.33301 -103 9 -165 11s-123.833 2.33301 -185.5 1s-119.834 -4 -174.501 -8s-99.667 -10 -135 -18l-35.5 -68.5c-10.333 -19.667 -19.333 -39.5 -27 -59.5
s-14.5 -41.167 -20.5 -63.5l-21 -79.5c-38 -8 -83 -14 -135 -18s-105 -6 -159 -6s-106 2 -156 6s-92.667 8.66699 -128 14zM499.998 1956.01c19.333 32.667 41.168 67.5 65.501 104.5s50.833 72.167 79.5 105.5s58.667 64 90 92s62 47.333 92 58
c31.333 13.333 64.5 16.333 99.5 9s71.667 -19.5 110 -36.5s77.166 -36.333 116.499 -58s80.333 -40.834 123 -57.5c28.667 -10.667 56.667 -10.334 84 1c27.333 11.333 52.666 26 75.999 44c26 22 51 48.667 75 80c34 -15.333 66.333 -33.833 97 -55.5
s55.667 -46.834 75 -75.5l-69 -85.5c-32.667 -40.333 -68.834 -81 -108.501 -122s-80.667 -76.5 -123 -106.5s-79.833 -44.333 -112.5 -43c-36.667 4 -78.667 14.333 -126 31s-93.166 34.167 -137.499 52.5s-84.166 34 -119.499 47s-60 17.5 -74 13.5
c-18 -6.66699 -40.167 -22.334 -66.5 -47.001s-50.5 -50 -72.5 -76c-90 36.667 -148 78.334 -174 125.001zM838 702.01c23.333 -5.33301 55 -8.66699 95 -10s80.833 -2 122.5 -2s80.334 1.33301 116.001 4s60.167 5.33398 73.5 8.00098
c-4 40.667 -10.167 87.167 -18.5 139.5s-17.833 103.666 -28.5 153.999s-22.5 98 -35.5 143s-26.5 82.5 -40.5 112.5c-16.667 35.333 -35.5 51.333 -56.5 48s-38.833 -19.333 -53.5 -48c-4 -6.66699 -11.167 -24 -21.5 -52l-35 -97l-41 -118.5
c-14.333 -42.333 -27.333 -83 -39 -122s-20.834 -72.833 -27.501 -101.5s-10 -48 -10 -58z" />
    <glyph glyph-name="Adieresis" unicode="&#xc4;" horiz-adv-x="2078" 
d="M6 -27c35.333 -5.33301 78 -10.0098 128 -14.0098s102 -6 156 -6s106.833 2 158.5 6s96.834 10 135.501 18l21 79c6 22.667 12.833 44 20.5 64s16.667 39.833 27 59.5l35.5 68.5c35.333 8 80.333 14 135 18s112.834 6.66699 174.501 8s123.5 1 185.5 -1
s117 -5.66699 165 -11c6.66699 -31.333 13 -58.666 19 -81.999s12.167 -45.166 18.5 -65.499s13.5 -42.166 21.5 -65.499l29 -82c40.667 -1.33301 86.667 -1.66602 138 -0.999023s104.666 2.33398 159.999 5.00098s110.833 6.83398 166.5 12.501s109.5 12.5 161.5 20.5
c-23.333 157.333 -49.166 308.333 -77.499 453s-58 285.834 -89 423.501l-95.5 411.5l-98 414c-48 10.667 -107.167 18.834 -177.5 24.501s-146 9.83398 -227 12.501s-164.5 3.33398 -250.5 2.00098s-169 -4 -249 -8s-153.5 -9.83301 -220.5 -17.5
s-121.5 -16.167 -163.5 -25.5c-9.33301 -19.333 -18.166 -41.666 -26.499 -66.999s-16.333 -52.333 -24 -81s-14.834 -57.334 -21.501 -86.001s-13.334 -54.667 -20.001 -78c8 -2.66699 19.5 -5.66699 34.5 -9s29.833 -6.33301 44.5 -9c18 -4 37.333 -6.66699 58 -8
l-135 -349.5c-48 -127.667 -93.5 -254.667 -136.5 -381s-80.833 -246.833 -113.5 -361.5s-55.334 -211.667 -68.001 -291zM605 2015.99c0.666992 30.667 2.33398 60.335 5.00098 89.002s5.33398 52 8.00098 70c4 28.667 14.667 53.167 32 73.5s37.166 37.666 59.499 52
c22.333 14.333 45.166 25.666 68.499 34c23.333 8.33301 42.666 13.833 57.999 16.5c12 4 26.5 4.66699 43.5 2s34 -7.33398 51 -14c17 -6.66699 33.833 -14.167 50.5 -22.5s30.334 -16.5 41.001 -24.5c15.333 -54.667 27 -112.834 35 -174.5
c8 -61.667 8.66699 -123.834 2 -186.501c-6.66699 -18 -21.667 -34.667 -45 -50s-50 -27.833 -80 -37.5s-62.5 -17.334 -97.5 -23.001s-67.5 -7.66699 -97.5 -6s-55.833 6.5 -77.5 14.5s-36.167 20.333 -43.5 37c-5.33301 16.667 -9 38.167 -11 64.5
s-2.66699 54.833 -2 85.5zM838 701.991c0 9.33301 3.33398 28.5 10.001 57.5s15.834 63 27.501 102s24.667 79.667 39 122l41 118.5l35 97c10.333 28 17.5 45.333 21.5 52c15.333 28.667 33.5 44.834 54.5 48.501s39.5 -12.5 55.5 -48.5
c13.333 -30 26.666 -67.5 39.999 -112.5s25.333 -92.667 36 -143s20.167 -101.666 28.5 -153.999s14.5 -98.833 18.5 -139.5c-13.333 -2.66699 -37.833 -5.33398 -73.5 -8.00098s-74.334 -4 -116.001 -4s-82.667 0.666992 -123 2s-71.833 4.66602 -94.5 9.99902z
M1275 2027.99c0.666992 28.667 2.33008 56.833 4.99707 84.499c2.66699 27.667 4.66699 49.834 6 66.501c4 28.667 13.833 52.167 29.5 70.5s33.834 34 54.501 47s41.5 23.667 62.5 32s38.5 14.5 52.5 18.5c10.667 2.66699 23.834 3 39.501 1s31.667 -6 48 -12
s32 -13.167 47 -21.5s27.5 -16.5 37.5 -24.5c15.333 -52 26.333 -107 33 -165s7.33398 -117 2.00098 -177c-6.66699 -18 -20.334 -33.833 -41.001 -47.5s-45.334 -25.667 -74.001 -36s-58.667 -17.833 -90 -22.5s-61 -6 -89 -4s-52.333 6.5 -73 13.5
s-33.667 17.833 -39 32.5c-5.33301 15.333 -8.66602 36 -9.99902 62s-1.66602 53.333 -0.999023 82z" />
    <glyph glyph-name="Aring" unicode="&#xc5;" horiz-adv-x="2078" 
d="M6 -27c12 79.333 34.498 176.343 67.498 291.01s71 235.167 114 361.5l136 381l135.5 349.5c-20.667 1.33301 -40 4 -58 8c-15.333 2.66699 -30.333 5.66699 -45 9s-26 6.33301 -34 9c6.66699 23.333 13.334 49.333 20.001 78s13.834 57.334 21.501 86.001
s15.5 55.667 23.5 81s17 47.666 27 66.999c42 9.33301 96.5 17.833 163.5 25.5s140.5 13.5 220.5 17.5s163 6.66699 249 8s169.5 0.666016 250.5 -2.00098s156.667 -6.83398 227 -12.501s129.5 -13.834 177.5 -24.501l98 -414l95.5 -411.5
c31 -137.667 60.667 -278.834 89 -423.501s54.166 -295.667 77.499 -453c-52 -8 -105.833 -14.833 -161.5 -20.5s-111.167 -9.83398 -166.5 -12.501s-108.666 -4.33398 -159.999 -5.00098s-97.333 -0.333984 -138 0.999023l-28.5 82
c-8.33301 23.333 -15.666 45.166 -21.999 65.499s-12.5 42.166 -18.5 65.499s-12.333 50.666 -19 81.999c-48 5.33301 -103 9 -165 11s-123.833 2.33301 -185.5 1s-119.834 -4 -174.501 -8s-99.667 -10 -135 -18l-35.5 -68.5c-10.333 -19.667 -19.333 -39.5 -27 -59.5
s-14.5 -41.167 -20.5 -63.5l-21 -79.5c-38 -8 -83 -14 -135 -18s-105 -6 -159 -6s-106 2 -156 6s-92.667 8.66699 -128 14zM636.998 2072.51c0 34.333 0.669922 66.5039 2.00293 96.5039s3.33301 54 6 72c28.667 15.333 69 27.666 121 36.999s109 17 171 23
s126.833 9 194.5 9s131.834 -2.33301 192.501 -7s115 -12.5 163 -23.5s83.333 -24.833 106 -41.5c5.33301 -16.667 9.83301 -42 13.5 -76s6.16699 -69.333 7.5 -106s1.66602 -70.834 0.999023 -102.501s-2.33398 -52.167 -5.00098 -61.5
c-24.667 -16.667 -62.334 -30.334 -113.001 -41.001s-107.334 -18.667 -170.001 -24s-128.5 -8 -197.5 -8s-134.833 2.66699 -197.5 8s-118.667 13.833 -168 25.5s-86.333 25.5 -111 41.5c-5.33301 22 -9.33301 48.667 -12 80s-4 64.166 -4 98.499zM838.001 702.014
c23.333 -5.33301 55 -8.66699 95 -10s80.833 -2 122.5 -2s80.334 1.33301 116.001 4s60.167 5.33398 73.5 8.00098c-4 40.667 -10.167 87.167 -18.5 139.5s-17.833 103.666 -28.5 153.999s-22.5 98 -35.5 143s-26.5 82.5 -40.5 112.5c-16.667 35.333 -35.5 51.333 -56.5 48
s-38.833 -19.333 -53.5 -48c-4 -6.66699 -11.167 -24 -21.5 -52l-35 -97l-41 -118.5c-14.333 -42.333 -27.333 -83 -39 -122s-20.834 -72.833 -27.501 -101.5s-10 -48 -10 -58zM989.501 2059.01c1 -22.667 3.50098 -51.667 7.50098 -87c18 -1.33301 38.667 -2.33301 62 -3
s46.833 -1 70.5 -1s46.167 0.333008 67.5 1s38.666 3.66699 51.999 9c0 32.667 1 61.667 3 87s-3 53 -15 83c-31.333 0 -68.833 1 -112.5 3s-83.167 -0.333008 -118.5 -7c-12 -34 -17.5 -62.333 -16.5 -85z" />
    <glyph glyph-name="AE" unicode="&#xc6;" horiz-adv-x="2826" 
d="M8 -31c22 90 56.1699 198.504 102.503 325.504s98.833 260.833 157.5 401.5l183.5 422l177.5 389c-20.667 1.33301 -40 3.33301 -58 6l-46 11.5c-15.333 3.66699 -26.333 7.5 -33 11.5c2.66699 24.667 6.66699 53 12 85s12.166 64 20.499 96s17.166 62 26.499 90
s19.666 51.667 30.999 71c40.667 9.33301 94.167 17.833 160.5 25.5s139 13.834 218 18.501s160.5 8.66699 244.5 12s165 5 243 5c100 6.66699 207.667 11.834 323 15.501s230 5.5 344 5.5s223.5 -1.33301 328.5 -4s196.5 -5.33398 274.5 -8.00098
c8 -22 13.333 -51.167 16 -87.5s4.33398 -73.833 5 -112.5c0.666992 -38.667 0.333984 -77.167 -1 -115.5c-1.33301 -38.333 -2.66602 -69.833 -4 -94.5c-52 -1.33301 -105.667 -2 -161 -2h-168c-56.667 0 -112.167 -0.666992 -166.5 -2s-107.5 -4.66602 -159.5 -9.99902
c-10.667 -16.667 -18.834 -41.334 -24.501 -74.001s-8.16699 -68.167 -7.5 -106.5s3.66699 -75.833 9.00098 -112.5c5.33301 -36.667 14.333 -67.334 27 -92.001c4 -1.33301 18.667 -2 44 -2s56.333 0.333008 93 1s76.834 1 120.5 1h128c41.667 0 80 -0.333008 115 -1
s61.167 -3.33398 78.5 -8.00098c5.33301 -49.333 9.5 -102.5 12.5 -159.5s1.83301 -109.5 -3.5 -157.5c-46.667 -4 -93.834 -6.33301 -141.5 -7c-47.667 -0.666992 -95.834 -1.66699 -144.5 -3c-48.667 -1.33301 -96.834 -3 -144.5 -5c-47.667 -2 -94.167 -8 -139.5 -18
c-8 -20.667 -12.667 -47.667 -14 -81s-0.333008 -68.333 3 -105s8.16602 -72.834 14.5 -108.501c6.33301 -35.667 12.166 -63.834 17.5 -84.501c31.333 -9.33301 72.5 -15 123.5 -17s105.167 -2 162.5 0s114 3.66699 170 5s103.333 -0.666992 142 -6
c9.33301 -61.333 14.666 -127.166 16 -197.499c1.33301 -70.333 -5.33398 -136.833 -20.001 -199.5c-110.667 -10.667 -219 -18.834 -325 -24.501s-211.167 -8.83398 -315.5 -9.50098s-209.333 0.333008 -315 3l-324.5 8l-31.5 158c-10.333 52 -17.833 105.333 -22.5 160
c-46.667 16.667 -100.667 27.167 -162 31.5s-123 5.5 -185 3.5s-120.667 -7 -176 -15s-100.666 -16.333 -135.999 -25l-45.5 -77.5c-12.333 -21.667 -23.5 -43.834 -33.5 -66.501s-19.5 -46.167 -28.5 -70.5s-18.833 -53.166 -29.5 -86.499
c-38 -9.33301 -83.333 -16 -136 -20s-106 -6 -160 -6s-106 1.66699 -156 5s-92 8.33301 -126 15zM928.003 780.004c19.333 -10.667 48.665 -17.002 87.998 -19.002s80.166 -2.33301 122.499 -1s82.333 4.33301 120 9s63.167 9 76.5 13c1.33301 45.333 1 96.333 -1 153
s-5.66699 113.334 -11 170.001s-11.833 109.834 -19.5 159.501s-16.167 91.167 -25.5 124.5c-12 40.667 -28.667 59 -50 55s-41.666 -22.333 -60.999 -55c-5.33301 -8 -14.833 -27.167 -28.5 -57.5l-46 -107l-54 -133l-53 -135
c-16.333 -42.333 -29.666 -79.5 -39.999 -111.5s-16.166 -53.667 -17.499 -65z" />
    <glyph glyph-name="Ccedilla" unicode="&#xc7;" horiz-adv-x="1679" 
d="M75 762c-4.66699 86 -4.00098 176.834 1.99902 272.501s16.833 188.5 32.5 278.5s36.167 173.167 61.5 249.5s53.666 138.5 84.999 186.5c39.333 20.667 94.833 40.167 166.5 58.5s151.667 35.333 240 51s179.5 29 273.5 40s182.667 18.5 266 22.5
s156.833 5.33301 220.5 4s108.167 -7.33301 133.5 -18c2.66699 -16.667 5.5 -38.667 8.5 -66s5.16699 -57.333 6.5 -90s1 -67.834 -1 -105.501s-6.66699 -76.167 -14 -115.5c-70.667 -6.66699 -137 -11.167 -199 -13.5s-121.667 -6.16602 -179 -11.499
s-113 -13.166 -167 -23.499s-108.333 -26.166 -163 -47.499c-15.333 -50.667 -30.166 -110.5 -44.499 -179.5s-24.833 -138.333 -31.5 -208s-7.66699 -135.167 -3 -196.5s18 -110.666 40 -147.999c23.333 -15.333 56.833 -27 100.5 -35s92.167 -14 145.5 -18
s108.666 -7.33301 165.999 -10s111.166 -4.66699 161.499 -6s94.5 -3.5 132.5 -6.5s65.333 -7.83301 82 -14.5c1.33301 -30 0.333008 -65.5 -3 -106.5s-8 -80.833 -14 -119.5s-14.167 -72.667 -24.5 -102s-22.166 -49 -35.499 -59c-52 0 -104.667 0.333008 -158 1
s-108.666 1.66699 -165.999 3c-2.66699 -82 -9.5 -159.833 -20.5 -233.5s-29.5 -128.167 -55.5 -163.5c-49.333 -20.667 -106 -36.334 -170 -47.001s-129.5 -18.834 -196.5 -24.501s-132.833 -9.16699 -197.5 -10.5s-123 -2 -175 -2
c-6.66699 5.33301 -12.5 17.666 -17.5 36.999s-9.16699 41.166 -12.5 65.499s-5.66602 49.5 -6.99902 75.5s-2 48 -2 66c30 2.66699 62.833 6 98.5 10s70.5 8.5 104.5 13.5s65.333 11.5 94 19.5s52 19 70 33c10.667 19.333 18.334 46 23.001 80s8.33398 71.333 11.001 112
c-101.333 10.667 -200 25.667 -296 45s-187.667 44 -275 74c-28.667 35.333 -50.834 86.5 -66.501 153.5s-25.834 143.5 -30.501 229.5z" />
    <glyph glyph-name="Egrave" unicode="&#xc8;" horiz-adv-x="1736" 
d="M72 1370c23.333 0 50.333 -0.333008 81 -1s57.334 -1 80.001 -1c-2.66699 -110.667 -5 -226 -7 -346s-2.66699 -239.5 -2 -358.5s2.83398 -235.833 6.50098 -350.5s10.167 -223 19.5 -325c125.333 -13.333 245.333 -22.5 360 -27.5s227 -7.16699 337 -6.5
s218.667 4 326 10s217 14 329 24c16.667 56 24.167 115.667 22.5 179s-7.16699 122.333 -16.5 177c-38 4 -87.167 5.33301 -147.5 4s-121.5 -2.33301 -183.5 -3s-120.667 -0.666992 -176 0s-98 5.66699 -128 15c-4 20.667 -7.83301 46.334 -11.5 77.001
s-6.16699 62.834 -7.5 96.501s-0.166016 66.167 3.50098 97.5s10.167 55 19.5 71c46.667 8 94.167 13.5 142.5 16.5s97 4.5 146 4.5s98.167 0.333008 147.5 1s97 3 143 7c6.66699 45.333 8.83398 93.5 6.50098 144.5s-6.5 98.5 -12.5 142.5
c-18 2.66699 -44.333 4.66699 -79 6s-72.167 2 -112.5 2s-82 -0.333008 -125 -1s-82.5 -1.33398 -118.5 -2.00098s-66.333 -1 -91 -1s-39 0.666992 -43 2c-9.33301 22 -15.833 49.667 -19.5 83s-4.33398 67.166 -2.00098 101.499s7.16602 66.5 14.499 96.5
s16.333 51.667 27 65c104 10.667 207.5 14.667 310.5 12s206.5 -2.66699 310.5 0c1.33301 23.333 2.66602 51.833 3.99902 85.5s1.66602 68.5 0.999023 104.5s-2.33398 70 -5.00098 102s-8 57.667 -16 77c-65.333 4 -137.666 7 -216.999 9s-162.333 3.66699 -249 5
s-175.167 2 -265.5 2s-179.5 -2 -267.5 -6s-173.333 -10.833 -256 -20.5s-159.334 -20.5 -230.001 -32.5c-13.333 -50.667 -24.166 -105.667 -32.499 -165s-13.833 -117 -16.5 -173zM471 2243c69.333 36.667 144.999 64.834 226.999 84.5c82 19.667 168.667 30.167 260 31.5
c8 -26 18.333 -57.333 31 -94s27.167 -76.167 43.5 -118.5s34.333 -84.666 54 -127c19.667 -42.333 41.834 -81.166 66.501 -116.499c-22 -10.667 -45.667 -19.167 -71 -25.5l-77.5 -19c-26.333 -6.33301 -52.5 -10.833 -78.5 -13.5s-50 -5.33398 -72 -8.00098
c-64 45.333 -128.5 105.5 -193.5 180.5z" />
    <glyph glyph-name="Eacute" unicode="&#xc9;" horiz-adv-x="1736" 
d="M72 1370c2.66699 56 7.99805 113.667 15.998 173s19 114.333 33 165c70.667 12 147.334 22.833 230.001 32.5s168 16.5 256 20.5s177.167 6 267.5 6s178.833 -0.666992 265.5 -2s169.5 -3 248.5 -5s151.5 -5 217.5 -9c8 -19.333 13.333 -45 16 -77
s4.33398 -66 5.00098 -102s0.333984 -70.833 -0.999023 -104.5s-2.66602 -62.167 -3.99902 -85.5c-104 -2.66699 -207.5 -2.66699 -310.5 0s-206.5 -1.33301 -310.5 -12c-10.667 -13.333 -19.667 -35 -27 -65s-12.166 -62.167 -14.499 -96.5
s-1.66602 -68.166 2.00098 -101.499s10.167 -61 19.5 -83c4 -1.33301 18.333 -2 43 -2s55 0.333008 91 1s75.5 1.33398 118.5 2.00098s84.667 1 125 1s78 -0.666992 113 -2s61.167 -3.33301 78.5 -6c5.33301 -44 9.5 -91.5 12.5 -142.5s0.833008 -99.167 -6.5 -144.5
c-46.667 -4 -94.5 -6.33301 -143.5 -7s-98 -1 -147 -1s-97.667 -1.33301 -146 -4s-95.833 -8.33398 -142.5 -17.001c-9.33301 -16.667 -15.833 -40.5 -19.5 -71.5s-4.83398 -63.333 -3.50098 -97s3.83301 -65.834 7.5 -96.501s7.5 -56.334 11.5 -77.001
c30 -9.33301 72.667 -14.333 128 -15s114 -0.666992 176 0s123 1.66699 183 3s109.333 0 148 -4c9.33301 -54.667 14.666 -113.667 15.999 -177s-6 -123 -22 -179c-112 -9.33301 -221.667 -17.166 -329 -23.499s-216 -9.83301 -326 -10.5s-222.333 1.33301 -337 6
s-234.667 14 -360 28c-9.33301 102.667 -15.833 211.167 -19.5 325.5s-5.83398 231 -6.50098 350s0 238.5 2 358.5s4.33301 235.333 7 346c-23.333 0 -50.333 0.333008 -81 1s-57.334 1 -80.001 1zM699.998 1884c24.667 36.667 47.0029 76.1699 67.0029 118.503
s38.167 84.333 54.5 125.999c16.333 41.667 30.666 81 42.999 118l30.5 94.5c91.333 -1.33301 178 -12 260 -32s157.667 -47.667 227 -83l-189 -226.5c-64.667 -75.667 -129.334 -135.167 -194.001 -178.5c-22 1.33301 -45.833 3.66602 -71.5 6.99902
s-51.834 7.66602 -78.501 12.999s-52.667 11.5 -78 18.5s-49 15.167 -71 24.5z" />
    <glyph glyph-name="Ecircumflex" unicode="&#xca;" horiz-adv-x="1736" 
d="M72 1370c2.66699 56 7.99805 113.667 15.998 173s19 114.333 33 165c70.667 12 147.334 22.833 230.001 32.5s168 16.5 256 20.5s177.167 6 267.5 6s178.833 -0.666992 265.5 -2s169.5 -3 248.5 -5s151.5 -5 217.5 -9c8 -19.333 13.333 -45 16 -77
s4.33398 -66 5.00098 -102s0.333984 -70.833 -0.999023 -104.5s-2.66602 -62.167 -3.99902 -85.5c-104 -2.66699 -207.5 -2.66699 -310.5 0s-206.5 -1.33301 -310.5 -12c-10.667 -13.333 -19.667 -35 -27 -65s-12.166 -62.167 -14.499 -96.5
s-1.66602 -68.166 2.00098 -101.499s10.167 -61 19.5 -83c4 -1.33301 18.333 -2 43 -2s55 0.333008 91 1s75.5 1.33398 118.5 2.00098s84.667 1 125 1s78 -0.666992 113 -2s61.167 -3.33301 78.5 -6c5.33301 -44 9.5 -91.5 12.5 -142.5s0.833008 -99.167 -6.5 -144.5
c-46.667 -4 -94.5 -6.33301 -143.5 -7s-98 -1 -147 -1s-97.667 -1.33301 -146 -4s-95.833 -8.33398 -142.5 -17.001c-9.33301 -16.667 -15.833 -40.5 -19.5 -71.5s-4.83398 -63.333 -3.50098 -97s3.83301 -65.834 7.5 -96.501s7.5 -56.334 11.5 -77.001
c30 -9.33301 72.667 -14.333 128 -15s114 -0.666992 176 0s123 1.66699 183 3s109.333 0 148 -4c9.33301 -54.667 14.666 -113.667 15.999 -177s-6 -123 -22 -179c-112 -9.33301 -221.667 -17.166 -329 -23.499s-216 -9.83301 -326 -10.5s-222.333 1.33301 -337 6
s-234.667 14 -360 28c-9.33301 102.667 -15.833 211.167 -19.5 325.5s-5.83398 231 -6.50098 350s0 238.5 2 358.5s4.33301 235.333 7 346c-23.333 0 -50.333 0.333008 -81 1s-57.334 1 -80.001 1zM398.998 1847c13.333 36.667 29.9951 76.333 49.9951 119s42 86.5 66 131.5
s49.333 90 76 135s53 87.167 79 126.5c26 2.66699 61.167 5.16699 105.5 7.5s90 3.83301 137 4.5s91.333 0.666992 133 0s73.5 -2.66699 95.5 -6l69.5 -119.5l78.5 -133l78 -129l71 -113.5c-28.667 -1.33301 -61.167 -4.16602 -97.5 -8.49902
s-71.166 -8.16602 -104.499 -11.499s-62.666 -5.66602 -87.999 -6.99902s-41.333 -1.33301 -48 0c-9.33301 18 -21 37.833 -35 59.5l-41 65.5c-13.333 22 -26.166 41.833 -38.499 59.5s-22.166 31.167 -29.499 40.5l-12 18.5c-5.33301 8.33301 -12 12.5 -20 12.5
c-12 0 -21.833 -5.5 -29.5 -16.5l-17.5 -24.5l-71 -106.5c-25.333 -38.333 -46.333 -76.5 -63 -114.5c-38 -2.66699 -75.833 -4.33398 -113.5 -5.00098s-72.167 -0.333984 -103.5 0.999023s-58.166 3.66602 -80.499 6.99902z" />
    <glyph glyph-name="Edieresis" unicode="&#xcb;" horiz-adv-x="1736" 
d="M72 1370c23.333 0 50.333 -0.333008 81 -1s57.334 -1 80.001 -1c-2.66699 -110.667 -5 -226 -7 -346s-2.66699 -239.5 -2 -358.5s2.83398 -235.833 6.50098 -350.5s10.167 -223 19.5 -325c125.333 -13.333 245.333 -22.5 360 -27.5s227 -7.16699 337 -6.5
s218.667 4 326 10s217 14 329 24c16.667 56 24.167 115.667 22.5 179s-7.16699 122.333 -16.5 177c-38 4 -87.167 5.33301 -147.5 4s-121.5 -2.33301 -183.5 -3s-120.667 -0.666992 -176 0s-98 5.66699 -128 15c-4 20.667 -7.83301 46.334 -11.5 77.001
s-6.16699 62.834 -7.5 96.501s-0.166016 66.167 3.50098 97.5s10.167 55 19.5 71c46.667 8 94.167 13.5 142.5 16.5s97 4.5 146 4.5s98.167 0.333008 147.5 1s97 3 143 7c6.66699 45.333 8.83398 93.5 6.50098 144.5s-6.5 98.5 -12.5 142.5
c-18 2.66699 -44.333 4.66699 -79 6s-72.167 2 -112.5 2s-82 -0.333008 -125 -1s-82.5 -1.33398 -118.5 -2.00098s-66.333 -1 -91 -1s-39 0.666992 -43 2c-9.33301 22 -15.833 49.667 -19.5 83s-4.33398 67.166 -2.00098 101.499s7.16602 66.5 14.499 96.5
s16.333 51.667 27 65c104 10.667 207.5 14.667 310.5 12s206.5 -2.66699 310.5 0c1.33301 23.333 2.66602 51.833 3.99902 85.5s1.66602 68.5 0.999023 104.5s-2.33398 70 -5.00098 102s-8 57.667 -16 77c-65.333 4 -137.666 7 -216.999 9s-162.333 3.66699 -249 5
s-175.167 2 -265.5 2s-179.5 -2 -267.5 -6s-173.333 -10.833 -256 -20.5s-159.334 -20.5 -230.001 -32.5c-13.333 -50.667 -24.166 -105.667 -32.499 -165s-13.833 -117 -16.5 -173zM374 2041c0.666992 30.667 2.33398 60.3301 5.00098 88.9961
c2.66699 28.667 5.33398 52 8.00098 70c4 28.667 14.833 53.167 32.5 73.5s37.834 37.666 60.501 52c22.667 14.333 45.667 25.666 69 34c23.333 8.33301 41.666 13.833 54.999 16.5c12 4 26.667 4.66699 44 2s34.5 -7.5 51.5 -14.5s33.667 -14.5 50 -22.5
s30.166 -16.333 41.499 -25c15.333 -54.667 26.833 -112.667 34.5 -174s8.83398 -123.333 3.50098 -186c-10.667 -27.333 -37.834 -51 -81.501 -71s-90.834 -33.667 -141.501 -41s-97.5 -7.66602 -140.5 -0.999023s-69.167 22.334 -78.5 47.001
c-5.33301 16.667 -9 38.334 -11 65.001s-2.66699 55.334 -2 86.001zM1043 2052c0.666992 28.667 2.50098 56.998 5.50098 84.998s5.16699 50.333 6.5 67c4 28.667 14.167 52.167 30.5 70.5s34.666 34 54.999 47s41.166 23.5 62.499 31.5l52 19c10.667 2.66699 24 3 40 1
s31.833 -6.16699 47.5 -12.5s31 -13.5 46 -21.5s27.167 -16.333 36.5 -25c15.333 -52 26.333 -107 33 -165s7.33398 -117 2.00098 -177c-6.66699 -18 -20.167 -33.667 -40.5 -47s-44.833 -25.166 -73.5 -35.499s-58.834 -17.833 -90.501 -22.5s-61.5 -6 -89.5 -4
s-52.167 6.33301 -72.5 13s-33.166 17.667 -38.499 33s-8.83301 35.833 -10.5 61.5s-2.16699 52.834 -1.5 81.501z" />
    <glyph glyph-name="Igrave" unicode="&#xcc;" horiz-adv-x="897" 
d="M39 2161c142 70.667 304.331 107.999 486.998 111.999c8 -26 18.167 -57.333 30.5 -94s26.833 -76.167 43.5 -118.5s34.834 -84.666 54.501 -126.999s41.834 -81.166 66.501 -116.499c-42 -19.333 -91.167 -33.833 -147.5 -43.5s-106.833 -15.834 -151.5 -18.501
c-31.333 20.667 -63.5 46.667 -96.5 78s-65.5 64.5 -97.5 99.5s-63.667 72.333 -95 112zM160.998 829.999c0.666992 -142.667 3.3291 -284.17 7.99609 -424.503s11 -273.5 19 -399.5c15.333 -1.33301 37 -2.33301 65 -3s59.333 -0.666992 94 0
s70.834 2.33398 108.501 5.00098s73.167 5.83398 106.5 9.50098s63 7.5 89 11.5s44.667 8.66699 56 14c15.333 274.667 27.333 545.834 36 813.501s13 534.5 13 800.5h-139.5c-49 0 -99.167 -1.33301 -150.5 -4s-102.166 -6.5 -152.499 -11.5s-98.166 -11.5 -143.499 -19.5
c-4 -113.333 -6.66699 -238 -8 -374s-1.66602 -275.333 -0.999023 -418z" />
    <glyph glyph-name="Iacute" unicode="&#xcd;" horiz-adv-x="897" 
d="M161 830c-0.666992 142.667 -0.330078 282.002 1.00293 418.002s4 260.667 8 374c45.333 8 93.166 14.5 143.499 19.5s101.166 8.83301 152.499 11.5s101.5 4 150.5 4h139.5c0 -266 -4.5 -532.833 -13.5 -800.5s-20.833 -538.834 -35.5 -813.501
c-10.667 -5.33301 -29.167 -10 -55.5 -14s-56.166 -7.83301 -89.499 -11.5s-68.833 -6.83398 -106.5 -9.50098s-73.834 -4.33398 -108.501 -5.00098s-66 -0.666992 -94 0s-49.667 1.66699 -65 3c-8 125.333 -14.333 258.333 -19 399s-7.33398 282.334 -8.00098 425.001z
M246.004 1819c23.333 35.333 44.8359 74.5 64.5029 117.5s37.667 85.333 54 127s30.666 81.167 42.999 118.5l30.5 93c91.333 0 178.166 -9.83301 260.499 -29.5s158.166 -47.167 227.499 -82.5l-93.5 -114.5l-96.5 -112c-32 -36.333 -64.333 -70.166 -97 -101.499
s-64.667 -57.333 -96 -78c-22 1.33301 -46 3.66602 -72 6.99902s-52.333 7.5 -79 12.5s-52.667 10.833 -78 17.5s-48 15 -68 25z" />
    <glyph glyph-name="Icircumflex" unicode="&#xce;" horiz-adv-x="897" 
d="M27 1759c10.667 35.333 24.167 74.6641 40.5 117.997s34.166 87.5 53.499 132.5s39.5 89.667 60.5 134s42.5 85.5 64.5 123.5c20.667 4 49 6.66699 85 8s72.833 2.33301 110.5 3s73.5 0.666992 107.5 0s60 -1 78 -1l56.5 -118.5l63 -132l63 -129l58.5 -113.5
c-23.333 -1.33301 -49.666 -4.16602 -78.999 -8.49902s-57.5 -8.16602 -84.5 -11.499l-71.5 -9c-20.667 -2.66699 -33.667 -2.66699 -39 0c-8 18 -17.5 38.167 -28.5 60.5l-33 66.5c-11 22 -21.667 41.5 -32 58.5l-23.5 39.5c-2.66699 2.66699 -5.66699 8.16699 -9 16.5
s-8.33301 12.5 -15 12.5c-10.667 0 -19.167 -5.16699 -25.5 -15.5s-10.833 -18.166 -13.5 -23.499l-57.5 -106.5c-20.333 -38.333 -37.5 -76.5 -51.5 -114.5c-31.333 -2.66699 -62 -4 -92 -4s-58 0.333008 -84 1s-47.833 2.66699 -65.5 6zM161 829.998
c-0.666992 142.667 -0.330078 282.002 1.00293 418.002s4 260.667 8 374c45.333 8 93.166 14.5 143.499 19.5s101.166 8.83301 152.499 11.5s101.5 4 150.5 4h139.5c0 -266 -4.5 -532.833 -13.5 -800.5s-20.833 -538.834 -35.5 -813.501
c-10.667 -5.33301 -29.167 -10 -55.5 -14s-56.166 -7.83301 -89.499 -11.5s-68.833 -6.83398 -106.5 -9.50098s-73.834 -4.33398 -108.501 -5.00098s-66 -0.666992 -94 0s-49.667 1.66699 -65 3c-8 125.333 -14.333 258.333 -19 399s-7.33398 282.334 -8.00098 425.001z" />
    <glyph glyph-name="Idieresis" unicode="&#xcf;" horiz-adv-x="897" 
d="M17 1948c0.666992 30 2.50391 59.3311 5.50391 87.998s5.16699 51.667 6.5 69c2.66699 30 11.167 55.333 25.5 76s30.666 37.834 48.999 51.5c18.333 13.667 36.666 24.5 54.999 32.5l44.5 19c10.667 2.66699 22.5 2.5 35.5 -0.5s26.667 -7.5 41 -13.5
s28 -13.167 41 -21.5s24.167 -16.5 33.5 -24.5c13.333 -56 23.166 -114.667 29.499 -176s6.83301 -123.333 1.5 -186c-8 -27.333 -29.833 -51 -65.5 -71s-74 -33.667 -115 -41s-78.833 -7.66602 -113.5 -0.999023s-55.334 22.334 -62.001 47.001
c-5.33301 16.667 -8.83301 38.667 -10.5 66s-2.16699 56 -1.5 86zM161.004 829.998c0.666992 -142.667 3.3291 -284.17 7.99609 -424.503s11 -273.5 19 -399.5c15.333 -1.33301 37 -2.33301 65 -3s59.333 -0.666992 94 0s70.834 2.33398 108.501 5.00098
s73.167 5.83398 106.5 9.50098s63 7.5 89 11.5s44.667 8.66699 56 14c15.333 274.667 27.333 545.834 36 813.501s13 534.5 13 800.5h-139.5c-49 0 -99.167 -1.33301 -150.5 -4s-102.166 -6.5 -152.499 -11.5s-98.166 -11.5 -143.499 -19.5
c-4 -113.333 -6.66699 -238 -8 -374s-1.66602 -275.333 -0.999023 -418zM559.999 1960c0.666992 28.667 1.99609 56.999 3.99609 84.999s3.66699 50 5 66c2.66699 27.333 10.834 50.666 24.501 70c13.667 19.333 28.834 35.5 45.501 48.5s33.5 23.5 50.5 31.5
s30.833 13.333 41.5 16c19.333 6.66699 43 3.33398 71 -10c28 -13.333 50.667 -28.333 68 -45c10.667 -53.333 19.167 -109 25.5 -167s6.83301 -116.333 1.5 -175c-8 -26 -28.167 -48.5 -60.5 -67.5s-67.166 -32.333 -104.499 -40s-72 -8 -104 -1s-51.667 22.167 -59 45.5
c-4 13.333 -6.66699 33.333 -8 60s-1.66602 54.334 -0.999023 83.001z" />
    <glyph glyph-name="Ntilde" unicode="&#xd1;" horiz-adv-x="2117" 
d="M119 1078.5c0 105.667 1.00195 206.666 3.00195 302.999s4.33301 180.5 7 252.5c8 6.66699 31.5 14.167 70.5 22.5s86.833 15.666 143.5 21.999s118.5 12.5 185.5 18.5s131.5 10.667 193.5 14s118.667 5 170 5s89.333 -2 114 -6c44 -124 92.833 -246.167 146.5 -366.5
l160.5 -360.5c5.33301 -10.667 13.166 -19.167 23.499 -25.5s21.666 -9.16602 33.999 -8.49902s23.833 6.5 34.5 17.5s19 27.5 25 49.5c1.33301 4 2.66602 18.667 3.99902 44s2.33301 57.333 3 96s2 81 4 127s3.33301 91.833 4 137.5s1.66699 88.667 3 129
s2.66602 73.5 3.99902 99.5c173.333 40 348.666 52.333 525.999 37c2.66699 -268.667 3.33398 -539.334 2.00098 -812.001s-6 -544.334 -14 -815.001c-44 -6.66699 -96.333 -13.667 -157 -21s-126.167 -14.166 -196.5 -20.499s-143.666 -12.166 -219.999 -17.499
s-152.166 -8 -227.499 -8c-74 109.333 -141.333 224.333 -202 345s-116.667 243.334 -168 368.001c-5.33301 15.333 -15 26.333 -29 33s-27.667 8.5 -41 5.5s-25.5 -9.5 -36.5 -19.5s-17.833 -26.667 -20.5 -50c-20.667 -181.333 -25 -402 -13 -662
c-82 -22 -164.167 -34.333 -246.5 -37s-168.5 3 -258.5 17c-5.33301 48 -10.166 111.167 -14.499 189.5s-7.83301 166.333 -10.5 264s-4.33398 201.167 -5.00098 310.5s-1 216.833 -1 322.5zM514.002 1913c19.333 32.667 41.1641 67.501 65.4971 104.501
s50.833 72.5 79.5 106.5s58.834 64.667 90.501 92s62.5 47 92.5 59c31.333 13.333 64.333 16.333 99 9s70.834 -19.5 108.501 -36.5s76.667 -36.833 117 -59.5s81.5 -42 123.5 -58c28.667 -10.667 56.667 -10 84 2s52.666 27 75.999 45c26 22 51.333 48.667 76 80
c34 -15.333 66.333 -34.166 97 -56.5c30.667 -22.333 55.667 -47.166 75 -74.5l-69.5 -85.5c-33 -40.333 -69.333 -81.333 -109 -123s-80.667 -77.5 -123 -107.5s-79.833 -44.333 -112.5 -43c-36.667 2.66699 -78.667 12.667 -126 30s-93.166 35.5 -137.499 54.5
s-84.166 34.667 -119.499 47s-60 15.833 -74 10.5c-18 -5.33301 -40.167 -20.333 -66.5 -45s-50.5 -49.334 -72.5 -74.001c-44 18 -81 37.5 -111 58.5s-51 42.5 -63 64.5z" />
    <glyph glyph-name="Ograve" unicode="&#xd2;" horiz-adv-x="2109" 
d="M96 603c0 -90.667 0.666992 -173.002 2 -247.002c10.667 -30 26.334 -64 47.001 -102s43.334 -76.833 68.001 -116.5s49.667 -76.667 75 -111s48 -62.166 68 -83.499c62.667 -5.33301 132.667 -10.833 210 -16.5s157.666 -9.16699 240.999 -10.5s167.666 -2 252.999 -2
s167.833 1.66699 247.5 5s154.334 7.83301 224.001 13.5s129.834 12.5 180.501 20.5c52 57.333 99.5 117 142.5 179s88.5 123 136.5 183c6.66699 40.667 10.334 103.5 11.001 188.5s0 177.667 -2 278s-5 199.333 -9 297s-8.33301 179.167 -13 244.5l-71.5 107.5
c-25.667 37.667 -52.5 74.834 -80.5 111.501s-57 71.167 -87 103.5s-60 60.833 -90 85.5c-54.667 9.33301 -115.834 16 -183.501 20s-137.667 6.33301 -210 7s-146 -1 -221 -5l-218 -12c-70.333 -4 -137 -8.83301 -200 -14.5s-118.833 -11.167 -167.5 -16.5
c-20.667 -9.33301 -46.334 -29 -77.001 -59s-62.5 -62.833 -95.5 -98.5l-94.5 -104.5l-73 -82c-4 -64 -6.83301 -139 -8.5 -225s-2.83398 -174.5 -3.50098 -265.5s-1 -181.833 -1 -272.5zM631 2245c69.333 35.333 144.999 62.833 226.999 82.5s169.333 29.5 262 29.5
l30.5 -93c12.333 -37.333 26.833 -77.166 43.5 -119.5c16.667 -42.333 34.834 -84.666 54.501 -126.999s41.167 -81.166 64.5 -116.499c-42 -19.333 -91.167 -33.833 -147.5 -43.5s-106.833 -15.834 -151.5 -18.501c-31.333 20.667 -63.5 46.667 -96.5 78
s-65.5 65.166 -97.5 101.499l-95 112zM801.999 615.998c-0.666992 57.333 -0.665039 117.831 0.00195312 181.498s2 123.167 4 178.5s5 103.833 9 145.5s10.333 69.834 19 84.501c35.333 16.667 69.666 28.667 102.999 36s67.5 12.833 102.5 16.5
s70.833 5.83398 107.5 6.50098s76.334 1.66699 119.001 3c9.33301 -76.667 15.666 -153.5 18.999 -230.5s5 -152.167 5 -225.5s-1.33301 -143.666 -4 -210.999s-4.66699 -131 -6 -191c-24.667 -19.333 -56.834 -35.833 -96.501 -49.5s-82 -23.167 -127 -28.5
s-89.667 -6 -134 -2s-82.833 13.333 -115.5 28c0 22 -0.666992 56.167 -2 102.5s-2.33301 98.166 -3 155.499z" />
    <glyph glyph-name="Oacute" unicode="&#xd3;" horiz-adv-x="2109" 
d="M96 603c0 90.667 0.332031 181.502 0.999023 272.502s1.66699 179.5 3 265.5s4.33301 161 9 225l73.5 82l94 104.5c33 35.667 64.833 68.5 95.5 98.5s56.334 49.667 77.001 59c49.333 5.33301 105.333 10.833 168 16.5s129.167 10.5 199.5 14.5l218 12
c75 4 148.667 5.66699 221 5s142.333 -3 210 -7s128.834 -10.667 183.501 -20c30 -24.667 60 -53.167 90 -85.5s59 -66.833 87 -103.5s55 -73.834 81 -111.501s49.667 -73.5 71 -107.5c4 -65.333 8.16699 -146.833 12.5 -244.5s7.5 -196.667 9.5 -297s2.66699 -193 2 -278
s-4.33398 -147.833 -11.001 -188.5c-48 -60 -93.5 -121 -136.5 -183s-90.5 -121.667 -142.5 -179c-50.667 -8 -110.834 -14.833 -180.501 -20.5s-144.334 -10.167 -224.001 -13.5s-162.167 -5 -247.5 -5s-169.666 0.666992 -252.999 2s-163.5 4.66602 -240.5 9.99902
s-147.167 11 -210.5 17c-20.667 22 -43.5 50 -68.5 84s-49.833 70.833 -74.5 110.5s-47.167 78.5 -67.5 116.5s-36.166 72 -47.499 102c-1.33301 74 -2 156.333 -2 247zM790.999 1888c24.667 35.333 46.834 74.166 66.501 116.499s37.667 84.666 54 126.999
s30.666 82.333 42.999 120l30.5 93.5c91.333 0 178.166 -10 260.499 -30s158.166 -47.667 227.499 -83l-93.5 -114.5l-96.5 -111.5c-32 -36 -64.333 -69.667 -97 -101s-64.667 -57.333 -96 -78c-45.333 2.66699 -95.666 8.83398 -150.999 18.501
s-104.666 23.834 -147.999 42.501zM801.999 616.002c0.666992 -57.333 1.66406 -109.166 2.99707 -155.499s2 -80.5 2 -102.5c32.667 -15.333 71.167 -24.833 115.5 -28.5s89 -2.83398 134 2.49902s87.333 14.833 127 28.5s71.834 30.167 96.501 49.5
c1.33301 60 3.33301 123.667 6 191s4 137.666 4 210.999s-1.66699 148.5 -5 225.5s-9.66602 153.833 -18.999 230.5c-42 -1.33301 -81.5 -2.33301 -118.5 -3s-73 -2.83398 -108 -6.50098s-69.167 -9.16699 -102.5 -16.5s-67.666 -19.333 -102.999 -36
c-8 -15.333 -14.167 -43.666 -18.5 -84.999s-7.5 -89.666 -9.5 -144.999s-3.33301 -114.833 -4 -178.5s-0.666992 -124.167 0 -181.5z" />
    <glyph glyph-name="Ocircumflex" unicode="&#xd4;" horiz-adv-x="2109" 
d="M96 603c0 90.667 0.332031 181.502 0.999023 272.502s1.66699 179.5 3 265.5s4.33301 161 9 225l73.5 82l94 104.5c33 35.667 64.833 68.5 95.5 98.5s56.334 49.667 77.001 59c49.333 5.33301 105.333 10.833 168 16.5s129.167 10.5 199.5 14.5l218 12
c75 4 148.667 5.66699 221 5s142.333 -3 210 -7s128.834 -10.667 183.501 -20c30 -24.667 60 -53.167 90 -85.5s59 -66.833 87 -103.5s55 -73.834 81 -111.501s49.667 -73.5 71 -107.5c4 -65.333 8.16699 -146.833 12.5 -244.5s7.5 -196.667 9.5 -297s2.66699 -193 2 -278
s-4.33398 -147.833 -11.001 -188.5c-48 -60 -93.5 -121 -136.5 -183s-90.5 -121.667 -142.5 -179c-50.667 -8 -110.834 -14.833 -180.501 -20.5s-144.334 -10.167 -224.001 -13.5s-162.167 -5 -247.5 -5s-169.666 0.666992 -252.999 2s-163.5 4.66602 -240.5 9.99902
s-147.167 11 -210.5 17c-20.667 22 -43.5 50 -68.5 84s-49.833 70.833 -74.5 110.5s-47.167 78.5 -67.5 116.5s-36.166 72 -47.499 102c-1.33301 74 -2 156.333 -2 247zM519.999 1855c13.333 35.333 29.998 74.6709 49.998 118.004s42 87.5 66 132.5s49.333 90 76 135
s53 87.167 79 126.5c26 2.66699 61.167 4.83398 105.5 6.5c44.333 1.66699 90 3.16699 137 4.5s91.333 1.33301 133 0s72.834 -2.66602 93.501 -3.99902l69.5 -119l78.5 -132.5l79 -129l72 -113.5c-28.667 -2.66699 -61.167 -6 -97.5 -10l-104.5 -11.5
c-33.333 -3.66699 -62.666 -6.5 -87.999 -8.5s-41.333 -1.66699 -48 1c-9.33301 18 -21 38 -35 60l-41.5 64.5l-39 59l-28.5 42.5c-2.66699 2.66699 -6.66699 8 -12 16s-12.333 12 -21 12c-12 0 -22.167 -4.66699 -30.5 -14s-13.833 -17 -16.5 -23l-70.5 -107
c-25 -38.667 -45.833 -77.334 -62.5 -116.001c-38 -2.66699 -75.833 -4.33398 -113.5 -5.00098s-72.167 -0.333984 -103.5 0.999023s-58.333 3.66602 -81 6.99902s-38 5.66602 -46 6.99902zM801.997 616.007c0.666992 -57.333 1.66406 -109.166 2.99707 -155.499
s2 -80.5 2 -102.5c32.667 -15.333 71.167 -24.833 115.5 -28.5s89 -2.83398 134 2.49902s87.333 14.833 127 28.5s71.834 30.167 96.501 49.5c1.33301 60 3.33301 123.667 6 191s4 137.666 4 210.999s-1.66699 148.5 -5 225.5s-9.66602 153.833 -18.999 230.5
c-42 -1.33301 -81.5 -2.33301 -118.5 -3s-73 -2.83398 -108 -6.50098s-69.167 -9.16699 -102.5 -16.5s-67.666 -19.333 -102.999 -36c-8 -15.333 -14.167 -43.666 -18.5 -84.999s-7.5 -89.666 -9.5 -144.999s-3.33301 -114.833 -4 -178.5s-0.666992 -124.167 0 -181.5z" />
    <glyph glyph-name="Otilde" unicode="&#xd5;" horiz-adv-x="2109" 
d="M96 603c0 90.667 0.332031 181.502 0.999023 272.502s1.66699 179.5 3 265.5s4.33301 161 9 225l73.5 82l94 104.5c33 35.667 64.833 68.5 95.5 98.5s56.334 49.667 77.001 59c49.333 5.33301 105.333 10.833 168 16.5s129.167 10.5 199.5 14.5l218 12
c75 4 148.667 5.66699 221 5s142.333 -3 210 -7s128.834 -10.667 183.501 -20c30 -24.667 60 -53.167 90 -85.5s59 -66.833 87 -103.5s55 -73.834 81 -111.501s49.667 -73.5 71 -107.5c4 -65.333 8.16699 -146.833 12.5 -244.5s7.5 -196.667 9.5 -297s2.66699 -193 2 -278
s-4.33398 -147.833 -11.001 -188.5c-48 -60 -93.5 -121 -136.5 -183s-90.5 -121.667 -142.5 -179c-50.667 -8 -110.834 -14.833 -180.501 -20.5s-144.334 -10.167 -224.001 -13.5s-162.167 -5 -247.5 -5s-169.666 0.666992 -252.999 2s-163.5 4.66602 -240.5 9.99902
s-147.167 11 -210.5 17c-20.667 22 -43.5 50 -68.5 84s-49.833 70.833 -74.5 110.5s-47.167 78.5 -67.5 116.5s-36.166 72 -47.499 102c-1.33301 74 -2 156.333 -2 247zM499.999 1964c19.333 32.667 41.168 67.5 65.501 104.5s50.833 72.167 79.5 105.5s58.667 64 90 92
s62 47.333 92 58c31.333 13.333 64.5 16.333 99.5 9s71.667 -19.5 110 -36.5s77.166 -36.667 116.499 -59s80.333 -41.833 123 -58.5c28.667 -9.33301 56.667 -8.16602 84 3.5c27.333 11.667 52.666 26.167 75.999 43.5c26 22 51 48.667 75 80
c34 -15.333 66.333 -34.166 97 -56.5c30.667 -22.333 55.667 -47.166 75 -74.5l-69 -85c-32.667 -40 -68.834 -80.5 -108.501 -121.5s-80.667 -76.5 -123 -106.5s-79.833 -44.333 -112.5 -43c-36.667 2.66699 -78.667 12.167 -126 28.5s-93.166 34 -137.499 53
s-84.166 35 -119.499 48s-60 17.5 -74 13.5c-18 -6.66699 -40.167 -22.334 -66.5 -47.001s-50.5 -50 -72.5 -76c-90 36.667 -148 78.334 -174 125.001zM802.001 616.002c0.666992 -57.333 1.66406 -109.166 2.99707 -155.499s2 -80.5 2 -102.5
c32.667 -15.333 71.167 -24.833 115.5 -28.5s89 -2.83398 134 2.49902s87.333 14.833 127 28.5s71.834 30.167 96.501 49.5c1.33301 60 3.33301 123.667 6 191s4 137.666 4 210.999s-1.66699 148.5 -5 225.5s-9.66602 153.833 -18.999 230.5
c-42 -1.33301 -81.5 -2.33301 -118.5 -3s-73 -2.83398 -108 -6.50098s-69.167 -9.16699 -102.5 -16.5s-67.666 -19.333 -102.999 -36c-8 -15.333 -14.167 -43.666 -18.5 -84.999s-7.5 -89.666 -9.5 -144.999s-3.33301 -114.833 -4 -178.5s-0.666992 -124.167 0 -181.5z" />
    <glyph glyph-name="Odieresis" unicode="&#xd6;" horiz-adv-x="2109" 
d="M96 603c0 -90.667 0.666992 -173.002 2 -247.002c10.667 -30 26.334 -64 47.001 -102s43.334 -76.833 68.001 -116.5s49.667 -76.667 75 -111s48 -62.166 68 -83.499c62.667 -5.33301 132.667 -10.833 210 -16.5s157.666 -9.16699 240.999 -10.5s167.666 -2 252.999 -2
s167.833 1.66699 247.5 5s154.334 7.83301 224.001 13.5s129.834 12.5 180.501 20.5c52 57.333 99.5 117 142.5 179s88.5 123 136.5 183c6.66699 40.667 10.334 103.5 11.001 188.5s0 177.667 -2 278s-5 199.333 -9 297s-8.33301 179.167 -13 244.5l-71.5 107.5
c-25.667 37.667 -52.5 74.834 -80.5 111.501s-57 71.167 -87 103.5s-60 60.833 -90 85.5c-54.667 9.33301 -115.834 16 -183.501 20s-137.667 6.33301 -210 7s-146 -1 -221 -5l-218 -12c-70.333 -4 -137 -8.83301 -200 -14.5s-118.833 -11.167 -167.5 -16.5
c-20.667 -9.33301 -46.334 -29 -77.001 -59s-62.5 -62.833 -95.5 -98.5l-94.5 -104.5l-73 -82c-4 -64 -6.83301 -139 -8.5 -225s-2.83398 -174.5 -3.50098 -265.5s-1 -181.833 -1 -272.5zM497 2023c0.666992 30 2.33203 59.3311 4.99902 87.998s5.33398 52.667 8.00098 72
c4 28.667 14.5 53.334 31.5 74.001s36.833 38.167 59.5 52.5s45.667 25.5 69 33.5s41.666 13.333 54.999 16c12 2.66699 26.667 3 44 1s34.833 -6.33301 52.5 -13s34.334 -14.167 50.001 -22.5s29.5 -16.5 41.5 -24.5c15.333 -56 27 -114.833 35 -176.5
s8.66699 -123.167 2 -184.5c-6.66699 -18 -21.667 -34.667 -45 -50s-50.333 -28.166 -81 -38.499s-63 -17.833 -97 -22.5s-66.333 -6.66699 -97 -6s-57 5 -79 13s-35.667 20.333 -41 37s-9 38.5 -11 65.5s-2.66699 55.5 -2 85.5zM801.998 615.996
c-0.666992 57.333 -0.665039 117.831 0.00195312 181.498s2 123.167 4 178.5s5 103.833 9 145.5s10.333 69.834 19 84.501c35.333 16.667 69.666 28.667 102.999 36s67.5 12.833 102.5 16.5s70.833 5.83398 107.5 6.50098s76.334 1.66699 119.001 3
c9.33301 -76.667 15.666 -153.5 18.999 -230.5s5 -152.167 5 -225.5s-1.33301 -143.666 -4 -210.999s-4.66699 -131 -6 -191c-24.667 -19.333 -56.834 -35.833 -96.501 -49.5s-82 -23.167 -127 -28.5s-89.667 -6 -134 -2s-82.833 13.333 -115.5 28
c0 22 -0.666992 56.167 -2 102.5s-2.33301 98.166 -3 155.499zM1165 2035.99c1.33301 28.667 3.16504 57 5.49805 85s4.83301 50 7.5 66c4 27.333 13.833 50.666 29.5 70c15.667 19.333 33.667 35.333 54 48s41.166 23.167 62.499 31.5s38.666 14.5 51.999 18.5
c23.333 5.33301 52.5 1.16602 87.5 -12.5c35 -13.667 63.167 -28.5 84.5 -44.5c15.333 -52 26.333 -107.333 33 -166s7.33398 -117.334 2.00098 -176.001c-6.66699 -18 -20.667 -33.833 -42 -47.5s-46 -25.5 -74 -35.5s-58 -17.5 -90 -22.5s-61.667 -6.83301 -89 -5.5
s-51.166 5.83301 -71.499 13.5s-33.166 18.834 -38.499 33.501c-5.33301 15.333 -9.16602 36 -11.499 62s-2.83301 53.333 -1.5 82z" />
    <glyph glyph-name="Oslash" unicode="&#xd8;" horiz-adv-x="2109" 
d="M91 695.5c-0.666992 92.333 -0.669922 185.506 -0.00292969 279.506s1.66699 185.333 3 274s4 166.667 8 234c20.667 19.333 46 46.666 76 81.999l94.5 108.5c33 37 64.833 70.5 95.5 100.5s56 51 76 63c52 4 111.167 9.16699 177.5 15.5s136.333 11.833 210 16.5
s149.834 8.66699 228.501 12s155.334 5 230.001 5l33.5 55.5c11.667 19 23.834 37.5 36.501 55.5c64 6.66699 127.833 8.66699 191.5 6s122 -7.83398 175 -15.501s98.667 -15.5 137 -23.5s64.5 -14 78.5 -18l-72 -118l-74 -124c35.333 -42 68.5 -86.667 99.5 -134l86.5 -134
l9.5 -158c3.66699 -61.333 6.5 -125.833 8.5 -193.5s3.66699 -136.334 5 -206.001s2 -135.5 2 -197.5s-1 -117.667 -3 -167s-5 -87.666 -9 -114.999c-48 -62.667 -93.5 -125.667 -136.5 -189s-90.5 -125 -142.5 -185c-46.667 -8 -100 -14.833 -160 -20.5
s-124.833 -10.167 -194.5 -13.5s-142 -5.33301 -217 -6s-150.5 -1 -226.5 -1c-12 -27.333 -24.333 -54 -37 -80s-24.334 -52.667 -35.001 -80c-64 -6.66699 -127.167 -10.334 -189.5 -11.001s-119.666 0.666016 -171.999 3.99902s-97.333 7.66602 -135 12.999
s-63.5 10.666 -77.5 15.999l38 88.5l38 85.5c-22 23.333 -45.5 52.5 -70.5 87.5s-49.167 72.333 -72.5 112s-44.833 79.167 -64.5 118.5s-35.167 73.333 -46.5 102c-1.33301 78 -2.33301 163.167 -3 255.5zM802.997 1006.01l93 180.999l95 177
c-27.333 -4 -54 -9.83301 -80 -17.5s-52.667 -18.167 -80 -31.5c-9.33301 -18 -16 -55.667 -20 -113s-6.66699 -122.666 -8 -195.999zM1124 426.005c31.333 8 60.668 17.832 88.001 29.499s50 25.834 68 42.501l4 123.5c1.33301 43 2.66602 88.5 3.99902 136.5l-82 -166z
" />
    <glyph glyph-name="Ugrave" unicode="&#xd9;" horiz-adv-x="1994" 
d="M122 1016c0.666992 -84.667 1.99805 -167 3.99805 -247s3.66699 -154.833 5 -224.5s2 -127.5 2 -173.5c9.33301 -24.667 23.666 -54.5 42.999 -89.5s40.833 -70.167 64.5 -105.5s47.5 -69 71.5 -101s45.667 -57 65 -75c91.333 -8 192 -12 302 -12s220.667 1.66699 332 5
s218.833 7.33301 322.5 12s194.5 7.66699 272.5 9c23.333 26 47.5 56.167 72.5 90.5l73.5 102.5c24 34 45.5 67.667 64.5 101s33.5 64.333 43.5 93c-2.66699 83.333 -4.16699 178.666 -4.5 285.999s0.333984 218 2.00098 332s3.83398 227.333 6.50098 340
s4.66699 216.667 6 312c-114.667 -2.66699 -226 -3.66699 -334 -3s-216.667 -10.666 -326 -33.999c-1.33301 -80.667 -2 -167.667 -2 -261s0.333008 -189.166 1 -287.499s1.66699 -195.666 3 -291.999s2 -188.833 2 -277.5c-23.333 -22 -53.666 -38.333 -90.999 -49
s-76.166 -17.834 -116.499 -21.501s-80.333 -3 -120 2s-73.167 12.833 -100.5 23.5c-5.33301 87.333 -10.333 174.333 -15 261s-7.33398 176.834 -8.00098 270.501s0.333008 192 3 295s8.66699 213.833 18 332.5c-116 13.333 -225.167 19.166 -327.5 17.499
s-208.166 -9.5 -317.499 -23.5c-5.33301 -36.667 -9.33301 -87.167 -12 -151.5s-4.33398 -135.333 -5.00098 -213s-0.666992 -158.834 0 -243.501zM521.998 2159c142 70.667 304.667 107.997 488 111.997c8 -26 18.167 -57.333 30.5 -94s26.666 -76.167 42.999 -118.5
s34.333 -84.666 54 -126.999s41.834 -81.166 66.501 -116.499c-22 -10.667 -45.5 -19.167 -70.5 -25.5s-50.833 -12 -77.5 -17s-53 -9.16699 -79 -12.5s-50 -5.66602 -72 -6.99902c-31.333 20.667 -63.333 46.667 -96 78s-65 64.333 -97 99s-64.167 72 -96.5 112z" />
    </font>
</defs>
</svg>
